<svg width="3452" height="1125" xmlns="http://www.w3.org/2000/svg" xmlns:xlink="http://www.w3.org/1999/xlink" xml:space="preserve" overflow="hidden"><g transform="translate(-320 -373)"><rect x="323.5" y="376.5" width="3445" height="1118" stroke="#FF8200" stroke-width="6.875" stroke-miterlimit="8" fill="none"/><text fill="#FF8200" font-family="Arial Black,Arial Black_MSFontService,sans-serif" font-weight="900" font-size="55" transform="matrix(1 0 0 1 707.193 721)">Power &amp; </text><text fill="#FF8200" font-family="Arial Black,Arial Black_MSFontService,sans-serif" font-weight="900" font-size="55" transform="matrix(1 0 0 1 979.169 721)">Safety</text><text fill="#FF8200" font-family="Arial Black,Arial Black_MSFontService,sans-serif" font-weight="900" font-size="55" transform="matrix(1 0 0 1 1316.42 721)">Profinet</text><text fill="#FF8200" font-family="Arial Black,Arial Black_MSFontService,sans-serif" font-weight="900" font-size="55" transform="matrix(1 0 0 1 1808.84 721)">LAN (OCPP)</text><text fill="#FF8200" font-family="Arial Black,Arial Black_MSFontService,sans-serif" font-weight="900" font-size="55" transform="matrix(1 0 0 1 2585.14 725)">MCS</text><text fill="#FF8200" font-family="Arial Black,Arial Black_MSFontService,sans-serif" font-weight="900" font-size="55" transform="matrix(1 0 0 1 3126.35 721)">IO</text><path d="M742.5 1003C742.5 906.074 821.074 827.5 918 827.5 1014.93 827.5 1093.5 906.074 1093.5 1003 1093.5 1099.93 1014.93 1178.5 918 1178.5 821.074 1178.5 742.5 1099.93 742.5 1003Z" stroke="#FF8200" stroke-width="6.875" stroke-miterlimit="8" fill="none" fill-rule="evenodd"/><path d="M802.5 908C802.5 897.231 811.007 888.5 821.5 888.5 831.993 888.5 840.5 897.231 840.5 908 840.5 918.77 831.993 927.5 821.5 927.5 811.007 927.5 802.5 918.77 802.5 908Z" stroke="#042433" stroke-width="6.875" stroke-miterlimit="8" fill="none" fill-rule="evenodd"/><path d="M992.5 908C992.5 897.231 1001.01 888.5 1011.5 888.5 1021.99 888.5 1030.5 897.231 1030.5 908 1030.5 918.77 1021.99 927.5 1011.5 927.5 1001.01 927.5 992.5 918.77 992.5 908Z" stroke="#042433" stroke-width="6.875" stroke-miterlimit="8" fill="none" fill-rule="evenodd"/><path d="M800.5 1095C800.5 1084.23 809.231 1075.5 820 1075.5 830.77 1075.5 839.5 1084.23 839.5 1095 839.5 1105.77 830.77 1114.5 820 1114.5 809.231 1114.5 800.5 1105.77 800.5 1095Z" stroke="#042433" stroke-width="6.875" stroke-miterlimit="8" fill="none" fill-rule="evenodd"/><path d="M992.5 1095C992.5 1084.23 1001.01 1075.5 1011.5 1075.5 1021.99 1075.5 1030.5 1084.23 1030.5 1095 1030.5 1105.77 1021.99 1114.5 1011.5 1114.5 1001.01 1114.5 992.5 1105.77 992.5 1095Z" stroke="#042433" stroke-width="6.875" stroke-miterlimit="8" fill="none" fill-rule="evenodd"/><path d="M896.5 1000C896.5 989.23 905.007 980.5 915.5 980.5 925.994 980.5 934.5 989.23 934.5 1000 934.5 1010.77 925.994 1019.5 915.5 1019.5 905.007 1019.5 896.5 1010.77 896.5 1000Z" stroke="#042433" stroke-width="6.875" stroke-miterlimit="8" fill="none" fill-rule="evenodd"/><text fill="#FF8200" font-family="Arial Black,Arial Black_MSFontService,sans-serif" font-weight="900" font-size="46" transform="matrix(1 0 0 1 784.812 972)">2</text><text fill="#FF8200" font-family="Arial Black,Arial Black_MSFontService,sans-serif" font-weight="900" font-size="46" transform="matrix(1 0 0 1 1033.3 972)">1</text><text fill="#FF8200" font-family="Arial Black,Arial Black_MSFontService,sans-serif" font-weight="900" font-size="46" transform="matrix(1 0 0 1 899.878 952)">5</text><text fill="#FF8200" font-family="Arial Black,Arial Black_MSFontService,sans-serif" font-weight="900" font-size="46" transform="matrix(1 0 0 1 847.128 1146)">3</text><text fill="#FF8200" font-family="Arial Black,Arial Black_MSFontService,sans-serif" font-weight="900" font-size="46" transform="matrix(1 0 0 1 952.423 1145)">4</text><path d="M1283.5 1003C1283.5 906.074 1362.07 827.5 1459 827.5 1555.93 827.5 1634.5 906.074 1634.5 1003 1634.5 1099.93 1555.93 1178.5 1459 1178.5 1362.07 1178.5 1283.5 1099.93 1283.5 1003Z" stroke="#FF8200" stroke-width="6.875" stroke-miterlimit="8" fill="none" fill-rule="evenodd"/><path d="M1343 907.5C1343 896.73 1351.51 888 1362 888 1372.49 888 1381 896.73 1381 907.5 1381 918.27 1372.49 927 1362 927 1351.51 927 1343 918.27 1343 907.5Z" fill-rule="evenodd"/><path d="M1533 907.5C1533 896.73 1541.51 888 1552 888 1562.49 888 1571 896.73 1571 907.5 1571 918.27 1562.49 927 1552 927 1541.51 927 1533 918.27 1533 907.5Z" fill-rule="evenodd"/><path d="M1342 1094.5C1342 1083.73 1350.51 1075 1361 1075 1371.49 1075 1380 1083.73 1380 1094.5 1380 1105.27 1371.49 1114 1361 1114 1350.51 1114 1342 1105.27 1342 1094.5Z" fill-rule="evenodd"/><path d="M1533 1094.5C1533 1083.73 1541.51 1075 1552 1075 1562.49 1075 1571 1083.73 1571 1094.5 1571 1105.27 1562.49 1114 1552 1114 1541.51 1114 1533 1105.27 1533 1094.5Z" fill-rule="evenodd"/><path d="M1437 999.5C1437 988.73 1445.51 980 1456 980 1466.49 980 1475 988.73 1475 999.5 1475 1010.27 1466.49 1019 1456 1019 1445.51 1019 1437 1010.27 1437 999.5Z" fill-rule="evenodd"/><text fill="#FF8200" font-family="Arial Black,Arial Black_MSFontService,sans-serif" font-weight="900" font-size="46" transform="matrix(1 0 0 1 1325.86 972)">1</text><text fill="#FF8200" font-family="Arial Black,Arial Black_MSFontService,sans-serif" font-weight="900" font-size="46" transform="matrix(1 0 0 1 1574.35 972)">2</text><text fill="#FF8200" font-family="Arial Black,Arial Black_MSFontService,sans-serif" font-weight="900" font-size="46" transform="matrix(1 0 0 1 1440.92 952)">5</text><text fill="#FF8200" font-family="Arial Black,Arial Black_MSFontService,sans-serif" font-weight="900" font-size="46" transform="matrix(1 0 0 1 1388.17 1146)">4</text><text fill="#FF8200" font-family="Arial Black,Arial Black_MSFontService,sans-serif" font-weight="900" font-size="46" transform="matrix(1 0 0 1 1493.47 1145)">3</text><path d="M1810.5 1003C1810.5 906.074 1889.07 827.5 1986 827.5 2082.93 827.5 2161.5 906.074 2161.5 1003 2161.5 1099.93 2082.93 1178.5 1986 1178.5 1889.07 1178.5 1810.5 1099.93 1810.5 1003Z" stroke="#FF8200" stroke-width="6.875" stroke-miterlimit="8" fill="none" fill-rule="evenodd"/><path d="M1870 907.5C1870 896.73 1878.51 888 1889 888 1899.49 888 1908 896.73 1908 907.5 1908 918.27 1899.49 927 1889 927 1878.51 927 1870 918.27 1870 907.5Z" fill-rule="evenodd"/><path d="M2060 907.5C2060 896.73 2068.51 888 2079 888 2089.49 888 2098 896.73 2098 907.5 2098 918.27 2089.49 927 2079 927 2068.51 927 2060 918.27 2060 907.5Z" fill-rule="evenodd"/><path d="M1868 1094.5C1868 1083.73 1876.73 1075 1887.5 1075 1898.27 1075 1907 1083.73 1907 1094.5 1907 1105.27 1898.27 1114 1887.5 1114 1876.73 1114 1868 1105.27 1868 1094.5Z" fill-rule="evenodd"/><path d="M2060 1094.5C2060 1083.73 2068.51 1075 2079 1075 2089.49 1075 2098 1083.73 2098 1094.5 2098 1105.27 2089.49 1114 2079 1114 2068.51 1114 2060 1105.27 2060 1094.5Z" fill-rule="evenodd"/><path d="M1964 999.5C1964 988.73 1972.51 980 1983 980 1993.49 980 2002 988.73 2002 999.5 2002 1010.27 1993.49 1019 1983 1019 1972.51 1019 1964 1010.27 1964 999.5Z" fill-rule="evenodd"/><text fill="#FF8200" font-family="Arial Black,Arial Black_MSFontService,sans-serif" font-weight="900" font-size="46" transform="matrix(1 0 0 1 1852.74 972)">1</text><text fill="#FF8200" font-family="Arial Black,Arial Black_MSFontService,sans-serif" font-weight="900" font-size="46" transform="matrix(1 0 0 1 2101.23 972)">2</text><text fill="#FF8200" font-family="Arial Black,Arial Black_MSFontService,sans-serif" font-weight="900" font-size="46" transform="matrix(1 0 0 1 1967.81 952)">5</text><text fill="#FF8200" font-family="Arial Black,Arial Black_MSFontService,sans-serif" font-weight="900" font-size="46" transform="matrix(1 0 0 1 1915.06 1146)">4</text><text fill="#FF8200" font-family="Arial Black,Arial Black_MSFontService,sans-serif" font-weight="900" font-size="46" transform="matrix(1 0 0 1 2020.35 1145)">3</text><path d="M2476.5 1007C2476.5 910.074 2555.07 831.5 2652 831.5 2748.93 831.5 2827.5 910.074 2827.5 1007 2827.5 1103.93 2748.93 1182.5 2652 1182.5 2555.07 1182.5 2476.5 1103.93 2476.5 1007Z" stroke="#FF8200" stroke-width="6.875" stroke-miterlimit="8" fill="none" fill-rule="evenodd"/><path d="M2535 910.5C2535 899.73 2543.73 891 2554.5 891 2565.27 891 2574 899.73 2574 910.5 2574 921.269 2565.27 930 2554.5 930 2543.73 930 2535 921.269 2535 910.5Z" fill-rule="evenodd"/><path d="M2725 910.5C2725 899.73 2733.73 891 2744.5 891 2755.27 891 2764 899.73 2764 910.5 2764 921.269 2755.27 930 2744.5 930 2733.73 930 2725 921.269 2725 910.5Z" fill-rule="evenodd"/><path d="M2534 1097.5C2534 1086.73 2542.51 1078 2553 1078 2563.49 1078 2572 1086.73 2572 1097.5 2572 1108.27 2563.49 1117 2553 1117 2542.51 1117 2534 1108.27 2534 1097.5Z" fill-rule="evenodd"/><path d="M2725 1097.5C2725 1086.73 2733.73 1078 2744.5 1078 2755.27 1078 2764 1086.73 2764 1097.5 2764 1108.27 2755.27 1117 2744.5 1117 2733.73 1117 2725 1108.27 2725 1097.5Z" fill-rule="evenodd"/><path d="M2630 1002.5C2630 991.731 2638.51 983 2649 983 2659.49 983 2668 991.731 2668 1002.5 2668 1013.27 2659.49 1022 2649 1022 2638.51 1022 2630 1013.27 2630 1002.5Z" fill-rule="evenodd"/><text fill="#FF8200" font-family="Arial Black,Arial Black_MSFontService,sans-serif" font-weight="900" font-size="46" transform="matrix(1 0 0 1 2568.12 895)">1</text><text fill="#FF8200" font-family="Arial Black,Arial Black_MSFontService,sans-serif" font-weight="900" font-size="46" transform="matrix(1 0 0 1 2699.34 890)">2</text><text fill="#FF8200" font-family="Arial Black,Arial Black_MSFontService,sans-serif" font-weight="900" font-size="46" transform="matrix(1 0 0 1 2633.11 1117)">5</text><text fill="#FF8200" font-family="Arial Black,Arial Black_MSFontService,sans-serif" font-weight="900" font-size="46" transform="matrix(1 0 0 1 2769.23 1093)">4</text><text fill="#FF8200" font-family="Arial Black,Arial Black_MSFontService,sans-serif" font-weight="900" font-size="46" transform="matrix(1 0 0 1 2739.66 986)">3</text><path d="M2632 1141.5C2632 1130.73 2640.51 1122 2651 1122 2661.49 1122 2670 1130.73 2670 1141.5 2670 1152.27 2661.49 1161 2651 1161 2640.51 1161 2632 1152.27 2632 1141.5Z" fill-rule="evenodd"/><path d="M2498 1002.5C2498 991.731 2506.51 983 2517 983 2527.49 983 2536 991.731 2536 1002.5 2536 1013.27 2527.49 1022 2517 1022 2506.51 1022 2498 1013.27 2498 1002.5Z" fill-rule="evenodd"/><path d="M2766 1002.5C2766 991.731 2774.51 983 2785 983 2795.49 983 2804 991.731 2804 1002.5 2804 1013.27 2795.49 1022 2785 1022 2774.51 1022 2766 1013.27 2766 1002.5Z" fill-rule="evenodd"/><text fill="#FF8200" font-family="Arial Black,Arial Black_MSFontService,sans-serif" font-weight="900" font-size="46" transform="matrix(1 0 0 1 2504.21 1082)">6</text><text fill="#FF8200" font-family="Arial Black,Arial Black_MSFontService,sans-serif" font-weight="900" font-size="46" transform="matrix(1 0 0 1 2520.98 982)">7</text><text fill="#FF8200" font-family="Arial Black,Arial Black_MSFontService,sans-serif" font-weight="900" font-size="46" transform="matrix(1 0 0 1 2634.71 977)">8</text><path d="M2984.5 1014C2984.5 917.074 3063.07 838.5 3160 838.5 3256.93 838.5 3335.5 917.074 3335.5 1014 3335.5 1110.93 3256.93 1189.5 3160 1189.5 3063.07 1189.5 2984.5 1110.93 2984.5 1014Z" stroke="#FF8200" stroke-width="6.875" stroke-miterlimit="8" fill="none" fill-rule="evenodd"/><path d="M3044 918.5C3044 907.73 3052.51 899 3063 899 3073.49 899 3082 907.73 3082 918.5 3082 929.27 3073.49 938 3063 938 3052.51 938 3044 929.27 3044 918.5Z" fill-rule="evenodd"/><path d="M3234 918.5C3234 907.73 3242.51 899 3253 899 3263.49 899 3272 907.73 3272 918.5 3272 929.27 3263.49 938 3253 938 3242.51 938 3234 929.27 3234 918.5Z" fill-rule="evenodd"/><path d="M3042 1105.5C3042 1094.73 3050.51 1086 3061 1086 3071.49 1086 3080 1094.73 3080 1105.5 3080 1116.27 3071.49 1125 3061 1125 3050.51 1125 3042 1116.27 3042 1105.5Z" fill-rule="evenodd"/><path d="M3234 1105.5C3234 1094.73 3242.51 1086 3253 1086 3263.49 1086 3272 1094.73 3272 1105.5 3272 1116.27 3263.49 1125 3253 1125 3242.51 1125 3234 1116.27 3234 1105.5Z" fill-rule="evenodd"/><path d="M3138 1009.5C3138 998.73 3146.51 990 3157 990 3167.49 990 3176 998.73 3176 1009.5 3176 1020.27 3167.49 1029 3157 1029 3146.51 1029 3138 1020.27 3138 1009.5Z" fill-rule="evenodd"/><text fill="#FF8200" font-family="Arial Black,Arial Black_MSFontService,sans-serif" font-weight="900" font-size="46" transform="matrix(1 0 0 1 3076.26 902)">1</text><text fill="#FF8200" font-family="Arial Black,Arial Black_MSFontService,sans-serif" font-weight="900" font-size="46" transform="matrix(1 0 0 1 3207.48 898)">2</text><text fill="#FF8200" font-family="Arial Black,Arial Black_MSFontService,sans-serif" font-weight="900" font-size="46" transform="matrix(1 0 0 1 3141.25 1124)">5</text><text fill="#FF8200" font-family="Arial Black,Arial Black_MSFontService,sans-serif" font-weight="900" font-size="46" transform="matrix(1 0 0 1 3277.37 1100)">4</text><text fill="#FF8200" font-family="Arial Black,Arial Black_MSFontService,sans-serif" font-weight="900" font-size="46" transform="matrix(1 0 0 1 3247.8 993)">3</text><path d="M3140 1148.5C3140 1137.73 3148.51 1129 3159 1129 3169.49 1129 3178 1137.73 3178 1148.5 3178 1159.27 3169.49 1168 3159 1168 3148.51 1168 3140 1159.27 3140 1148.5Z" fill-rule="evenodd"/><path d="M3006 1009.5C3006 998.73 3014.51 990 3025 990 3035.49 990 3044 998.73 3044 1009.5 3044 1020.27 3035.49 1029 3025 1029 3014.51 1029 3006 1020.27 3006 1009.5Z" fill-rule="evenodd"/><path d="M3274 1009.5C3274 998.73 3282.51 990 3293 990 3303.49 990 3312 998.73 3312 1009.5 3312 1020.27 3303.49 1029 3293 1029 3282.51 1029 3274 1020.27 3274 1009.5Z" fill-rule="evenodd"/><text fill="#FF8200" font-family="Arial Black,Arial Black_MSFontService,sans-serif" font-weight="900" font-size="46" transform="matrix(1 0 0 1 3012.35 1089)">6</text><text fill="#FF8200" font-family="Arial Black,Arial Black_MSFontService,sans-serif" font-weight="900" font-size="46" transform="matrix(1 0 0 1 3029.12 989)">7</text><text fill="#FF8200" font-family="Arial Black,Arial Black_MSFontService,sans-serif" font-weight="900" font-size="46" transform="matrix(1 0 0 1 3142.84 984)">8</text></g></svg>