<?xml version="1.0" encoding="UTF-8" standalone="no"?>
<svg
   width="3452"
   height="1125"
   xml:space="preserve"
   overflow="hidden"
   version="1.1"
   id="svg59"
   sodipodi:docname="ccy_pinout.svg"
   inkscape:version="1.4 (86a8ad7, 2024-10-11)"
   xmlns:inkscape="http://www.inkscape.org/namespaces/inkscape"
   xmlns:sodipodi="http://sodipodi.sourceforge.net/DTD/sodipodi-0.dtd"
   xmlns="http://www.w3.org/2000/svg"
   xmlns:svg="http://www.w3.org/2000/svg"><defs
     id="defs59" /><sodipodi:namedview
     id="namedview59"
     pagecolor="#ffffff"
     bordercolor="#000000"
     borderopacity="0.25"
     inkscape:showpageshadow="2"
     inkscape:pageopacity="0.0"
     inkscape:pagecheckerboard="0"
     inkscape:deskcolor="#d1d1d1"
     inkscape:zoom="0.25724218"
     inkscape:cx="1393.6284"
     inkscape:cy="483.97973"
     inkscape:window-width="1920"
     inkscape:window-height="1009"
     inkscape:window-x="3192"
     inkscape:window-y="-8"
     inkscape:window-maximized="1"
     inkscape:current-layer="svg59" /><rect
     x="3.5"
     y="3.5"
     width="3445"
     height="1118"
     stroke="#ff8200"
     stroke-width="6.875"
     stroke-miterlimit="8"
     fill="none"
     id="rect1" /><text
     fill="#ff8200"
     font-family="'Arial Black', 'Arial Black_MSFontService', sans-serif"
     font-weight="900"
     font-size="55px"
     id="text1"
     x="387.19299"
     y="348">Power &amp; </text><text
     fill="#ff8200"
     font-family="'Arial Black', 'Arial Black_MSFontService', sans-serif"
     font-weight="900"
     font-size="55px"
     id="text2"
     x="659.16901"
     y="348">Safety</text><text
     fill="#ff8200"
     font-family="'Arial Black', 'Arial Black_MSFontService', sans-serif"
     font-weight="900"
     font-size="55px"
     id="text3"
     x="996.41998"
     y="348">Profinet</text><text
     fill="#ff8200"
     font-family="'Arial Black', 'Arial Black_MSFontService', sans-serif"
     font-weight="900"
     font-size="55px"
     id="text4"
     x="1488.84"
     y="348">LAN (OCPP)</text><text
     fill="#ff8200"
     font-family="'Arial Black', 'Arial Black_MSFontService', sans-serif"
     font-weight="900"
     font-size="55px"
     id="text5"
     x="2265.1399"
     y="352">MCS</text><text
     fill="#ff8200"
     font-family="'Arial Black', 'Arial Black_MSFontService', sans-serif"
     font-weight="900"
     font-size="55px"
     id="text6"
     x="2806.3501"
     y="348">IO</text><path
     d="m 422.5,630 c 0,-96.926 78.574,-175.5 175.5,-175.5 96.93,0 175.5,78.574 175.5,175.5 0,96.93 -78.57,175.5 -175.5,175.5 -96.926,0 -175.5,-78.57 -175.5,-175.5 z"
     stroke="#ff8200"
     stroke-width="6.875"
     stroke-miterlimit="8"
     fill="none"
     fill-rule="evenodd"
     id="path6" /><path
     d="m 482.5,535 c 0,-10.769 8.507,-19.5 19,-19.5 10.493,0 19,8.731 19,19.5 0,10.77 -8.507,19.5 -19,19.5 -10.493,0 -19,-8.73 -19,-19.5 z"
     stroke="#042433"
     stroke-width="6.875"
     stroke-miterlimit="8"
     fill="none"
     fill-rule="evenodd"
     id="path7" /><path
     d="m 672.5,535 c 0,-10.769 8.51,-19.5 19,-19.5 10.49,0 19,8.731 19,19.5 0,10.77 -8.51,19.5 -19,19.5 -10.49,0 -19,-8.73 -19,-19.5 z"
     stroke="#042433"
     stroke-width="6.875"
     stroke-miterlimit="8"
     fill="none"
     fill-rule="evenodd"
     id="path8" /><path
     d="m 480.5,722 c 0,-10.77 8.731,-19.5 19.5,-19.5 10.77,0 19.5,8.73 19.5,19.5 0,10.77 -8.73,19.5 -19.5,19.5 -10.769,0 -19.5,-8.73 -19.5,-19.5 z"
     stroke="#042433"
     stroke-width="6.875"
     stroke-miterlimit="8"
     fill="none"
     fill-rule="evenodd"
     id="path9" /><path
     d="m 672.5,722 c 0,-10.77 8.51,-19.5 19,-19.5 10.49,0 19,8.73 19,19.5 0,10.77 -8.51,19.5 -19,19.5 -10.49,0 -19,-8.73 -19,-19.5 z"
     stroke="#042433"
     stroke-width="6.875"
     stroke-miterlimit="8"
     fill="none"
     fill-rule="evenodd"
     id="path10" /><path
     d="m 576.5,627 c 0,-10.77 8.507,-19.5 19,-19.5 10.494,0 19,8.73 19,19.5 0,10.77 -8.506,19.5 -19,19.5 -10.493,0 -19,-8.73 -19,-19.5 z"
     stroke="#042433"
     stroke-width="6.875"
     stroke-miterlimit="8"
     fill="none"
     fill-rule="evenodd"
     id="path11" /><text
     fill="#ff8200"
     font-family="'Arial Black', 'Arial Black_MSFontService', sans-serif"
     font-weight="900"
     font-size="46px"
     id="text11"
     x="464.81201"
     y="599">2</text><text
     fill="#ff8200"
     font-family="'Arial Black', 'Arial Black_MSFontService', sans-serif"
     font-weight="900"
     font-size="46px"
     id="text12"
     x="713.29999"
     y="599">1</text><text
     fill="#ff8200"
     font-family="'Arial Black', 'Arial Black_MSFontService', sans-serif"
     font-weight="900"
     font-size="46px"
     id="text13"
     x="579.87799"
     y="579">5</text><text
     fill="#ff8200"
     font-family="'Arial Black', 'Arial Black_MSFontService', sans-serif"
     font-weight="900"
     font-size="46px"
     id="text14"
     x="527.12799"
     y="773">3</text><text
     fill="#ff8200"
     font-family="'Arial Black', 'Arial Black_MSFontService', sans-serif"
     font-weight="900"
     font-size="46px"
     id="text15"
     x="632.42297"
     y="772">4</text><path
     d="m 963.5,630 c 0,-96.926 78.57,-175.5 175.5,-175.5 96.93,0 175.5,78.574 175.5,175.5 0,96.93 -78.57,175.5 -175.5,175.5 -96.93,0 -175.5,-78.57 -175.5,-175.5 z"
     stroke="#ff8200"
     stroke-width="6.875"
     stroke-miterlimit="8"
     fill="none"
     fill-rule="evenodd"
     id="path15" /><path
     d="m 1023,534.5 c 0,-10.77 8.51,-19.5 19,-19.5 10.49,0 19,8.73 19,19.5 0,10.77 -8.51,19.5 -19,19.5 -10.49,0 -19,-8.73 -19,-19.5 z"
     fill-rule="evenodd"
     id="path16" /><path
     d="m 1213,534.5 c 0,-10.77 8.51,-19.5 19,-19.5 10.49,0 19,8.73 19,19.5 0,10.77 -8.51,19.5 -19,19.5 -10.49,0 -19,-8.73 -19,-19.5 z"
     fill-rule="evenodd"
     id="path17" /><path
     d="m 1022,721.5 c 0,-10.77 8.51,-19.5 19,-19.5 10.49,0 19,8.73 19,19.5 0,10.77 -8.51,19.5 -19,19.5 -10.49,0 -19,-8.73 -19,-19.5 z"
     fill-rule="evenodd"
     id="path18" /><path
     d="m 1213,721.5 c 0,-10.77 8.51,-19.5 19,-19.5 10.49,0 19,8.73 19,19.5 0,10.77 -8.51,19.5 -19,19.5 -10.49,0 -19,-8.73 -19,-19.5 z"
     fill-rule="evenodd"
     id="path19" /><text
     fill="#ff8200"
     font-family="'Arial Black', 'Arial Black_MSFontService', sans-serif"
     font-weight="900"
     font-size="46px"
     id="text20"
     x="1005.86"
     y="599">1</text><text
     fill="#ff8200"
     font-family="'Arial Black', 'Arial Black_MSFontService', sans-serif"
     font-weight="900"
     font-size="46px"
     id="text21"
     x="1254.35"
     y="599">2</text><text
     fill="#ff8200"
     font-family="'Arial Black', 'Arial Black_MSFontService', sans-serif"
     font-weight="900"
     font-size="46px"
     id="text23"
     x="1068.17"
     y="773">4</text><text
     fill="#ff8200"
     font-family="'Arial Black', 'Arial Black_MSFontService', sans-serif"
     font-weight="900"
     font-size="46px"
     id="text24"
     x="1173.47"
     y="772">3</text><path
     d="m 1490.5,630 c 0,-96.926 78.57,-175.5 175.5,-175.5 96.93,0 175.5,78.574 175.5,175.5 0,96.93 -78.57,175.5 -175.5,175.5 -96.93,0 -175.5,-78.57 -175.5,-175.5 z"
     stroke="#ff8200"
     stroke-width="6.875"
     stroke-miterlimit="8"
     fill="none"
     fill-rule="evenodd"
     id="path24" /><path
     d="m 1550,534.5 c 0,-10.77 8.51,-19.5 19,-19.5 10.49,0 19,8.73 19,19.5 0,10.77 -8.51,19.5 -19,19.5 -10.49,0 -19,-8.73 -19,-19.5 z"
     fill-rule="evenodd"
     id="path25" /><path
     d="m 1740,534.5 c 0,-10.77 8.51,-19.5 19,-19.5 10.49,0 19,8.73 19,19.5 0,10.77 -8.51,19.5 -19,19.5 -10.49,0 -19,-8.73 -19,-19.5 z"
     fill-rule="evenodd"
     id="path26" /><path
     d="m 1548,721.5 c 0,-10.77 8.73,-19.5 19.5,-19.5 10.77,0 19.5,8.73 19.5,19.5 0,10.77 -8.73,19.5 -19.5,19.5 -10.77,0 -19.5,-8.73 -19.5,-19.5 z"
     fill-rule="evenodd"
     id="path27" /><path
     d="m 1740,721.5 c 0,-10.77 8.51,-19.5 19,-19.5 10.49,0 19,8.73 19,19.5 0,10.77 -8.51,19.5 -19,19.5 -10.49,0 -19,-8.73 -19,-19.5 z"
     fill-rule="evenodd"
     id="path28" /><text
     fill="#ff8200"
     font-family="'Arial Black', 'Arial Black_MSFontService', sans-serif"
     font-weight="900"
     font-size="46px"
     id="text29"
     x="1532.74"
     y="599">1</text><text
     fill="#ff8200"
     font-family="'Arial Black', 'Arial Black_MSFontService', sans-serif"
     font-weight="900"
     font-size="46px"
     id="text30"
     x="1781.23"
     y="599">2</text><text
     fill="#ff8200"
     font-family="'Arial Black', 'Arial Black_MSFontService', sans-serif"
     font-weight="900"
     font-size="46px"
     id="text32"
     x="1595.0601"
     y="773">4</text><text
     fill="#ff8200"
     font-family="'Arial Black', 'Arial Black_MSFontService', sans-serif"
     font-weight="900"
     font-size="46px"
     id="text33"
     x="1700.35"
     y="772">3</text><path
     d="m 2156.5,634 c 0,-96.926 78.57,-175.5 175.5,-175.5 96.93,0 175.5,78.574 175.5,175.5 0,96.93 -78.57,175.5 -175.5,175.5 -96.93,0 -175.5,-78.57 -175.5,-175.5 z"
     stroke="#ff8200"
     stroke-width="6.875"
     stroke-miterlimit="8"
     fill="none"
     fill-rule="evenodd"
     id="path33" /><path
     d="m 2215,537.5 c 0,-10.77 8.73,-19.5 19.5,-19.5 10.77,0 19.5,8.73 19.5,19.5 0,10.769 -8.73,19.5 -19.5,19.5 -10.77,0 -19.5,-8.731 -19.5,-19.5 z"
     fill-rule="evenodd"
     id="path34" /><path
     d="m 2405,537.5 c 0,-10.77 8.73,-19.5 19.5,-19.5 10.77,0 19.5,8.73 19.5,19.5 0,10.769 -8.73,19.5 -19.5,19.5 -10.77,0 -19.5,-8.731 -19.5,-19.5 z"
     fill-rule="evenodd"
     id="path35" /><path
     d="m 2214,724.5 c 0,-10.77 8.51,-19.5 19,-19.5 10.49,0 19,8.73 19,19.5 0,10.77 -8.51,19.5 -19,19.5 -10.49,0 -19,-8.73 -19,-19.5 z"
     fill-rule="evenodd"
     id="path36" /><path
     d="m 2405,724.5 c 0,-10.77 8.73,-19.5 19.5,-19.5 10.77,0 19.5,8.73 19.5,19.5 0,10.77 -8.73,19.5 -19.5,19.5 -10.77,0 -19.5,-8.73 -19.5,-19.5 z"
     fill-rule="evenodd"
     id="path37" /><path
     d="m 2310,629.5 c 0,-10.769 8.51,-19.5 19,-19.5 10.49,0 19,8.731 19,19.5 0,10.77 -8.51,19.5 -19,19.5 -10.49,0 -19,-8.73 -19,-19.5 z"
     fill-rule="evenodd"
     id="path38" /><text
     fill="#ff8200"
     font-family="'Arial Black', 'Arial Black_MSFontService', sans-serif"
     font-weight="900"
     font-size="46px"
     id="text38"
     x="2248.1201"
     y="522">1</text><text
     fill="#ff8200"
     font-family="'Arial Black', 'Arial Black_MSFontService', sans-serif"
     font-weight="900"
     font-size="46px"
     id="text39"
     x="2379.3401"
     y="517">2</text><text
     fill="#ff8200"
     font-family="'Arial Black', 'Arial Black_MSFontService', sans-serif"
     font-weight="900"
     font-size="46px"
     id="text40"
     x="2313.1101"
     y="744">5</text><text
     fill="#ff8200"
     font-family="'Arial Black', 'Arial Black_MSFontService', sans-serif"
     font-weight="900"
     font-size="46px"
     id="text41"
     x="2449.23"
     y="720">4</text><text
     fill="#ff8200"
     font-family="'Arial Black', 'Arial Black_MSFontService', sans-serif"
     font-weight="900"
     font-size="46px"
     id="text42"
     x="2419.6599"
     y="613">3</text><path
     d="m 2312,768.5 c 0,-10.77 8.51,-19.5 19,-19.5 10.49,0 19,8.73 19,19.5 0,10.77 -8.51,19.5 -19,19.5 -10.49,0 -19,-8.73 -19,-19.5 z"
     fill-rule="evenodd"
     id="path42" /><path
     d="m 2178,629.5 c 0,-10.769 8.51,-19.5 19,-19.5 10.49,0 19,8.731 19,19.5 0,10.77 -8.51,19.5 -19,19.5 -10.49,0 -19,-8.73 -19,-19.5 z"
     fill-rule="evenodd"
     id="path43" /><path
     d="m 2446,629.5 c 0,-10.769 8.51,-19.5 19,-19.5 10.49,0 19,8.731 19,19.5 0,10.77 -8.51,19.5 -19,19.5 -10.49,0 -19,-8.73 -19,-19.5 z"
     fill-rule="evenodd"
     id="path44" /><text
     fill="#ff8200"
     font-family="'Arial Black', 'Arial Black_MSFontService', sans-serif"
     font-weight="900"
     font-size="46px"
     id="text44"
     x="2184.21"
     y="709">6</text><text
     fill="#ff8200"
     font-family="'Arial Black', 'Arial Black_MSFontService', sans-serif"
     font-weight="900"
     font-size="46px"
     id="text45"
     x="2200.98"
     y="609">7</text><text
     fill="#ff8200"
     font-family="'Arial Black', 'Arial Black_MSFontService', sans-serif"
     font-weight="900"
     font-size="46px"
     id="text46"
     x="2314.71"
     y="604">8</text><path
     d="m 2664.5,641 c 0,-96.926 78.57,-175.5 175.5,-175.5 96.93,0 175.5,78.574 175.5,175.5 0,96.93 -78.57,175.5 -175.5,175.5 -96.93,0 -175.5,-78.57 -175.5,-175.5 z"
     stroke="#ff8200"
     stroke-width="6.875"
     stroke-miterlimit="8"
     fill="none"
     fill-rule="evenodd"
     id="path46" /><path
     d="m 2724,545.5 c 0,-10.77 8.51,-19.5 19,-19.5 10.49,0 19,8.73 19,19.5 0,10.77 -8.51,19.5 -19,19.5 -10.49,0 -19,-8.73 -19,-19.5 z"
     fill-rule="evenodd"
     id="path47" /><path
     d="m 2914,545.5 c 0,-10.77 8.51,-19.5 19,-19.5 10.49,0 19,8.73 19,19.5 0,10.77 -8.51,19.5 -19,19.5 -10.49,0 -19,-8.73 -19,-19.5 z"
     fill-rule="evenodd"
     id="path48" /><path
     d="m 2722,732.5 c 0,-10.77 8.51,-19.5 19,-19.5 10.49,0 19,8.73 19,19.5 0,10.77 -8.51,19.5 -19,19.5 -10.49,0 -19,-8.73 -19,-19.5 z"
     fill-rule="evenodd"
     id="path49" /><path
     d="m 2914,732.5 c 0,-10.77 8.51,-19.5 19,-19.5 10.49,0 19,8.73 19,19.5 0,10.77 -8.51,19.5 -19,19.5 -10.49,0 -19,-8.73 -19,-19.5 z"
     fill-rule="evenodd"
     id="path50" /><path
     d="m 2818,636.5 c 0,-10.77 8.51,-19.5 19,-19.5 10.49,0 19,8.73 19,19.5 0,10.77 -8.51,19.5 -19,19.5 -10.49,0 -19,-8.73 -19,-19.5 z"
     fill-rule="evenodd"
     id="path51" /><text
     fill="#ff8200"
     font-family="'Arial Black', 'Arial Black_MSFontService', sans-serif"
     font-weight="900"
     font-size="46px"
     id="text51"
     x="2756.26"
     y="529">1</text><text
     fill="#ff8200"
     font-family="'Arial Black', 'Arial Black_MSFontService', sans-serif"
     font-weight="900"
     font-size="46px"
     id="text52"
     x="2887.48"
     y="525">2</text><text
     fill="#ff8200"
     font-family="'Arial Black', 'Arial Black_MSFontService', sans-serif"
     font-weight="900"
     font-size="46px"
     id="text53"
     x="2821.25"
     y="751">5</text><text
     fill="#ff8200"
     font-family="'Arial Black', 'Arial Black_MSFontService', sans-serif"
     font-weight="900"
     font-size="46px"
     id="text54"
     x="2957.3701"
     y="727">4</text><text
     fill="#ff8200"
     font-family="'Arial Black', 'Arial Black_MSFontService', sans-serif"
     font-weight="900"
     font-size="46px"
     id="text55"
     x="2927.8"
     y="620">3</text><path
     d="m 2820,775.5 c 0,-10.77 8.51,-19.5 19,-19.5 10.49,0 19,8.73 19,19.5 0,10.77 -8.51,19.5 -19,19.5 -10.49,0 -19,-8.73 -19,-19.5 z"
     fill-rule="evenodd"
     id="path55" /><path
     d="m 2686,636.5 c 0,-10.77 8.51,-19.5 19,-19.5 10.49,0 19,8.73 19,19.5 0,10.77 -8.51,19.5 -19,19.5 -10.49,0 -19,-8.73 -19,-19.5 z"
     fill-rule="evenodd"
     id="path56" /><path
     d="m 2954,636.5 c 0,-10.77 8.51,-19.5 19,-19.5 10.49,0 19,8.73 19,19.5 0,10.77 -8.51,19.5 -19,19.5 -10.49,0 -19,-8.73 -19,-19.5 z"
     fill-rule="evenodd"
     id="path57" /><text
     fill="#ff8200"
     font-family="'Arial Black', 'Arial Black_MSFontService', sans-serif"
     font-weight="900"
     font-size="46px"
     id="text57"
     x="2692.3501"
     y="716">6</text><text
     fill="#ff8200"
     font-family="'Arial Black', 'Arial Black_MSFontService', sans-serif"
     font-weight="900"
     font-size="46px"
     id="text58"
     x="2709.1201"
     y="616">7</text><text
     fill="#ff8200"
     font-family="'Arial Black', 'Arial Black_MSFontService', sans-serif"
     font-weight="900"
     font-size="46px"
     id="text59"
     x="2822.8401"
     y="611">8</text></svg>
