<svg width="4194" height="1842" xmlns="http://www.w3.org/2000/svg" xmlns:xlink="http://www.w3.org/1999/xlink" xml:space="preserve" overflow="hidden"><g transform="translate(-148 -322)"><rect x="1968.5" y="325.5" width="943" height="1825" stroke="#FF8200" stroke-width="6.875" stroke-miterlimit="8" fill="none"/><rect x="151.5" y="325.5" width="781" height="1825" stroke="#042433" stroke-width="6.875" stroke-miterlimit="8" fill="none"/><text font-family="Arial Black,Arial Black_MSFontService,sans-serif" font-weight="900" font-size="55" transform="matrix(1 0 0 1 246.241 433)">EVSE</text><text fill="#FF8200" font-family="Arial Black,Arial Black_MSFontService,sans-serif" font-weight="900" font-size="55" transform="matrix(1 0 0 1 2056.66 433)">CCY</text><path d="M932.5 559.5 1968.33 559.5" stroke="#000000" stroke-width="6.875" stroke-miterlimit="8" fill="none" fill-rule="evenodd"/><path d="M932.5 715.5 1968.33 715.5" stroke="#000000" stroke-width="6.875" stroke-miterlimit="8" fill="none" fill-rule="evenodd"/><text font-family="Arial Black,Arial Black_MSFontService,sans-serif" font-weight="900" font-size="55" transform="matrix(1 0 0 1 1286.35 528)">24 V </text><text font-family="Arial Black,Arial Black_MSFontService,sans-serif" font-weight="900" font-size="55" transform="matrix(1 0 0 1 1439.32 528)">supply</text><text font-family="Arial Black,Arial Black_MSFontService,sans-serif" font-weight="900" font-size="55" transform="matrix(1 0 0 1 1286.35 684)">GND (EVSE)</text><path d="M932.5 866.5 1968.33 866.5" stroke="#000000" stroke-width="6.875" stroke-miterlimit="8" fill="none" fill-rule="evenodd"/><text font-family="Arial Black,Arial Black_MSFontService,sans-serif" font-weight="900" font-size="55" transform="matrix(1 0 0 1 1241.49 841)">Emergency In</text><path d="M932.5 1024.5 1968.33 1024.5" stroke="#000000" stroke-width="6.875" stroke-miterlimit="8" fill="none" fill-rule="evenodd"/><text font-family="Arial Black,Arial Black_MSFontService,sans-serif" font-weight="900" font-size="55" transform="matrix(1 0 0 1 1241.49 999)">HV </text><text font-family="Arial Black,Arial Black_MSFontService,sans-serif" font-weight="900" font-size="55" transform="matrix(1 0 0 1 1348.63 999)">ready</text><text font-family="Arial Black,Arial Black_MSFontService,sans-serif" font-weight="900" font-size="55" transform="matrix(1 0 0 1 1536.29 999)">In</text><path d="M932.5 1188.5 1968.33 1188.5" stroke="#000000" stroke-width="6.875" stroke-miterlimit="8" fill="none" fill-rule="evenodd"/><text font-family="Arial Black,Arial Black_MSFontService,sans-serif" font-weight="900" font-size="55" transform="matrix(1 0 0 1 1241.49 1163)">HV </text><text font-family="Arial Black,Arial Black_MSFontService,sans-serif" font-weight="900" font-size="55" transform="matrix(1 0 0 1 1348.63 1163)">ready</text><text font-family="Arial Black,Arial Black_MSFontService,sans-serif" font-weight="900" font-size="55" transform="matrix(1 0 0 1 1536.29 1163)">Out</text><path d="M1968.5 1026.5 2103.71 1026.5" stroke="#FF8200" stroke-width="6.875" stroke-miterlimit="8" fill="none" fill-rule="evenodd"/><path d="M0 0 165 104.703" stroke="#FF8200" stroke-width="6.875" stroke-miterlimit="8" fill="none" fill-rule="evenodd" transform="matrix(1 0 0 -1 2103.5 1024.2)"/><path d="M393.5 866.5 932.5 866.5" stroke="#0E2841" stroke-width="6.875" stroke-miterlimit="8" fill="none" fill-rule="evenodd"/><path d="M740.5 715.5 933 715.5" stroke="#0E2841" stroke-width="6.875" stroke-miterlimit="8" fill="none" fill-rule="evenodd"/><path d="M740.5 559.5 933 559.5" stroke="#0E2841" stroke-width="6.875" stroke-miterlimit="8" fill="none" fill-rule="evenodd"/><path d="M0 0 0.000360892 216.079" stroke="#0E2841" stroke-width="6.875" stroke-miterlimit="8" fill="none" fill-rule="evenodd" transform="matrix(1 0 0 -1 393.5 866.578)"/><path d="M393.5 650.5 605.25 650.5" stroke="#0E2841" stroke-width="6.875" stroke-miterlimit="8" fill="none" fill-rule="evenodd"/><path d="M0 0 109.218 86.4222" stroke="#0E2841" stroke-width="6.875" stroke-miterlimit="8" fill="none" fill-rule="evenodd" transform="matrix(1 0 0 -1 605.5 650.922)"/><path d="M936.5 1482.5 1972.33 1482.5" stroke="#000000" stroke-width="6.875" stroke-miterlimit="8" fill="none" fill-rule="evenodd"/><text font-family="Arial Black,Arial Black_MSFontService,sans-serif" font-weight="900" font-size="55" transform="matrix(1 0 0 1 1245.33 1457)">Profinet</text><path d="M932.5 1670.5 1968.33 1670.5" stroke="#000000" stroke-width="6.875" stroke-miterlimit="8" fill="none" fill-rule="evenodd"/><text font-family="Arial Black,Arial Black_MSFontService,sans-serif" font-weight="900" font-size="55" transform="matrix(1 0 0 1 1241.49 1645)">LAN (OCPP)</text><path d="M1972.5 1188.5 2367.41 1188.5" stroke="#FF8200" stroke-width="6.875" stroke-miterlimit="8" fill="none" fill-rule="evenodd"/><path d="M0 0 0.000360892 163.878" stroke="#FF8200" stroke-width="6.875" stroke-miterlimit="8" fill="none" fill-rule="evenodd" transform="matrix(1 0 0 -1 2367.5 1188.38)"/><path d="M2321.5 1027.5 2367.33 1027.5" stroke="#FF8200" stroke-width="6.875" stroke-miterlimit="8" fill="none" fill-rule="evenodd"/><rect x="3556.5" y="335.5" width="782" height="1825" stroke="#042433" stroke-width="6.875" stroke-miterlimit="8" fill="none"/><text font-family="Arial Black,Arial Black_MSFontService,sans-serif" font-weight="900" font-size="55" transform="matrix(1 0 0 1 3666.72 433)">MCS </text><text font-family="Arial Black,Arial Black_MSFontService,sans-serif" font-weight="900" font-size="55" transform="matrix(1 0 0 1 3819.69 433)">Inlet</text><path d="M2911.5 563.5 3556.73 564.641" stroke="#000000" stroke-width="6.875" stroke-miterlimit="8" fill="none" fill-rule="evenodd"/><text font-family="Arial Black,Arial Black_MSFontService,sans-serif" font-weight="900" font-size="55" transform="matrix(1 0 0 1 3037.05 528)">10 Base T1S</text><path d="M2911.5 706.5 3556.73 707.641" stroke="#000000" stroke-width="6.875" stroke-miterlimit="8" fill="none" fill-rule="evenodd"/><text font-family="Arial Black,Arial Black_MSFontService,sans-serif" font-weight="900" font-size="55" transform="matrix(1 0 0 1 3201.01 684)">ID</text><path d="M2911.5 847.5 3556.73 848.641" stroke="#000000" stroke-width="6.875" stroke-miterlimit="8" fill="none" fill-rule="evenodd"/><text font-family="Arial Black,Arial Black_MSFontService,sans-serif" font-weight="900" font-size="55" transform="matrix(1 0 0 1 3201.01 824)">CE</text><path d="M2914.5 987.5 3559.73 988.641" stroke="#000000" stroke-width="6.875" stroke-miterlimit="8" fill="none" fill-rule="evenodd"/><text font-family="Arial Black,Arial Black_MSFontService,sans-serif" font-weight="900" font-size="55" transform="matrix(1 0 0 1 3203.55 964)">PE</text><path d="M2914.5 1149.5 3634.56 1149.5" stroke="#000000" stroke-width="6.875" stroke-miterlimit="8" fill="none" fill-rule="evenodd"/><text font-family="Arial Black,Arial Black_MSFontService,sans-serif" font-weight="900" font-size="55" transform="matrix(1 0 0 1 3160.97 1113)">Temp1</text><rect x="3636.5" y="1073.5" width="361" height="153" stroke="#042433" stroke-width="6.875" stroke-miterlimit="8" fill="#156082"/><text fill="#FFFFFF" font-family="Aptos,Aptos_MSFontService,sans-serif" font-weight="400" font-size="64" transform="matrix(1 0 0 1 3714.07 1170)">PT1000</text><path d="M2916.5 1360.5 3636.56 1360.5" stroke="#000000" stroke-width="6.875" stroke-miterlimit="8" fill="none" fill-rule="evenodd"/><rect x="3639.5" y="1283.5" width="360" height="154" stroke="#042433" stroke-width="6.875" stroke-miterlimit="8" fill="#156082"/><text fill="#FFFFFF" font-family="Aptos,Aptos_MSFontService,sans-serif" font-weight="400" font-size="64" transform="matrix(1 0 0 1 3716.55 1381)">PT1000</text><text font-family="Arial Black,Arial Black_MSFontService,sans-serif" font-weight="900" font-size="55" transform="matrix(1 0 0 1 3160.97 1323)">Temp2</text><path d="M2914.5 1553.5 4105.98 1553.5" stroke="#000000" stroke-width="6.875" stroke-miterlimit="8" fill="none" fill-rule="evenodd"/><path d="M3997.5 1149.5 4103.58 1149.5" stroke="#000000" stroke-width="6.875" stroke-miterlimit="8" fill="none" fill-rule="evenodd"/><path d="M3999.5 1362.5 4105.58 1362.5" stroke="#000000" stroke-width="6.875" stroke-miterlimit="8" fill="none" fill-rule="evenodd"/><path d="M4103.5 1149.5 4105.97 1552.83" stroke="#000000" stroke-width="6.875" stroke-miterlimit="8" fill="none" fill-rule="evenodd"/><text font-family="Arial Black,Arial Black_MSFontService,sans-serif" font-weight="900" font-size="55" transform="matrix(1 0 0 1 3065.22 1521)">GND Temp12</text><path d="M2914.5 1707.5 3634.56 1707.5" stroke="#000000" stroke-width="6.875" stroke-miterlimit="8" fill="none" fill-rule="evenodd"/><text font-family="Arial Black,Arial Black_MSFontService,sans-serif" font-weight="900" font-size="55" transform="matrix(1 0 0 1 3160.97 1670)">Temp3</text><rect x="3636.5" y="1630.5" width="361" height="154" stroke="#042433" stroke-width="6.875" stroke-miterlimit="8" fill="#156082"/><text fill="#FFFFFF" font-family="Aptos,Aptos_MSFontService,sans-serif" font-weight="400" font-size="64" transform="matrix(1 0 0 1 3714.07 1727)">PT1000</text><path d="M2916.5 1917.5 3636.56 1917.5" stroke="#000000" stroke-width="6.875" stroke-miterlimit="8" fill="none" fill-rule="evenodd"/><rect x="3639.5" y="1841.5" width="360" height="153" stroke="#042433" stroke-width="6.875" stroke-miterlimit="8" fill="#156082"/><text fill="#FFFFFF" font-family="Aptos,Aptos_MSFontService,sans-serif" font-weight="400" font-size="64" transform="matrix(1 0 0 1 3716.55 1938)">PT1000</text><text font-family="Arial Black,Arial Black_MSFontService,sans-serif" font-weight="900" font-size="55" transform="matrix(1 0 0 1 3160.97 1881)">Temp4</text><path d="M2914.5 2110.5 4105.98 2110.5" stroke="#000000" stroke-width="6.875" stroke-miterlimit="8" fill="none" fill-rule="evenodd"/><path d="M3997.5 1707.5 4103.58 1707.5" stroke="#000000" stroke-width="6.875" stroke-miterlimit="8" fill="none" fill-rule="evenodd"/><path d="M3999.5 1919.5 4105.58 1919.5" stroke="#000000" stroke-width="6.875" stroke-miterlimit="8" fill="none" fill-rule="evenodd"/><path d="M4103.5 1707.5 4105.97 2110.83" stroke="#000000" stroke-width="6.875" stroke-miterlimit="8" fill="none" fill-rule="evenodd"/><text font-family="Arial Black,Arial Black_MSFontService,sans-serif" font-weight="900" font-size="55" transform="matrix(1 0 0 1 3065.22 2078)">GND Temp34</text></g></svg>