<svg width="2811" height="1994" viewBox="0 0 2811 1994" fill="none" xmlns="http://www.w3.org/2000/svg">
<rect width="2811" height="1994" fill="white"/>
<path d="M1502 559L1310 559" stroke="#FF8200" stroke-width="10" stroke-linecap="round"/>
<path d="M640 1530H693.758V1828H2031V1633.5" stroke="#002FFF" stroke-width="9" stroke-linecap="round"/>
<path d="M2139 345H1884V408H1521" stroke="#FF0800" stroke-width="9" stroke-linecap="round"/>
<path d="M2140 361H1900.5V423H1521" stroke="black" stroke-width="9" stroke-linecap="round"/>
<path d="M1218 1581.5H1932.89V897H2130.5M1601.5 560H1932.89V631H2130.5" stroke="#00AC00" stroke-width="9" stroke-linecap="round"/>
<rect x="1583.31" y="333.845" width="400" height="60" rx="30" transform="rotate(-45 1583.31 333.845)" fill="#FF8200"/>
<g filter="url(#filter0_d_304_1502)">
<path d="M1670 269.654L1681.15 272.517L1681.31 272.356L1678.47 261.177L1683.38 256.265L1687.39 272.828L1704.09 276.695L1699.09 281.697L1687.85 278.895L1687.69 279.055L1690.5 290.295L1685.51 295.277L1681.67 278.553L1665.06 274.586L1670 269.654ZM1705.74 275.052L1702.6 271.919L1703.15 257.817C1703.17 256.591 1703.15 255.527 1703.09 254.623C1703.03 253.712 1702.88 252.915 1702.64 252.232C1702.4 251.543 1702 250.926 1701.46 250.384C1700.86 249.781 1700.2 249.4 1699.49 249.239C1698.77 249.072 1698.06 249.109 1697.35 249.35C1696.63 249.584 1695.97 250.002 1695.37 250.605C1694.74 251.235 1694.32 251.911 1694.11 252.634C1693.89 253.357 1693.9 254.084 1694.12 254.814C1694.34 255.543 1694.78 256.236 1695.43 256.893L1691.3 261.021C1689.96 259.675 1689.09 258.202 1688.71 256.601C1688.33 255.001 1688.42 253.381 1688.97 251.74C1689.53 250.1 1690.52 248.563 1691.96 247.13C1693.43 245.657 1694.97 244.636 1696.59 244.066C1698.2 243.484 1699.77 243.347 1701.3 243.655C1702.82 243.963 1704.18 244.709 1705.37 245.894C1706.14 246.671 1706.76 247.592 1707.2 248.657C1707.66 249.715 1707.96 251.094 1708.11 252.795C1708.25 254.489 1708.26 256.685 1708.13 259.384L1708.07 265.33L1708.21 265.47L1716.85 256.832L1720.4 260.388L1705.74 275.052ZM1718.34 255.223L1714.91 251.798L1709.97 229.68L1712.92 226.727L1717.66 231.468L1715.91 233.216L1719.07 247.197L1719.23 247.358L1731.43 235.155L1734.92 238.64L1718.34 255.223ZM1731.82 248.965L1727.16 244.305L1725.73 242.708L1711.33 228.314L1715.41 224.237L1735.98 244.807L1731.82 248.965ZM1746.4 234.388L1725.83 213.818L1733.95 205.702C1735.51 204.142 1737.13 203.111 1738.83 202.609C1740.52 202.1 1742.17 202.083 1743.8 202.558C1745.43 203.02 1746.92 203.934 1748.29 205.3C1749.66 206.666 1750.57 208.166 1751.02 209.8C1751.48 211.434 1751.44 213.101 1750.9 214.802C1750.37 216.496 1749.32 218.133 1747.74 219.714L1742.56 224.886L1739.08 221.401L1743.55 216.932C1744.39 216.095 1744.93 215.261 1745.19 214.431C1745.44 213.587 1745.44 212.773 1745.2 211.99C1744.95 211.193 1744.49 210.456 1743.81 209.78C1743.13 209.097 1742.39 208.638 1741.61 208.404C1740.83 208.156 1740.02 208.166 1739.19 208.434C1738.35 208.695 1737.51 209.248 1736.67 210.091L1733.74 213.024L1750.75 230.039L1746.4 234.388ZM1770.81 210.583C1769.25 212.144 1767.57 213.161 1765.77 213.637C1763.97 214.099 1762.16 214.042 1760.35 213.466C1758.54 212.884 1756.84 211.802 1755.26 210.222C1753.67 208.628 1752.58 206.927 1752.01 205.119C1751.42 203.305 1751.37 201.5 1751.84 199.706C1752.3 197.898 1753.32 196.214 1754.88 194.653C1756.44 193.093 1758.12 192.082 1759.92 191.62C1761.72 191.145 1763.53 191.198 1765.35 191.781C1767.15 192.357 1768.85 193.441 1770.45 195.035C1772.03 196.615 1773.11 198.313 1773.69 200.128C1774.27 201.935 1774.32 203.743 1773.85 205.551C1773.38 207.346 1772.37 209.023 1770.81 210.583ZM1767.51 207.249C1768.22 206.539 1768.62 205.746 1768.69 204.868C1768.76 203.984 1768.56 203.07 1768.1 202.126C1767.64 201.175 1766.97 200.251 1766.07 199.354C1765.17 198.457 1764.25 197.781 1763.3 197.325C1762.35 196.863 1761.44 196.666 1760.55 196.733C1759.67 196.8 1758.87 197.188 1758.16 197.898C1757.45 198.614 1757.05 199.421 1756.97 200.318C1756.89 201.209 1757.09 202.13 1757.54 203.08C1758 204.025 1758.68 204.945 1759.58 205.843C1760.48 206.74 1761.4 207.42 1762.34 207.882C1763.29 208.337 1764.21 208.528 1765.1 208.454C1765.99 208.367 1766.8 207.965 1767.51 207.249ZM1782.69 198.098L1763.07 186.869L1767.39 182.54L1780.15 190.515L1780.29 190.374L1772.42 177.518L1776.67 173.269L1789.5 181.043L1789.63 180.913L1781.68 168.257L1786 163.938L1797.24 183.554L1792.71 188.084L1780.35 181.033L1780.16 181.224L1787.21 193.579L1782.69 198.098ZM1809.8 171.589C1808.22 173.176 1806.53 174.221 1804.74 174.723C1802.95 175.212 1801.16 175.172 1799.36 174.602C1797.55 174.027 1795.83 172.925 1794.2 171.298C1792.62 169.711 1791.53 168.01 1790.95 166.196C1790.37 164.381 1790.3 162.58 1790.75 160.792C1791.2 158.997 1792.19 157.343 1793.7 155.83C1794.72 154.812 1795.83 154.029 1797.04 153.48C1798.24 152.917 1799.5 152.633 1800.8 152.626C1802.12 152.612 1803.45 152.914 1804.8 153.53C1806.15 154.139 1807.48 155.1 1808.79 156.413L1809.96 157.588L1796.94 170.615L1794.29 167.963L1803.28 158.964C1802.67 158.348 1801.99 157.936 1801.25 157.728C1800.5 157.521 1799.76 157.521 1799.02 157.728C1798.27 157.922 1797.59 158.331 1796.97 158.954C1796.32 159.603 1795.89 160.33 1795.69 161.133C1795.49 161.923 1795.5 162.71 1795.72 163.494C1795.94 164.27 1796.34 164.967 1796.95 165.583L1799.47 168.104C1800.23 168.867 1801.03 169.386 1801.87 169.661C1802.71 169.929 1803.55 169.952 1804.37 169.731C1805.19 169.51 1805.96 169.041 1806.68 168.325C1807.16 167.849 1807.52 167.347 1807.78 166.818C1808.05 166.289 1808.18 165.75 1808.2 165.201C1808.21 164.652 1808.1 164.11 1807.85 163.574L1812.07 159.878C1812.82 161.029 1813.24 162.272 1813.33 163.604C1813.42 164.923 1813.17 166.269 1812.59 167.642C1812 169.001 1811.08 170.317 1809.8 171.589ZM1818.53 162.263L1803.1 146.835L1807.25 142.687L1809.94 145.379L1810.1 145.218C1809.42 143.979 1809.17 142.784 1809.35 141.632C1809.51 140.474 1810.03 139.463 1810.89 138.599C1811.11 138.385 1811.35 138.167 1811.63 137.946C1811.9 137.725 1812.16 137.544 1812.39 137.404L1816.19 141.2C1815.93 141.341 1815.59 141.565 1815.19 141.873C1814.79 142.181 1814.44 142.483 1814.15 142.777C1813.52 143.407 1813.09 144.107 1812.87 144.877C1812.65 145.633 1812.64 146.397 1812.83 147.167C1813.03 147.93 1813.45 148.626 1814.08 149.256L1822.81 157.984L1818.53 162.263Z" fill="white"/>
</g>
<path d="M1657.38 337.209L1604.04 390.545C1603.11 391.483 1601.83 392.009 1600.51 392.009L1501.29 392.009" stroke="#FF8200" stroke-width="10" stroke-linecap="round"/>
<rect x="1583.3" y="500.694" width="400" height="60" rx="30" transform="rotate(-45 1583.3 500.694)" fill="#FF8200"/>
<g filter="url(#filter1_d_304_1502)">
<path d="M1642.3 464.199L1653.46 467.062L1653.62 466.901L1650.78 455.722L1655.69 450.81L1659.7 467.373L1676.4 471.24L1671.4 476.242L1660.16 473.44L1660 473.6L1662.8 484.84L1657.82 489.822L1653.97 473.098L1637.37 469.131L1642.3 464.199ZM1678.85 468.784L1670.51 443.382L1670.37 443.242L1660.43 453.175L1656.88 449.62L1671.31 435.186L1674.92 438.792L1683.34 464.294L1678.85 468.784ZM1699.75 447.887L1684.32 432.459L1688.6 428.18L1704.03 443.608L1699.75 447.887ZM1684.48 428.321C1683.85 428.957 1683.09 429.292 1682.21 429.325C1681.34 429.345 1680.6 429.057 1680.01 428.461C1679.42 427.872 1679.13 427.142 1679.16 426.272C1679.19 425.388 1679.52 424.628 1680.16 423.992C1680.79 423.356 1681.55 423.028 1682.43 423.007C1683.3 422.974 1684.04 423.252 1684.63 423.841C1685.22 424.437 1685.51 425.177 1685.48 426.061C1685.45 426.931 1685.12 427.685 1684.48 428.321ZM1709.37 438.789C1708.71 439.452 1707.91 439.787 1706.96 439.794C1706.02 439.787 1705.21 439.452 1704.55 438.789C1703.89 438.133 1703.57 437.336 1703.57 436.399C1703.57 435.454 1703.91 434.651 1704.57 433.988C1705.21 433.345 1706.01 433.017 1706.96 433.004C1707.91 432.99 1708.72 433.312 1709.37 433.968C1709.81 434.41 1710.11 434.929 1710.25 435.525C1710.39 436.107 1710.39 436.69 1710.25 437.272C1710.1 437.848 1709.81 438.354 1709.37 438.789ZM1693.7 412.802L1699.06 407.439L1718.54 415.594L1718.79 415.353L1710.63 395.868L1715.99 390.504L1736.56 411.075L1732.35 415.293L1718.96 401.904L1718.79 402.075L1726.75 420.687L1723.88 423.559L1705.22 415.544L1705.05 415.715L1718.48 429.154L1714.27 433.373L1693.7 412.802ZM1722.81 383.692L1733.97 386.554L1734.13 386.393L1731.28 375.214L1736.2 370.303L1740.2 386.866L1756.91 390.733L1751.9 395.735L1740.66 392.932L1740.5 393.093L1743.31 404.332L1738.32 409.314L1734.48 392.591L1717.87 388.623L1722.81 383.692ZM1745.14 360.796C1746.2 359.738 1747.39 358.897 1748.73 358.275C1750.06 357.645 1751.51 357.334 1753.05 357.341C1754.61 357.341 1756.25 357.759 1757.99 358.596C1759.72 359.42 1761.52 360.759 1763.39 362.614C1765.14 364.361 1766.5 366.119 1767.48 367.887C1768.46 369.641 1769.06 371.362 1769.29 373.05C1769.51 374.737 1769.36 376.347 1768.83 377.881C1768.3 379.408 1767.39 380.807 1766.12 382.079C1764.75 383.452 1763.27 384.4 1761.69 384.922C1760.11 385.437 1758.53 385.558 1756.97 385.283C1755.41 384.995 1753.99 384.343 1752.7 383.325L1756.99 379.036C1757.91 379.619 1758.84 379.85 1759.79 379.729C1760.74 379.602 1761.61 379.143 1762.4 378.353C1763.73 377.014 1764.17 375.413 1763.7 373.552C1763.23 371.684 1761.97 369.728 1759.94 367.686L1759.8 367.827C1760.1 368.737 1760.2 369.671 1760.12 370.629C1760.02 371.58 1759.75 372.511 1759.31 373.421C1758.88 374.325 1758.28 375.156 1757.52 375.912C1756.31 377.124 1754.95 377.921 1753.43 378.303C1751.91 378.684 1750.37 378.651 1748.83 378.202C1747.28 377.754 1745.87 376.89 1744.59 375.611C1743.2 374.238 1742.29 372.691 1741.86 370.971C1741.42 369.25 1741.47 367.509 1742.02 365.748C1742.56 363.973 1743.6 362.323 1745.14 360.796ZM1748.58 364.181C1747.91 364.857 1747.47 365.62 1747.26 366.471C1747.06 367.314 1747.07 368.162 1747.31 369.012C1747.55 369.856 1748.01 370.609 1748.69 371.272C1749.36 371.948 1750.12 372.41 1750.96 372.658C1751.79 372.892 1752.63 372.912 1753.47 372.718C1754.3 372.511 1755.06 372.072 1755.73 371.402C1756.23 370.9 1756.6 370.341 1756.84 369.725C1757.08 369.109 1757.2 368.48 1757.18 367.837C1757.17 367.181 1757.04 366.544 1756.78 365.928C1756.53 365.312 1756.15 364.76 1755.67 364.271C1755.01 363.628 1754.26 363.186 1753.42 362.945C1752.57 362.704 1751.72 362.684 1750.86 362.885C1750.01 363.086 1749.25 363.518 1748.58 364.181ZM1784.26 363.944C1782.76 365.444 1781.16 366.522 1779.48 367.179C1777.79 367.821 1776.15 368.026 1774.56 367.791C1772.98 367.544 1771.57 366.83 1770.36 365.652L1774.73 361.273C1775.26 361.748 1775.87 362.026 1776.55 362.106C1777.24 362.173 1777.94 362.056 1778.65 361.755C1779.37 361.454 1780.04 360.985 1780.68 360.349C1781.34 359.686 1781.81 358.983 1782.09 358.239C1782.36 357.496 1782.44 356.773 1782.31 356.07C1782.18 355.367 1781.85 354.744 1781.3 354.202C1780.75 353.653 1780.12 353.321 1779.39 353.207C1778.66 353.08 1777.89 353.18 1777.08 353.509C1776.27 353.83 1775.48 354.379 1774.7 355.156L1772.79 357.074L1769.59 353.88L1771.51 351.962C1772.17 351.306 1772.63 350.613 1772.91 349.883C1773.19 349.146 1773.27 348.436 1773.15 347.753C1773.02 347.064 1772.69 346.448 1772.14 345.905C1771.63 345.39 1771.05 345.061 1770.42 344.921C1769.78 344.767 1769.13 344.8 1768.47 345.021C1767.81 345.236 1767.19 345.634 1766.61 346.217C1766.02 346.806 1765.59 347.452 1765.31 348.155C1765.03 348.851 1764.94 349.541 1765.03 350.224C1765.13 350.907 1765.42 351.52 1765.93 352.062L1761.76 356.231C1760.59 355.025 1759.89 353.643 1759.64 352.082C1759.39 350.522 1759.57 348.932 1760.17 347.311C1760.77 345.678 1761.78 344.158 1763.18 342.751C1764.6 341.332 1766.1 340.347 1767.68 339.798C1769.26 339.249 1770.79 339.119 1772.25 339.407C1773.72 339.681 1774.99 340.364 1776.07 341.456C1777.23 342.601 1777.83 343.92 1777.88 345.413C1777.93 346.9 1777.49 348.322 1776.54 349.682L1776.7 349.842C1778.41 348.523 1780.09 347.897 1781.74 347.964C1783.38 348.018 1784.84 348.687 1786.11 349.973C1787.29 351.138 1788 352.518 1788.22 354.111C1788.46 355.698 1788.24 357.349 1787.57 359.063C1786.9 360.777 1785.8 362.404 1784.26 363.944ZM1782.22 331.451L1778.63 327.866L1795.53 310.971L1799.11 314.557L1792.81 320.855L1809.8 337.839L1805.5 342.138L1788.52 325.154L1782.22 331.451ZM1823.05 325.196C1821.46 326.783 1819.77 327.828 1817.98 328.33C1816.2 328.819 1814.4 328.779 1812.6 328.209C1810.79 327.633 1809.07 326.532 1807.45 324.905C1805.86 323.318 1804.78 321.617 1804.19 319.802C1803.61 317.988 1803.54 316.187 1803.99 314.399C1804.45 312.604 1805.43 310.95 1806.94 309.437C1807.96 308.419 1809.07 307.636 1810.28 307.087C1811.48 306.524 1812.74 306.239 1814.05 306.233C1815.36 306.219 1816.69 306.521 1818.04 307.137C1819.39 307.746 1820.72 308.707 1822.03 310.019L1823.21 311.195L1810.18 324.222L1807.53 321.57L1816.53 312.571C1815.91 311.955 1815.23 311.543 1814.49 311.335C1813.74 311.128 1813 311.128 1812.26 311.335C1811.51 311.529 1810.83 311.938 1810.21 312.561C1809.56 313.21 1809.13 313.937 1808.93 314.74C1808.73 315.53 1808.74 316.317 1808.96 317.101C1809.18 317.877 1809.59 318.574 1810.19 319.19L1812.71 321.711C1813.47 322.474 1814.27 322.993 1815.11 323.268C1815.95 323.535 1816.79 323.559 1817.61 323.338C1818.44 323.117 1819.21 322.648 1819.92 321.932C1820.4 321.456 1820.77 320.954 1821.03 320.425C1821.29 319.896 1821.42 319.357 1821.44 318.808C1821.45 318.259 1821.34 317.717 1821.1 317.181L1825.32 313.485C1826.07 314.636 1826.48 315.879 1826.57 317.211C1826.66 318.53 1826.41 319.876 1825.83 321.249C1825.24 322.608 1824.32 323.924 1823.05 325.196ZM1833.58 292.005L1829.9 296.163C1829.5 295.895 1829.05 295.738 1828.56 295.691C1828.07 295.638 1827.56 295.711 1827.04 295.912C1826.52 296.1 1826.01 296.441 1825.51 296.937C1824.85 297.6 1824.43 298.299 1824.26 299.036C1824.08 299.766 1824.22 300.362 1824.68 300.824C1825.05 301.192 1825.5 301.356 1826.05 301.316C1826.6 301.276 1827.31 300.974 1828.18 300.412L1831.54 298.182C1833.35 296.99 1834.96 296.368 1836.38 296.314C1837.8 296.26 1839.06 296.789 1840.18 297.901C1841.19 298.912 1841.78 300.097 1841.94 301.457C1842.12 302.809 1841.9 304.215 1841.3 305.675C1840.7 307.121 1839.73 308.514 1838.39 309.853C1836.35 311.896 1834.29 313.098 1832.23 313.459C1830.17 313.808 1828.3 313.349 1826.62 312.083L1830.6 307.654C1831.35 308.149 1832.14 308.317 1832.95 308.156C1833.76 307.989 1834.55 307.523 1835.31 306.76C1836.06 306.01 1836.52 305.263 1836.69 304.52C1836.86 303.763 1836.71 303.151 1836.26 302.682C1835.86 302.3 1835.38 302.146 1834.81 302.22C1834.24 302.287 1833.55 302.588 1832.74 303.124L1829.54 305.263C1827.73 306.469 1826.09 307.068 1824.61 307.061C1823.13 307.048 1821.82 306.465 1820.67 305.314C1819.68 304.323 1819.09 303.201 1818.91 301.949C1818.74 300.69 1818.95 299.377 1819.54 298.011C1820.13 296.639 1821.09 295.293 1822.41 293.974C1824.36 292.025 1826.3 290.904 1828.24 290.609C1830.19 290.308 1831.97 290.773 1833.58 292.005ZM1839.58 277.202L1842.79 280.416L1833.5 289.707L1830.29 286.493L1839.58 277.202ZM1828.7 280.688L1832.98 276.409L1847.37 290.792C1847.76 291.187 1848.13 291.435 1848.47 291.535C1848.8 291.629 1849.12 291.612 1849.42 291.485C1849.73 291.351 1850.03 291.14 1850.32 290.852C1850.52 290.651 1850.7 290.434 1850.87 290.199C1851.03 289.958 1851.16 289.774 1851.24 289.647L1855.1 292.158C1854.95 292.439 1854.73 292.818 1854.43 293.293C1854.13 293.775 1853.72 294.304 1853.18 294.88C1852.19 295.951 1851.15 296.718 1850.06 297.18C1848.97 297.635 1847.88 297.746 1846.79 297.512C1845.7 297.277 1844.65 296.651 1843.65 295.633L1828.7 280.688Z" fill="white"/>
</g>
<path d="M1657.38 504.058L1604.04 557.394C1603.11 558.332 1601.83 558.859 1600.51 558.859L1501.29 558.858" stroke="#FF8200" stroke-width="10" stroke-linecap="round"/>
<rect x="1185.27" y="1638.31" width="400" height="60" rx="30" transform="rotate(135 1185.27 1638.31)" fill="#FF8200"/>
<g filter="url(#filter2_d_304_1502)">
<path d="M931.431 1829.79L942.59 1832.65L942.751 1832.49L939.908 1821.31L944.82 1816.4L948.828 1832.96L965.531 1836.83L960.529 1841.83L949.29 1839.03L949.129 1839.19L951.931 1850.43L946.949 1855.41L943.103 1838.69L926.5 1834.72L931.431 1829.79ZM967.173 1835.19L964.04 1832.05L964.582 1817.95C964.602 1816.73 964.582 1815.66 964.522 1814.76C964.468 1813.85 964.321 1813.05 964.08 1812.37C963.832 1811.68 963.437 1811.06 962.895 1810.52C962.292 1809.92 961.636 1809.53 960.926 1809.37C960.21 1809.21 959.496 1809.24 958.787 1809.48C958.07 1809.72 957.411 1810.14 956.808 1810.74C956.179 1811.37 955.757 1812.05 955.542 1812.77C955.328 1813.49 955.331 1814.22 955.552 1814.95C955.773 1815.68 956.212 1816.37 956.868 1817.03L952.74 1821.16C951.394 1819.81 950.53 1818.34 950.149 1816.74C949.767 1815.14 949.854 1813.52 950.41 1811.88C950.966 1810.23 951.96 1808.7 953.393 1807.26C954.866 1805.79 956.41 1804.77 958.023 1804.2C959.637 1803.62 961.207 1803.48 962.734 1803.79C964.261 1804.1 965.617 1804.84 966.802 1806.03C967.579 1806.81 968.191 1807.73 968.64 1808.79C969.095 1809.85 969.397 1811.23 969.544 1812.93C969.685 1814.62 969.691 1816.82 969.564 1819.52L969.504 1825.46L969.644 1825.61L978.282 1816.97L981.838 1820.52L967.173 1835.19ZM992.096 1810.83C990.549 1812.37 988.922 1813.5 987.214 1814.2C985.507 1814.89 983.873 1815.14 982.313 1814.95C980.753 1814.75 979.417 1814.1 978.305 1812.99C977.448 1812.13 976.855 1811.15 976.527 1810.04C976.199 1808.93 976.136 1807.79 976.336 1806.64C976.531 1805.48 976.979 1804.42 977.682 1803.45L977.542 1803.3C976.223 1804.18 974.8 1804.54 973.273 1804.38C971.74 1804.21 970.41 1803.57 969.285 1802.44C968.221 1801.38 967.585 1800.12 967.377 1798.66C967.163 1797.2 967.36 1795.69 967.97 1794.13C968.579 1792.56 969.577 1791.08 970.963 1789.69C972.349 1788.31 973.825 1787.31 975.392 1786.71C976.966 1786.1 978.483 1785.9 979.942 1786.12C981.395 1786.33 982.654 1786.96 983.719 1788.01C984.844 1789.15 985.483 1790.48 985.637 1792.02C985.791 1793.55 985.44 1794.96 984.583 1796.26L984.723 1796.4C985.681 1795.71 986.735 1795.28 987.887 1795.09C989.039 1794.89 990.174 1794.95 991.292 1795.28C992.41 1795.59 993.401 1796.18 994.265 1797.03C995.37 1798.15 996.02 1799.48 996.214 1801.04C996.408 1802.61 996.157 1804.24 995.46 1805.96C994.764 1807.66 993.642 1809.28 992.096 1810.83ZM988.902 1807.63C989.591 1806.94 990.07 1806.22 990.338 1805.45C990.599 1804.68 990.653 1803.93 990.499 1803.2C990.345 1802.46 989.976 1801.8 989.394 1801.22C988.798 1800.62 988.122 1800.24 987.365 1800.09C986.602 1799.93 985.831 1799.98 985.055 1800.23C984.271 1800.48 983.545 1800.94 982.875 1801.61C982.212 1802.27 981.754 1803 981.499 1803.79C981.238 1804.57 981.188 1805.34 981.348 1806.11C981.509 1806.86 981.888 1807.53 982.483 1808.13C983.066 1808.71 983.726 1809.08 984.462 1809.24C985.192 1809.39 985.945 1809.34 986.722 1809.07C987.492 1808.8 988.219 1808.32 988.902 1807.63ZM979.711 1798.44C980.287 1797.87 980.682 1797.24 980.896 1796.56C981.111 1795.87 981.138 1795.2 980.977 1794.53C980.816 1793.86 980.465 1793.25 979.922 1792.71C979.387 1792.17 978.791 1791.83 978.134 1791.68C977.471 1791.53 976.805 1791.56 976.136 1791.77C975.459 1791.98 974.826 1792.38 974.237 1792.97C973.655 1793.55 973.256 1794.18 973.042 1794.87C972.821 1795.54 972.788 1796.21 972.942 1796.88C973.096 1797.53 973.44 1798.12 973.976 1798.65C974.518 1799.2 975.124 1799.55 975.794 1799.71C976.464 1799.87 977.14 1799.84 977.823 1799.63C978.506 1799.41 979.135 1799.02 979.711 1798.44ZM1007.81 1794.55L987.24 1773.98L1001.1 1760.12L1004.69 1763.71L995.175 1773.22L1000.08 1778.12L1008.87 1769.32L1012.46 1772.91L1003.66 1781.7L1008.57 1786.62L1018.13 1777.06L1021.71 1780.65L1007.81 1794.55ZM1016.98 1754.53L1020.19 1757.74L1010.9 1767.03L1007.69 1763.82L1016.98 1754.53ZM1006.1 1758.01L1010.38 1753.73L1024.76 1768.12C1025.16 1768.51 1025.53 1768.76 1025.87 1768.86C1026.2 1768.95 1026.52 1768.94 1026.82 1768.81C1027.13 1768.68 1027.43 1768.47 1027.72 1768.18C1027.92 1767.98 1028.1 1767.76 1028.27 1767.52C1028.43 1767.28 1028.55 1767.1 1028.64 1766.97L1032.5 1769.48C1032.35 1769.76 1032.12 1770.14 1031.82 1770.62C1031.53 1771.1 1031.11 1771.63 1030.58 1772.21C1029.59 1773.28 1028.55 1774.04 1027.45 1774.51C1026.37 1774.96 1025.28 1775.07 1024.19 1774.84C1023.1 1774.6 1022.05 1773.98 1021.05 1772.96L1006.1 1758.01ZM1030.04 1754.49L1038.95 1763.41L1034.68 1767.68L1014.11 1747.11L1018.26 1742.96L1026.13 1750.82L1026.31 1750.64C1025.75 1749.38 1025.6 1748.11 1025.86 1746.81C1026.11 1745.51 1026.82 1744.28 1028 1743.11C1029.07 1742.04 1030.24 1741.34 1031.5 1741.01C1032.77 1740.67 1034.06 1740.71 1035.37 1741.14C1036.68 1741.55 1037.94 1742.37 1039.14 1743.58L1048.96 1753.4L1044.68 1757.68L1035.62 1748.62C1034.68 1747.66 1033.7 1747.16 1032.68 1747.12C1031.67 1747.08 1030.73 1747.49 1029.85 1748.36C1029.27 1748.94 1028.88 1749.58 1028.68 1750.28C1028.49 1750.97 1028.5 1751.68 1028.72 1752.41C1028.94 1753.12 1029.38 1753.82 1030.04 1754.49ZM1058.81 1744.15C1057.22 1745.74 1055.54 1746.79 1053.75 1747.29C1051.96 1747.78 1050.17 1747.74 1048.36 1747.17C1046.56 1746.59 1044.84 1745.49 1043.21 1743.86C1041.62 1742.28 1040.54 1740.57 1039.96 1738.76C1039.37 1736.95 1039.31 1735.14 1039.76 1733.36C1040.21 1731.56 1041.2 1729.91 1042.71 1728.39C1043.73 1727.38 1044.84 1726.59 1046.04 1726.04C1047.25 1725.48 1048.5 1725.2 1049.81 1725.19C1051.12 1725.18 1052.46 1725.48 1053.81 1726.09C1055.15 1726.7 1056.48 1727.66 1057.8 1728.98L1058.97 1730.15L1045.94 1743.18L1043.29 1740.53L1052.29 1731.53C1051.68 1730.91 1051 1730.5 1050.25 1730.29C1049.51 1730.09 1048.77 1730.09 1048.02 1730.29C1047.28 1730.49 1046.6 1730.9 1045.97 1731.52C1045.32 1732.17 1044.9 1732.89 1044.7 1733.7C1044.5 1734.49 1044.51 1735.27 1044.73 1736.06C1044.94 1736.84 1045.35 1737.53 1045.95 1738.15L1048.47 1740.67C1049.24 1741.43 1050.04 1741.95 1050.87 1742.23C1051.72 1742.49 1052.55 1742.52 1053.38 1742.3C1054.2 1742.07 1054.97 1741.61 1055.69 1740.89C1056.16 1740.41 1056.53 1739.91 1056.79 1739.38C1057.05 1738.85 1057.19 1738.31 1057.2 1737.77C1057.22 1737.22 1057.1 1736.67 1056.86 1736.14L1061.08 1732.44C1061.83 1733.59 1062.25 1734.84 1062.34 1736.17C1062.42 1737.49 1062.17 1738.83 1061.59 1740.21C1061.01 1741.57 1060.08 1742.88 1058.81 1744.15ZM1067.53 1734.83L1052.11 1719.4L1056.25 1715.25L1058.95 1717.94L1059.11 1717.78C1058.43 1716.54 1058.18 1715.35 1058.35 1714.2C1058.52 1713.04 1059.04 1712.03 1059.9 1711.16C1060.11 1710.95 1060.36 1710.73 1060.63 1710.51C1060.91 1710.29 1061.16 1710.11 1061.4 1709.97L1065.19 1713.77C1064.93 1713.91 1064.6 1714.13 1064.2 1714.44C1063.8 1714.75 1063.45 1715.05 1063.15 1715.34C1062.52 1715.97 1062.1 1716.67 1061.88 1717.44C1061.66 1718.2 1061.64 1718.96 1061.84 1719.73C1062.04 1720.49 1062.45 1721.19 1063.08 1721.82L1071.81 1730.55L1067.53 1734.83ZM1073.62 1710.9L1082.54 1719.82L1078.26 1724.1L1062.83 1708.68L1066.91 1704.6L1069.63 1707.32L1069.81 1707.14C1069.26 1705.9 1069.12 1704.62 1069.4 1703.29C1069.67 1701.96 1070.38 1700.72 1071.53 1699.58C1072.6 1698.5 1073.77 1697.8 1075.03 1697.48C1076.3 1697.15 1077.59 1697.2 1078.9 1697.63C1080.21 1698.05 1081.46 1698.86 1082.66 1700.06L1092.48 1709.88L1088.2 1714.16L1079.14 1705.1C1078.2 1704.15 1077.23 1703.65 1076.21 1703.61C1075.18 1703.57 1074.24 1703.97 1073.39 1704.83C1072.81 1705.4 1072.43 1706.04 1072.23 1706.73C1072.04 1707.41 1072.06 1708.11 1072.29 1708.84C1072.52 1709.55 1072.96 1710.24 1073.62 1710.9ZM1102.34 1700.63C1100.75 1702.21 1099.06 1703.26 1097.27 1703.76C1095.49 1704.25 1093.69 1704.21 1091.89 1703.64C1090.08 1703.06 1088.37 1701.96 1086.74 1700.34C1085.15 1698.75 1084.07 1697.05 1083.48 1695.23C1082.9 1693.42 1082.83 1691.62 1083.28 1689.83C1083.74 1688.04 1084.72 1686.38 1086.24 1684.87C1087.25 1683.85 1088.37 1683.07 1089.57 1682.52C1090.78 1681.96 1092.03 1681.67 1093.34 1681.66C1094.65 1681.65 1095.98 1681.95 1097.33 1682.57C1098.68 1683.18 1100.01 1684.14 1101.32 1685.45L1102.5 1686.63L1089.47 1699.65L1086.82 1697L1095.82 1688C1095.2 1687.39 1094.52 1686.97 1093.78 1686.77C1093.04 1686.56 1092.29 1686.56 1091.55 1686.77C1090.81 1686.96 1090.12 1687.37 1089.5 1687.99C1088.85 1688.64 1088.43 1689.37 1088.22 1690.17C1088.02 1690.96 1088.03 1691.75 1088.25 1692.53C1088.47 1693.31 1088.88 1694 1089.48 1694.62L1092 1697.14C1092.76 1697.91 1093.56 1698.42 1094.4 1698.7C1095.25 1698.97 1096.08 1698.99 1096.9 1698.77C1097.73 1698.55 1098.5 1698.08 1099.21 1697.36C1099.69 1696.89 1100.06 1696.39 1100.32 1695.86C1100.58 1695.33 1100.72 1694.79 1100.73 1694.24C1100.74 1693.69 1100.63 1693.15 1100.39 1692.61L1104.61 1688.92C1105.36 1690.07 1105.78 1691.31 1105.86 1692.64C1105.95 1693.96 1105.7 1695.31 1105.12 1696.68C1104.54 1698.04 1103.61 1699.35 1102.34 1700.63ZM1103.84 1667.67L1107.05 1670.88L1097.76 1680.17L1094.55 1676.96L1103.84 1667.67ZM1092.96 1671.15L1097.24 1666.87L1111.62 1681.26C1112.02 1681.65 1112.39 1681.9 1112.73 1682C1113.06 1682.09 1113.38 1682.08 1113.68 1681.95C1113.99 1681.82 1114.29 1681.6 1114.58 1681.32C1114.78 1681.12 1114.96 1680.9 1115.13 1680.66C1115.29 1680.42 1115.41 1680.24 1115.5 1680.11L1119.36 1682.62C1119.21 1682.9 1118.98 1683.28 1118.68 1683.76C1118.39 1684.24 1117.97 1684.77 1117.44 1685.34C1116.45 1686.42 1115.41 1687.18 1114.31 1687.64C1113.23 1688.1 1112.14 1688.21 1111.05 1687.98C1109.96 1687.74 1108.91 1687.12 1107.91 1686.1L1092.96 1671.15Z" fill="white"/>
</g>
<path d="M1110.19 1635.94L1163.53 1582.61C1164.47 1581.67 1165.74 1581.14 1167.07 1581.14L1266.29 1581.14" stroke="#FF8200" stroke-width="10" stroke-linecap="round"/>
<rect x="593.695" y="1586.73" width="400" height="60" rx="30" transform="rotate(135 593.695 1586.73)" fill="#FF8200"/>
<g filter="url(#filter3_d_304_1502)">
<path d="M357.09 1760.98L368.249 1763.84L368.41 1763.68L365.568 1752.5L370.479 1747.59L374.487 1764.16L391.19 1768.02L386.188 1773.02L374.949 1770.22L374.788 1770.38L377.59 1781.62L372.609 1786.6L368.762 1769.88L352.159 1765.91L357.09 1760.98ZM381.212 1736.86L401.782 1757.43L397.433 1761.78L380.991 1745.34L380.87 1745.46L379.112 1753.12L375.255 1749.26L377.124 1740.95L381.212 1736.86ZM413.777 1746C412.231 1747.54 410.603 1748.67 408.896 1749.37C407.188 1750.06 405.555 1750.31 403.994 1750.12C402.434 1749.92 401.098 1749.27 399.987 1748.16C399.13 1747.3 398.537 1746.32 398.209 1745.21C397.881 1744.1 397.817 1742.96 398.018 1741.81C398.212 1740.65 398.661 1739.59 399.364 1738.62L399.223 1738.47C397.904 1739.35 396.481 1739.71 394.955 1739.55C393.421 1739.38 392.092 1738.74 390.967 1737.61C389.902 1736.55 389.266 1735.29 389.059 1733.83C388.845 1732.37 389.042 1730.86 389.651 1729.3C390.261 1727.73 391.258 1726.25 392.645 1724.86C394.031 1723.48 395.507 1722.48 397.074 1721.88C398.648 1721.27 400.164 1721.07 401.624 1721.29C403.077 1721.5 404.336 1722.13 405.401 1723.18C406.526 1724.32 407.165 1725.65 407.319 1727.18C407.473 1728.72 407.121 1730.13 406.264 1731.43L406.405 1731.57C407.363 1730.88 408.417 1730.45 409.569 1730.26C410.721 1730.06 411.856 1730.12 412.974 1730.45C414.092 1730.76 415.083 1731.35 415.947 1732.2C417.052 1733.32 417.701 1734.65 417.895 1736.21C418.09 1737.77 417.839 1739.41 417.142 1741.13C416.446 1742.83 415.324 1744.45 413.777 1746ZM410.583 1742.8C411.273 1742.11 411.752 1741.39 412.02 1740.62C412.281 1739.85 412.334 1739.1 412.18 1738.37C412.026 1737.63 411.658 1736.97 411.076 1736.39C410.48 1735.79 409.803 1735.41 409.047 1735.26C408.283 1735.1 407.513 1735.15 406.736 1735.4C405.953 1735.65 405.226 1736.11 404.557 1736.78C403.894 1737.44 403.435 1738.17 403.181 1738.96C402.92 1739.74 402.869 1740.51 403.03 1741.28C403.191 1742.03 403.569 1742.7 404.165 1743.3C404.748 1743.88 405.407 1744.25 406.144 1744.41C406.874 1744.56 407.627 1744.51 408.404 1744.24C409.174 1743.97 409.9 1743.49 410.583 1742.8ZM401.393 1733.61C401.969 1733.04 402.364 1732.41 402.578 1731.72C402.792 1731.04 402.819 1730.37 402.659 1729.7C402.498 1729.03 402.146 1728.42 401.604 1727.88C401.068 1727.34 400.472 1727 399.816 1726.85C399.153 1726.7 398.487 1726.73 397.817 1726.94C397.141 1727.15 396.508 1727.55 395.919 1728.14C395.336 1728.72 394.938 1729.35 394.724 1730.04C394.503 1730.71 394.469 1731.38 394.623 1732.05C394.777 1732.7 395.122 1733.29 395.658 1733.82C396.2 1734.37 396.806 1734.72 397.476 1734.88C398.145 1735.04 398.822 1735.01 399.505 1734.8C400.188 1734.58 400.817 1734.19 401.393 1733.61ZM434.273 1698.2L429.874 1702.6C429.224 1702.11 428.554 1701.77 427.865 1701.58C427.168 1701.38 426.469 1701.31 425.765 1701.39C425.062 1701.46 424.373 1701.67 423.696 1702.01C423.027 1702.34 422.397 1702.81 421.808 1703.39C420.743 1704.46 420.08 1705.65 419.819 1706.97C419.551 1708.28 419.702 1709.66 420.271 1711.1C420.834 1712.53 421.828 1713.96 423.254 1715.39C424.721 1716.85 426.171 1717.87 427.604 1718.43C429.043 1718.99 430.413 1719.12 431.712 1718.84C433.011 1718.56 434.179 1717.9 435.217 1716.86C435.8 1716.28 436.262 1715.67 436.603 1715.02C436.951 1714.36 437.172 1713.69 437.266 1713.01C437.353 1712.32 437.31 1711.63 437.135 1710.95C436.968 1710.26 436.66 1709.59 436.211 1708.94L440.631 1704.56C441.461 1705.62 442.087 1706.81 442.509 1708.15C442.931 1709.46 443.105 1710.85 443.031 1712.3C442.958 1713.74 442.596 1715.19 441.947 1716.64C441.297 1718.08 440.313 1719.46 438.994 1720.78C437.159 1722.62 435.103 1723.84 432.826 1724.46C430.557 1725.07 428.216 1725 425.806 1724.27C423.402 1723.52 421.082 1722.03 418.845 1719.8C416.602 1717.55 415.115 1715.22 414.385 1712.81C413.656 1710.39 413.602 1708.05 414.225 1705.78C414.841 1703.5 416.053 1701.46 417.861 1699.65C419.053 1698.46 420.325 1697.52 421.677 1696.84C423.037 1696.15 424.433 1695.73 425.866 1695.58C427.292 1695.43 428.715 1695.56 430.135 1695.99C431.561 1696.41 432.94 1697.15 434.273 1698.2ZM449.912 1709.3L429.341 1688.73L437.457 1680.61C439.017 1679.05 440.644 1678.02 442.338 1677.52C444.026 1677.01 445.683 1677 447.31 1677.47C448.937 1677.93 450.434 1678.85 451.8 1680.21C453.166 1681.58 454.077 1683.08 454.532 1684.71C454.987 1686.35 454.947 1688.01 454.412 1689.71C453.883 1691.41 452.828 1693.05 451.248 1694.63L446.075 1699.8L442.59 1696.31L447.059 1691.84C447.896 1691.01 448.442 1690.17 448.696 1689.34C448.951 1688.5 448.954 1687.69 448.706 1686.9C448.459 1686.11 447.997 1685.37 447.32 1684.69C446.637 1684.01 445.904 1683.55 445.121 1683.32C444.337 1683.07 443.53 1683.08 442.7 1683.35C441.863 1683.61 441.023 1684.16 440.179 1685L437.246 1687.94L454.261 1704.95L449.912 1709.3ZM454.721 1661.42L472.72 1692.68L469.033 1696.37L451.034 1665.11L454.721 1661.42ZM477.549 1681.66L456.978 1661.09L465.094 1652.98C466.654 1651.42 468.281 1650.39 469.975 1649.88C471.663 1649.38 473.32 1649.36 474.947 1649.83C476.574 1650.3 478.071 1651.21 479.437 1652.58C480.803 1653.94 481.714 1655.44 482.169 1657.08C482.624 1658.71 482.584 1660.38 482.048 1662.08C481.519 1663.77 480.465 1665.41 478.884 1666.99L473.712 1672.16L470.226 1668.68L474.696 1664.21C475.533 1663.37 476.079 1662.54 476.333 1661.71C476.588 1660.86 476.591 1660.05 476.343 1659.27C476.096 1658.47 475.634 1657.73 474.957 1657.06C474.274 1656.37 473.541 1655.91 472.758 1655.68C471.974 1655.43 471.167 1655.44 470.337 1655.71C469.5 1655.97 468.66 1656.52 467.816 1657.37L464.883 1660.3L481.898 1677.31L477.549 1681.66ZM495.013 1664.2L474.443 1643.63L482.558 1635.51C484.118 1633.95 485.746 1632.92 487.44 1632.42C489.127 1631.91 490.784 1631.89 492.412 1632.37C494.039 1632.83 495.535 1633.75 496.901 1635.11C498.267 1636.48 499.178 1637.98 499.633 1639.61C500.089 1641.25 500.048 1642.91 499.513 1644.61C498.984 1646.31 497.929 1647.94 496.349 1649.52L491.176 1654.7L487.691 1651.21L492.16 1646.74C492.997 1645.91 493.543 1645.07 493.798 1644.24C494.052 1643.4 494.055 1642.58 493.808 1641.8C493.56 1641 493.098 1640.27 492.422 1639.59C491.739 1638.91 491.005 1638.45 490.222 1638.22C489.439 1637.97 488.632 1637.98 487.801 1638.25C486.964 1638.51 486.124 1639.06 485.28 1639.9L482.347 1642.84L499.362 1659.85L495.013 1664.2Z" fill="white"/>
</g>
<path d="M518.62 1584.37L571.957 1531.03C572.894 1530.09 574.166 1529.57 575.492 1529.57L674.713 1529.57" stroke="#FF8200" stroke-width="10" stroke-linecap="round"/>
<rect x="2076" y="1127" width="648" height="790" rx="36" stroke="#002FFF" stroke-width="8"/>
<path d="M2267.73 1192V1162.91H2287.33V1167.98H2273.88V1174.91H2286.32V1179.98H2273.88V1186.93H2287.39V1192H2267.73ZM2296.28 1162.91L2303.31 1185.01H2303.58L2310.63 1162.91H2317.44L2307.41 1192H2299.49L2289.45 1162.91H2296.28ZM2329.02 1177.45C2329.02 1173.93 2329.49 1170.69 2330.43 1167.72C2331.38 1164.76 2332.82 1162.01 2334.76 1159.49H2340.54C2339.81 1160.42 2339.12 1161.57 2338.48 1162.92C2337.85 1164.27 2337.3 1165.75 2336.82 1167.36C2336.35 1168.96 2335.98 1170.63 2335.71 1172.36C2335.45 1174.07 2335.32 1175.77 2335.32 1177.45C2335.32 1179.7 2335.54 1181.97 2336 1184.26C2336.46 1186.54 2337.09 1188.66 2337.87 1190.62C2338.67 1192.58 2339.56 1194.19 2340.54 1195.44H2334.76C2332.82 1192.91 2331.38 1190.16 2330.43 1187.2C2329.49 1184.23 2329.02 1180.99 2329.02 1177.45ZM2358.75 1171.28C2358.64 1170.13 2358.15 1169.24 2357.29 1168.61C2356.43 1167.97 2355.26 1167.65 2353.78 1167.65C2352.78 1167.65 2351.93 1167.8 2351.24 1168.08C2350.55 1168.35 2350.02 1168.74 2349.65 1169.23C2349.29 1169.72 2349.11 1170.28 2349.11 1170.91C2349.09 1171.43 2349.2 1171.88 2349.43 1172.27C2349.68 1172.66 2350.02 1172.99 2350.44 1173.28C2350.87 1173.55 2351.36 1173.79 2351.92 1174C2352.48 1174.2 2353.07 1174.37 2353.71 1174.51L2356.32 1175.14C2357.59 1175.42 2358.76 1175.8 2359.82 1176.28C2360.88 1176.75 2361.8 1177.33 2362.57 1178.02C2363.35 1178.71 2363.95 1179.53 2364.38 1180.47C2364.81 1181.4 2365.03 1182.48 2365.04 1183.69C2365.03 1185.47 2364.58 1187.01 2363.68 1188.32C2362.79 1189.62 2361.5 1190.63 2359.82 1191.35C2358.14 1192.06 2356.12 1192.41 2353.75 1192.41C2351.4 1192.41 2349.36 1192.05 2347.61 1191.33C2345.88 1190.61 2344.53 1189.55 2343.55 1188.14C2342.59 1186.72 2342.08 1184.96 2342.03 1182.87H2347.98C2348.05 1183.84 2348.33 1184.66 2348.82 1185.31C2349.32 1185.95 2349.99 1186.44 2350.82 1186.77C2351.67 1187.09 2352.62 1187.26 2353.68 1187.26C2354.72 1187.26 2355.63 1187.1 2356.39 1186.8C2357.17 1186.5 2357.77 1186.08 2358.2 1185.54C2358.62 1185 2358.84 1184.38 2358.84 1183.68C2358.84 1183.02 2358.64 1182.47 2358.25 1182.03C2357.88 1181.58 2357.32 1181.2 2356.58 1180.89C2355.85 1180.58 2354.95 1180.3 2353.89 1180.04L2350.73 1179.24C2348.27 1178.65 2346.34 1177.71 2344.92 1176.45C2343.5 1175.18 2342.79 1173.47 2342.8 1171.32C2342.79 1169.56 2343.26 1168.02 2344.21 1166.7C2345.16 1165.39 2346.47 1164.36 2348.14 1163.62C2349.81 1162.88 2351.7 1162.51 2353.82 1162.51C2355.98 1162.51 2357.87 1162.88 2359.48 1163.62C2361.09 1164.36 2362.35 1165.39 2363.25 1166.7C2364.15 1168.02 2364.62 1169.54 2364.65 1171.28H2358.75ZM2367.87 1192V1170.18H2373.92V1192H2367.87ZM2370.91 1167.37C2370.01 1167.37 2369.24 1167.07 2368.59 1166.47C2367.96 1165.87 2367.64 1165.14 2367.64 1164.3C2367.64 1163.47 2367.96 1162.75 2368.59 1162.16C2369.24 1161.55 2370.01 1161.25 2370.91 1161.25C2371.81 1161.25 2372.57 1161.55 2373.21 1162.16C2373.85 1162.75 2374.17 1163.47 2374.17 1164.3C2374.17 1165.14 2373.85 1165.87 2373.21 1166.47C2372.57 1167.07 2371.81 1167.37 2370.91 1167.37ZM2377.57 1192V1170.18H2383.33V1174.03H2383.59C2384.04 1172.75 2384.8 1171.74 2385.86 1171.01C2386.92 1170.27 2388.19 1169.9 2389.67 1169.9C2391.16 1169.9 2392.44 1170.27 2393.49 1171.02C2394.54 1171.76 2395.24 1172.76 2395.59 1174.03H2395.82C2396.26 1172.78 2397.07 1171.78 2398.23 1171.03C2399.41 1170.28 2400.79 1169.9 2402.4 1169.9C2404.43 1169.9 2406.08 1170.55 2407.35 1171.84C2408.63 1173.13 2409.27 1174.96 2409.27 1177.33V1192H2403.23V1178.52C2403.23 1177.31 2402.91 1176.4 2402.27 1175.79C2401.62 1175.19 2400.82 1174.88 2399.85 1174.88C2398.75 1174.88 2397.9 1175.23 2397.28 1175.93C2396.67 1176.63 2396.36 1177.54 2396.36 1178.68V1192H2390.49V1178.39C2390.49 1177.32 2390.18 1176.47 2389.57 1175.84C2388.96 1175.2 2388.16 1174.88 2387.17 1174.88C2386.5 1174.88 2385.89 1175.05 2385.35 1175.39C2384.82 1175.73 2384.4 1176.2 2384.09 1176.8C2383.77 1177.4 2383.62 1178.1 2383.62 1178.9V1192H2377.57ZM2426.84 1182.71V1170.18H2432.89V1192H2427.08V1188.04H2426.86C2426.36 1189.32 2425.54 1190.34 2424.4 1191.12C2423.26 1191.9 2421.87 1192.28 2420.24 1192.28C2418.78 1192.28 2417.49 1191.95 2416.39 1191.29C2415.28 1190.63 2414.41 1189.68 2413.79 1188.46C2413.17 1187.24 2412.86 1185.78 2412.85 1184.07V1170.18H2418.9V1182.99C2418.91 1184.28 2419.26 1185.3 2419.94 1186.05C2420.62 1186.8 2421.53 1187.17 2422.68 1187.17C2423.41 1187.17 2424.09 1187 2424.72 1186.67C2425.36 1186.33 2425.87 1185.83 2426.26 1185.17C2426.66 1184.5 2426.85 1183.69 2426.84 1182.71ZM2442.58 1162.91V1192H2436.53V1162.91H2442.58ZM2452.45 1192.41C2451.06 1192.41 2449.82 1192.17 2448.73 1191.69C2447.64 1191.2 2446.78 1190.47 2446.15 1189.51C2445.52 1188.55 2445.21 1187.35 2445.21 1185.91C2445.21 1184.69 2445.43 1183.68 2445.88 1182.85C2446.32 1182.03 2446.93 1181.37 2447.69 1180.86C2448.46 1180.36 2449.33 1179.98 2450.31 1179.73C2451.29 1179.47 2452.32 1179.29 2453.4 1179.19C2454.67 1179.05 2455.7 1178.93 2456.47 1178.82C2457.25 1178.7 2457.81 1178.52 2458.16 1178.28C2458.51 1178.04 2458.69 1177.69 2458.69 1177.23V1177.14C2458.69 1176.24 2458.4 1175.55 2457.84 1175.05C2457.28 1174.56 2456.48 1174.32 2455.45 1174.32C2454.36 1174.32 2453.49 1174.56 2452.85 1175.04C2452.21 1175.51 2451.78 1176.11 2451.57 1176.83L2445.98 1176.38C2446.26 1175.05 2446.82 1173.9 2447.65 1172.94C2448.48 1171.96 2449.56 1171.21 2450.88 1170.69C2452.2 1170.16 2453.74 1169.9 2455.48 1169.9C2456.69 1169.9 2457.85 1170.04 2458.96 1170.32C2460.08 1170.61 2461.07 1171.05 2461.93 1171.64C2462.8 1172.24 2463.48 1173.01 2463.99 1173.95C2464.49 1174.87 2464.74 1175.99 2464.74 1177.28V1192H2459V1188.97H2458.83C2458.48 1189.66 2458.01 1190.26 2457.42 1190.78C2456.84 1191.29 2456.13 1191.69 2455.31 1191.99C2454.48 1192.27 2453.53 1192.41 2452.45 1192.41ZM2454.19 1188.24C2455.08 1188.24 2455.86 1188.06 2456.54 1187.71C2457.23 1187.35 2457.76 1186.87 2458.15 1186.26C2458.54 1185.66 2458.73 1184.97 2458.73 1184.2V1181.89C2458.54 1182.01 2458.28 1182.12 2457.95 1182.23C2457.63 1182.32 2457.26 1182.41 2456.86 1182.5C2456.45 1182.57 2456.04 1182.64 2455.63 1182.71C2455.23 1182.77 2454.86 1182.82 2454.53 1182.87C2453.82 1182.97 2453.2 1183.14 2452.67 1183.36C2452.14 1183.59 2451.72 1183.9 2451.43 1184.29C2451.14 1184.67 2450.99 1185.14 2450.99 1185.71C2450.99 1186.53 2451.29 1187.16 2451.88 1187.6C2452.49 1188.02 2453.26 1188.24 2454.19 1188.24ZM2479.84 1170.18V1174.73H2466.7V1170.18H2479.84ZM2469.68 1164.95H2475.73V1185.3C2475.73 1185.85 2475.82 1186.29 2475.99 1186.6C2476.16 1186.91 2476.4 1187.12 2476.7 1187.24C2477.01 1187.36 2477.37 1187.43 2477.78 1187.43C2478.06 1187.43 2478.35 1187.4 2478.63 1187.36C2478.92 1187.3 2479.13 1187.26 2479.29 1187.23L2480.24 1191.73C2479.93 1191.82 2479.51 1191.93 2478.96 1192.06C2478.41 1192.19 2477.74 1192.27 2476.96 1192.3C2475.5 1192.36 2474.22 1192.16 2473.12 1191.72C2472.03 1191.27 2471.18 1190.58 2470.58 1189.64C2469.97 1188.7 2469.67 1187.52 2469.68 1186.09V1164.95ZM2492.2 1192.43C2490 1192.43 2488.09 1191.96 2486.48 1191.02C2484.88 1190.07 2483.64 1188.76 2482.77 1187.07C2481.9 1185.38 2481.47 1183.41 2481.47 1181.18C2481.47 1178.92 2481.9 1176.95 2482.77 1175.27C2483.64 1173.57 2484.88 1172.26 2486.48 1171.32C2488.09 1170.37 2490 1169.9 2492.2 1169.9C2494.41 1169.9 2496.31 1170.37 2497.91 1171.32C2499.52 1172.26 2500.77 1173.57 2501.64 1175.27C2502.51 1176.95 2502.94 1178.92 2502.94 1181.18C2502.94 1183.41 2502.51 1185.38 2501.64 1187.07C2500.77 1188.76 2499.52 1190.07 2497.91 1191.02C2496.31 1191.96 2494.41 1192.43 2492.2 1192.43ZM2492.23 1187.74C2493.24 1187.74 2494.08 1187.45 2494.75 1186.89C2495.42 1186.31 2495.93 1185.52 2496.27 1184.53C2496.62 1183.53 2496.79 1182.4 2496.79 1181.13C2496.79 1179.86 2496.62 1178.73 2496.27 1177.74C2495.93 1176.74 2495.42 1175.96 2494.75 1175.38C2494.08 1174.8 2493.24 1174.51 2492.23 1174.51C2491.22 1174.51 2490.37 1174.8 2489.68 1175.38C2488.99 1175.96 2488.48 1176.74 2488.13 1177.74C2487.79 1178.73 2487.62 1179.86 2487.62 1181.13C2487.62 1182.4 2487.79 1183.53 2488.13 1184.53C2488.48 1185.52 2488.99 1186.31 2489.68 1186.89C2490.37 1187.45 2491.22 1187.74 2492.23 1187.74ZM2505.68 1192V1170.18H2511.54V1173.99H2511.77C2512.17 1172.63 2512.84 1171.61 2513.77 1170.92C2514.71 1170.22 2515.79 1169.87 2517.01 1169.87C2517.32 1169.87 2517.64 1169.89 2517.99 1169.93C2518.34 1169.96 2518.65 1170.02 2518.92 1170.08V1175.45C2518.63 1175.37 2518.24 1175.29 2517.74 1175.22C2517.24 1175.16 2516.78 1175.12 2516.36 1175.12C2515.47 1175.12 2514.67 1175.32 2513.97 1175.71C2513.28 1176.09 2512.73 1176.62 2512.33 1177.3C2511.93 1177.98 2511.73 1178.77 2511.73 1179.66V1192H2505.68ZM2531.04 1180.34C2531.04 1183.87 2530.57 1187.12 2529.62 1190.08C2528.69 1193.05 2527.25 1195.79 2525.31 1198.32H2519.52C2520.26 1197.38 2520.95 1196.24 2521.58 1194.88C2522.22 1193.53 2522.77 1192.05 2523.25 1190.45C2523.72 1188.84 2524.09 1187.18 2524.35 1185.45C2524.62 1183.73 2524.75 1182.02 2524.75 1180.34C2524.75 1178.09 2524.52 1175.83 2524.06 1173.55C2523.6 1171.26 2522.98 1169.14 2522.18 1167.18C2521.39 1165.22 2520.51 1163.62 2519.52 1162.37H2525.31C2527.25 1164.9 2528.69 1167.64 2529.62 1170.61C2530.57 1173.57 2531.04 1176.82 2531.04 1180.34Z" fill="black"/>
<rect x="2127.3" y="1575.84" width="400" height="60" rx="30" transform="rotate(-45 2127.3 1575.84)" fill="#FF8200"/>
<g filter="url(#filter4_d_304_1502)">
<path d="M2287.75 1452.3L2283.35 1456.7C2282.7 1456.21 2282.03 1455.87 2281.34 1455.68C2280.64 1455.48 2279.94 1455.41 2279.24 1455.49C2278.54 1455.56 2277.85 1455.77 2277.17 1456.11C2276.5 1456.44 2275.87 1456.91 2275.28 1457.49C2274.22 1458.56 2273.56 1459.75 2273.3 1461.07C2273.03 1462.38 2273.18 1463.76 2273.75 1465.2C2274.31 1466.63 2275.3 1468.06 2276.73 1469.49C2278.2 1470.95 2279.65 1471.97 2281.08 1472.53C2282.52 1473.09 2283.89 1473.22 2285.19 1472.94C2286.49 1472.66 2287.65 1472 2288.69 1470.96C2289.28 1470.38 2289.74 1469.77 2290.08 1469.12C2290.43 1468.46 2290.65 1467.79 2290.74 1467.11C2290.83 1466.42 2290.79 1465.73 2290.61 1465.05C2290.44 1464.36 2290.14 1463.69 2289.69 1463.04L2294.11 1458.66C2294.94 1459.72 2295.56 1460.91 2295.98 1462.25C2296.41 1463.56 2296.58 1464.95 2296.51 1466.4C2296.43 1467.84 2296.07 1469.29 2295.42 1470.74C2294.77 1472.18 2293.79 1473.56 2292.47 1474.88C2290.63 1476.72 2288.58 1477.94 2286.3 1478.56C2284.03 1479.17 2281.69 1479.1 2279.28 1478.37C2276.88 1477.62 2274.56 1476.13 2272.32 1473.9C2270.08 1471.65 2268.59 1469.32 2267.86 1466.91C2267.13 1464.49 2267.08 1462.15 2267.7 1459.88C2268.32 1457.6 2269.53 1455.56 2271.34 1453.75C2272.53 1452.56 2273.8 1451.62 2275.15 1450.94C2276.51 1450.25 2277.91 1449.83 2279.34 1449.68C2280.77 1449.53 2282.19 1449.66 2283.61 1450.09C2285.04 1450.51 2286.42 1451.25 2287.75 1452.3ZM2303.39 1463.4L2282.82 1442.83L2290.93 1434.71C2292.49 1433.15 2294.12 1432.12 2295.81 1431.62C2297.5 1431.11 2299.16 1431.1 2300.79 1431.57C2302.41 1432.03 2303.91 1432.95 2305.28 1434.31C2306.64 1435.68 2307.55 1437.18 2308.01 1438.81C2308.46 1440.45 2308.42 1442.11 2307.89 1443.81C2307.36 1445.51 2306.3 1447.15 2304.72 1448.73L2299.55 1453.9L2296.07 1450.41L2300.53 1445.94C2301.37 1445.11 2301.92 1444.27 2302.17 1443.44C2302.43 1442.6 2302.43 1441.79 2302.18 1441C2301.93 1440.21 2301.47 1439.47 2300.8 1438.79C2300.11 1438.11 2299.38 1437.65 2298.6 1437.42C2297.81 1437.17 2297.01 1437.18 2296.18 1437.45C2295.34 1437.71 2294.5 1438.26 2293.65 1439.1L2290.72 1442.04L2307.74 1459.05L2303.39 1463.4Z" fill="white"/>
</g>
<path d="M2201.38 1579.21L2148.04 1632.54C2147.11 1633.48 2145.83 1634.01 2144.51 1634.01L2045.29 1634.01" stroke="#FF8200" stroke-width="10" stroke-linecap="round"/>
<rect x="2125.3" y="1769.69" width="400" height="60" rx="30" transform="rotate(-45 2125.3 1769.69)" fill="#FF8200"/>
<g filter="url(#filter5_d_304_1502)">
<path d="M2269.45 1661.34C2268.82 1660.99 2268.2 1660.76 2267.57 1660.64C2266.93 1660.51 2266.3 1660.5 2265.67 1660.61C2265.04 1660.7 2264.42 1660.91 2263.81 1661.24C2263.21 1661.56 2262.62 1662.01 2262.06 1662.57C2261.01 1663.62 2260.35 1664.8 2260.07 1666.12C2259.81 1667.44 2259.95 1668.81 2260.5 1670.25C2261.05 1671.68 2262.05 1673.12 2263.48 1674.55C2264.91 1675.98 2266.35 1676.98 2267.79 1677.55C2269.23 1678.12 2270.61 1678.27 2271.94 1678.01C2273.25 1677.73 2274.46 1677.05 2275.54 1675.97C2276.53 1674.98 2277.19 1673.97 2277.54 1672.92C2277.89 1671.87 2277.92 1670.83 2277.65 1669.82C2277.38 1668.8 2276.81 1667.85 2275.93 1666.98L2276.95 1666.22L2271.64 1671.53L2268.37 1668.25L2276.98 1659.65L2279.57 1662.24C2281.38 1664.04 2282.55 1665.98 2283.08 1668.04C2283.61 1670.1 2283.56 1672.15 2282.92 1674.19C2282.28 1676.22 2281.1 1678.11 2279.37 1679.83C2277.44 1681.76 2275.32 1683.03 2273.01 1683.64C2270.69 1684.24 2268.34 1684.17 2265.95 1683.41C2263.56 1682.64 2261.28 1681.17 2259.11 1679C2257.44 1677.33 2256.2 1675.61 2255.37 1673.82C2254.55 1672.02 2254.12 1670.22 2254.09 1668.43C2254.05 1666.65 2254.38 1664.93 2255.07 1663.29C2255.76 1661.65 2256.79 1660.15 2258.14 1658.79C2259.31 1657.63 2260.57 1656.71 2261.91 1656.05C2263.25 1655.38 2264.62 1654.96 2266.01 1654.8C2267.41 1654.64 2268.78 1654.73 2270.13 1655.09C2271.47 1655.43 2272.72 1656.05 2273.87 1656.92L2269.45 1661.34ZM2287.04 1630.46L2307.61 1651.03L2303.85 1654.79L2281.96 1650.79L2281.81 1650.94L2294.75 1663.89L2290.4 1668.24L2269.83 1647.66L2273.65 1643.85L2295.47 1647.91L2295.65 1647.73L2282.71 1634.79L2287.04 1630.46ZM2317.65 1640.99L2310.35 1648.28L2289.78 1627.71L2297.14 1620.36C2299.21 1618.29 2301.4 1616.92 2303.72 1616.25C2306.03 1615.58 2308.35 1615.6 2310.69 1616.33C2313.03 1617.06 2315.27 1618.49 2317.41 1620.62C2319.55 1622.77 2320.98 1625.01 2321.71 1627.36C2322.45 1629.71 2322.48 1632.04 2321.79 1634.37C2321.12 1636.7 2319.74 1638.9 2317.65 1640.99ZM2310.98 1640.21L2313.74 1637.45C2315.02 1636.16 2315.88 1634.85 2316.3 1633.52C2316.72 1632.17 2316.67 1630.8 2316.15 1629.39C2315.63 1627.97 2314.6 1626.5 2313.07 1624.96C2311.55 1623.44 2310.08 1622.42 2308.67 1621.91C2307.26 1621.39 2305.89 1621.34 2304.56 1621.76C2303.23 1622.18 2301.92 1623.03 2300.63 1624.32L2297.86 1627.09L2310.98 1640.21Z" fill="white"/>
</g>
<path d="M2199.38 1773.06L2146.04 1826.39C2145.11 1827.33 2143.83 1827.86 2142.51 1827.86L2043.29 1827.86" stroke="#FF8200" stroke-width="10" stroke-linecap="round"/>
<rect x="2076" y="547" width="648" height="429" rx="36" stroke="#00AC00" stroke-width="8"/>
<path d="M2287.28 593.03H2276.97V563.939H2287.37C2290.3 563.939 2292.81 564.522 2294.93 565.687C2297.04 566.842 2298.66 568.504 2299.8 570.672C2300.94 572.841 2301.52 575.436 2301.52 578.456C2301.52 581.487 2300.94 584.091 2299.8 586.269C2298.66 588.447 2297.03 590.118 2294.9 591.283C2292.78 592.448 2290.24 593.03 2287.28 593.03ZM2283.12 587.76H2287.03C2288.85 587.76 2290.38 587.438 2291.62 586.794C2292.87 586.141 2293.8 585.133 2294.43 583.769C2295.06 582.396 2295.38 580.625 2295.38 578.456C2295.38 576.307 2295.06 574.55 2294.43 573.187C2293.8 571.823 2292.87 570.819 2291.63 570.175C2290.39 569.531 2288.86 569.209 2287.04 569.209H2283.12V587.76ZM2314.7 593.456C2312.46 593.456 2310.53 593.002 2308.91 592.093C2307.3 591.174 2306.06 589.877 2305.19 588.201C2304.32 586.515 2303.88 584.522 2303.88 582.221C2303.88 579.976 2304.32 578.007 2305.19 576.312C2306.06 574.616 2307.28 573.295 2308.87 572.348C2310.46 571.401 2312.32 570.928 2314.46 570.928C2315.9 570.928 2317.24 571.16 2318.48 571.624C2319.73 572.079 2320.82 572.765 2321.75 573.684C2322.69 574.602 2323.42 575.758 2323.94 577.15C2324.46 578.532 2324.72 580.151 2324.72 582.008V583.669H2306.29V579.919H2319.02C2319.02 579.048 2318.83 578.276 2318.45 577.604C2318.07 576.932 2317.55 576.406 2316.88 576.027C2316.21 575.639 2315.44 575.445 2314.56 575.445C2313.64 575.445 2312.83 575.658 2312.12 576.084C2311.42 576.501 2310.87 577.064 2310.47 577.775C2310.07 578.475 2309.87 579.257 2309.86 580.118V583.684C2309.86 584.763 2310.06 585.696 2310.46 586.482C2310.86 587.268 2311.44 587.874 2312.17 588.3C2312.91 588.726 2313.79 588.939 2314.8 588.939C2315.48 588.939 2316.09 588.845 2316.65 588.655C2317.21 588.466 2317.69 588.182 2318.08 587.803C2318.48 587.424 2318.78 586.96 2318.99 586.411L2324.59 586.78C2324.31 588.125 2323.72 589.299 2322.84 590.303C2321.97 591.297 2320.84 592.074 2319.46 592.633C2318.09 593.182 2316.5 593.456 2314.7 593.456ZM2347.22 571.212L2339.59 593.03H2332.78L2325.15 571.212H2331.54L2336.07 586.823H2336.3L2340.82 571.212H2347.22ZM2358.36 593.456C2356.11 593.456 2354.18 593.002 2352.56 592.093C2350.95 591.174 2349.71 589.877 2348.84 588.201C2347.97 586.515 2347.53 584.522 2347.53 582.221C2347.53 579.976 2347.97 578.007 2348.84 576.312C2349.71 574.616 2350.94 573.295 2352.52 572.348C2354.11 571.401 2355.98 570.928 2358.12 570.928C2359.56 570.928 2360.9 571.16 2362.14 571.624C2363.39 572.079 2364.48 572.765 2365.4 573.684C2366.34 574.602 2367.07 575.758 2367.59 577.15C2368.11 578.532 2368.37 580.151 2368.37 582.008V583.669H2349.95V579.919H2362.68C2362.68 579.048 2362.49 578.276 2362.11 577.604C2361.73 576.932 2361.2 576.406 2360.53 576.027C2359.87 575.639 2359.1 575.445 2358.22 575.445C2357.3 575.445 2356.48 575.658 2355.77 576.084C2355.07 576.501 2354.52 577.064 2354.12 577.775C2353.73 578.475 2353.52 579.257 2353.51 580.118V583.684C2353.51 584.763 2353.71 585.696 2354.11 586.482C2354.52 587.268 2355.09 587.874 2355.83 588.3C2356.57 588.726 2357.44 588.939 2358.46 588.939C2359.13 588.939 2359.75 588.845 2360.3 588.655C2360.86 588.466 2361.34 588.182 2361.74 587.803C2362.14 587.424 2362.44 586.96 2362.65 586.411L2368.24 586.78C2367.96 588.125 2367.38 589.299 2366.5 590.303C2365.63 591.297 2364.5 592.074 2363.12 592.633C2361.74 593.182 2360.16 593.456 2358.36 593.456ZM2377.17 563.939V593.03H2371.12V563.939H2377.17ZM2390.68 593.456C2388.47 593.456 2386.56 592.988 2384.95 592.05C2383.35 591.103 2382.12 589.787 2381.25 588.101C2380.37 586.406 2379.94 584.441 2379.94 582.206C2379.94 579.953 2380.37 577.983 2381.25 576.297C2382.12 574.602 2383.35 573.286 2384.95 572.348C2386.56 571.401 2388.47 570.928 2390.68 570.928C2392.88 570.928 2394.79 571.401 2396.39 572.348C2398 573.286 2399.24 574.602 2400.11 576.297C2400.98 577.983 2401.42 579.953 2401.42 582.206C2401.42 584.441 2400.98 586.406 2400.11 588.101C2399.24 589.787 2398 591.103 2396.39 592.05C2394.79 592.988 2392.88 593.456 2390.68 593.456ZM2390.71 588.769C2391.71 588.769 2392.55 588.485 2393.22 587.917C2393.89 587.339 2394.4 586.553 2394.74 585.559C2395.09 584.564 2395.27 583.433 2395.27 582.164C2395.27 580.895 2395.09 579.763 2394.74 578.769C2394.4 577.775 2393.89 576.989 2393.22 576.411C2392.55 575.833 2391.71 575.544 2390.71 575.544C2389.69 575.544 2388.84 575.833 2388.15 576.411C2387.47 576.989 2386.95 577.775 2386.6 578.769C2386.26 579.763 2386.09 580.895 2386.09 582.164C2386.09 583.433 2386.26 584.564 2386.6 585.559C2386.95 586.553 2387.47 587.339 2388.15 587.917C2388.84 588.485 2389.69 588.769 2390.71 588.769ZM2404.15 601.212V571.212H2410.12V574.877H2410.39C2410.65 574.29 2411.04 573.693 2411.54 573.087C2412.05 572.472 2412.71 571.96 2413.53 571.553C2414.35 571.136 2415.37 570.928 2416.59 570.928C2418.18 570.928 2419.65 571.345 2421 572.178C2422.34 573.002 2423.42 574.247 2424.22 575.914C2425.03 577.571 2425.43 579.65 2425.43 582.15C2425.43 584.583 2425.04 586.638 2424.25 588.314C2423.47 589.981 2422.41 591.245 2421.07 592.107C2419.73 592.959 2418.24 593.385 2416.58 593.385C2415.41 593.385 2414.41 593.191 2413.58 592.803C2412.77 592.415 2412.1 591.927 2411.58 591.34C2411.06 590.743 2410.66 590.142 2410.39 589.536H2410.2V601.212H2404.15ZM2410.07 582.121C2410.07 583.419 2410.25 584.55 2410.61 585.516C2410.97 586.482 2411.49 587.235 2412.18 587.775C2412.86 588.305 2413.69 588.57 2414.66 588.57C2415.65 588.57 2416.48 588.3 2417.16 587.76C2417.84 587.211 2418.36 586.454 2418.71 585.488C2419.07 584.512 2419.25 583.39 2419.25 582.121C2419.25 580.862 2419.07 579.754 2418.72 578.797C2418.37 577.841 2417.86 577.093 2417.18 576.553C2416.49 576.013 2415.66 575.743 2414.66 575.743C2413.68 575.743 2412.84 576.004 2412.16 576.525C2411.49 577.045 2410.97 577.784 2410.61 578.74C2410.25 579.697 2410.07 580.824 2410.07 582.121ZM2438.21 593.456C2435.96 593.456 2434.03 593.002 2432.41 592.093C2430.8 591.174 2429.56 589.877 2428.69 588.201C2427.82 586.515 2427.38 584.522 2427.38 582.221C2427.38 579.976 2427.82 578.007 2428.69 576.312C2429.56 574.616 2430.79 573.295 2432.37 572.348C2433.96 571.401 2435.82 570.928 2437.96 570.928C2439.4 570.928 2440.74 571.16 2441.98 571.624C2443.23 572.079 2444.32 572.765 2445.25 573.684C2446.19 574.602 2446.92 575.758 2447.44 577.15C2447.96 578.532 2448.22 580.151 2448.22 582.008V583.669H2429.8V579.919H2442.52C2442.52 579.048 2442.34 578.276 2441.96 577.604C2441.58 576.932 2441.05 576.406 2440.38 576.027C2439.72 575.639 2438.95 575.445 2438.06 575.445C2437.15 575.445 2436.33 575.658 2435.62 576.084C2434.92 576.501 2434.37 577.064 2433.97 577.775C2433.58 578.475 2433.37 579.257 2433.36 580.118V583.684C2433.36 584.763 2433.56 585.696 2433.96 586.482C2434.37 587.268 2434.94 587.874 2435.68 588.3C2436.42 588.726 2437.29 588.939 2438.31 588.939C2438.98 588.939 2439.59 588.845 2440.15 588.655C2440.71 588.466 2441.19 588.182 2441.59 587.803C2441.98 587.424 2442.29 586.96 2442.5 586.411L2448.09 586.78C2447.81 588.125 2447.23 589.299 2446.35 590.303C2445.47 591.297 2444.35 592.074 2442.96 592.633C2441.59 593.182 2440.01 593.456 2438.21 593.456ZM2450.97 593.03V571.212H2456.84V575.019H2457.06C2457.46 573.665 2458.13 572.642 2459.07 571.951C2460 571.25 2461.08 570.9 2462.3 570.9C2462.61 570.9 2462.93 570.919 2463.28 570.956C2463.64 570.994 2463.94 571.046 2464.21 571.113V576.482C2463.92 576.397 2463.53 576.321 2463.03 576.255C2462.53 576.188 2462.07 576.155 2461.65 576.155C2460.76 576.155 2459.97 576.349 2459.26 576.738C2458.57 577.116 2458.02 577.647 2457.62 578.329C2457.22 579.01 2457.02 579.796 2457.02 580.687V593.03H2450.97ZM2474.31 593.03V563.939H2485.79C2487.99 563.939 2489.87 564.361 2491.42 565.204C2492.98 566.037 2494.16 567.197 2494.98 568.684C2495.8 570.161 2496.21 571.866 2496.21 573.797C2496.21 575.729 2495.79 577.434 2494.96 578.911C2494.13 580.388 2492.92 581.539 2491.34 582.363C2489.77 583.187 2487.86 583.598 2485.63 583.598H2478.31V578.669H2484.63C2485.82 578.669 2486.79 578.466 2487.56 578.059C2488.34 577.642 2488.92 577.069 2489.29 576.34C2489.68 575.601 2489.88 574.754 2489.88 573.797C2489.88 572.831 2489.68 571.989 2489.29 571.269C2488.92 570.54 2488.34 569.976 2487.56 569.579C2486.78 569.171 2485.8 568.968 2484.61 568.968H2480.46V593.03H2474.31ZM2524.67 574.124H2518.45C2518.34 573.319 2518.11 572.604 2517.76 571.979C2517.41 571.345 2516.96 570.805 2516.41 570.36C2515.86 569.915 2515.22 569.574 2514.5 569.337C2513.79 569.1 2513.02 568.982 2512.19 568.982C2510.68 568.982 2509.37 569.356 2508.25 570.104C2507.14 570.843 2506.27 571.922 2505.65 573.343C2505.04 574.754 2504.73 576.468 2504.73 578.485C2504.73 580.559 2505.04 582.301 2505.65 583.712C2506.28 585.123 2507.15 586.188 2508.27 586.908C2509.39 587.628 2510.68 587.988 2512.15 587.988C2512.97 587.988 2513.73 587.879 2514.43 587.661C2515.14 587.443 2515.77 587.126 2516.32 586.709C2516.87 586.283 2517.33 585.767 2517.69 585.161C2518.05 584.555 2518.31 583.864 2518.45 583.087L2524.67 583.116C2524.51 584.451 2524.11 585.739 2523.47 586.979C2522.83 588.21 2521.98 589.313 2520.9 590.289C2519.83 591.255 2518.55 592.022 2517.06 592.59C2515.58 593.149 2513.91 593.428 2512.05 593.428C2509.45 593.428 2507.13 592.841 2505.09 591.667C2503.05 590.492 2501.44 588.793 2500.26 586.567C2499.08 584.342 2498.5 581.648 2498.5 578.485C2498.5 575.312 2499.09 572.614 2500.28 570.388C2501.48 568.163 2503.1 566.468 2505.14 565.303C2507.19 564.129 2509.49 563.542 2512.05 563.542C2513.73 563.542 2515.29 563.778 2516.73 564.252C2518.18 564.725 2519.47 565.417 2520.58 566.326C2521.7 567.225 2522.61 568.329 2523.31 569.635C2524.02 570.942 2524.48 572.438 2524.67 574.124Z" fill="black"/>
<path d="M2157.31 626.276C2157.2 625.13 2156.71 624.24 2155.85 623.605C2154.98 622.971 2153.82 622.653 2152.34 622.653C2151.33 622.653 2150.49 622.795 2149.8 623.08C2149.1 623.354 2148.57 623.738 2148.2 624.23C2147.84 624.723 2147.66 625.281 2147.66 625.906C2147.65 626.427 2147.75 626.882 2147.99 627.27C2148.24 627.658 2148.57 627.994 2149 628.278C2149.43 628.553 2149.92 628.795 2150.48 629.003C2151.04 629.202 2151.63 629.372 2152.27 629.514L2154.88 630.139C2156.15 630.423 2157.31 630.802 2158.38 631.276C2159.44 631.749 2160.35 632.331 2161.13 633.023C2161.91 633.714 2162.51 634.528 2162.93 635.466C2163.37 636.403 2163.59 637.478 2163.6 638.69C2163.59 640.471 2163.14 642.014 2162.24 643.321C2161.35 644.618 2160.06 645.627 2158.38 646.347C2156.7 647.057 2154.68 647.412 2152.31 647.412C2149.96 647.412 2147.92 647.052 2146.17 646.332C2144.44 645.613 2143.09 644.547 2142.11 643.136C2141.14 641.716 2140.64 639.959 2140.59 637.866H2146.54C2146.61 638.842 2146.89 639.656 2147.38 640.31C2147.88 640.954 2148.55 641.441 2149.38 641.773C2150.23 642.095 2151.18 642.256 2152.24 642.256C2153.28 642.256 2154.18 642.104 2154.95 641.801C2155.73 641.498 2156.33 641.077 2156.76 640.537C2157.18 639.997 2157.39 639.377 2157.39 638.676C2157.39 638.023 2157.2 637.473 2156.81 637.028C2156.43 636.583 2155.88 636.205 2155.14 635.892C2154.41 635.58 2153.51 635.295 2152.45 635.04L2149.28 634.244C2146.83 633.648 2144.89 632.715 2143.47 631.446C2142.05 630.177 2141.35 628.468 2141.36 626.318C2141.35 624.557 2141.82 623.018 2142.76 621.702C2143.72 620.385 2145.03 619.358 2146.7 618.619C2148.37 617.881 2150.26 617.511 2152.38 617.511C2154.54 617.511 2156.42 617.881 2158.03 618.619C2159.65 619.358 2160.91 620.385 2161.81 621.702C2162.71 623.018 2163.18 624.543 2163.2 626.276H2157.31ZM2176.37 647.426C2174.12 647.426 2172.19 646.972 2170.57 646.062C2168.96 645.144 2167.72 643.847 2166.85 642.17C2165.98 640.485 2165.55 638.491 2165.55 636.19C2165.55 633.946 2165.98 631.976 2166.85 630.281C2167.72 628.586 2168.95 627.265 2170.53 626.318C2172.12 625.371 2173.99 624.898 2176.13 624.898C2177.57 624.898 2178.91 625.13 2180.15 625.594C2181.4 626.048 2182.49 626.735 2183.41 627.653C2184.35 628.572 2185.08 629.727 2185.6 631.119C2186.12 632.502 2186.38 634.121 2186.38 635.977V637.639H2167.96V633.889H2180.69C2180.69 633.018 2180.5 632.246 2180.12 631.574C2179.74 630.902 2179.21 630.376 2178.54 629.997C2177.88 629.609 2177.11 629.415 2176.23 629.415C2175.31 629.415 2174.49 629.628 2173.78 630.054C2173.08 630.471 2172.53 631.034 2172.14 631.744C2171.74 632.445 2171.53 633.226 2171.53 634.088V637.653C2171.53 638.733 2171.72 639.666 2172.12 640.452C2172.53 641.238 2173.1 641.844 2173.84 642.27C2174.58 642.696 2175.46 642.909 2176.47 642.909C2177.14 642.909 2177.76 642.814 2178.31 642.625C2178.87 642.436 2179.35 642.152 2179.75 641.773C2180.15 641.394 2180.45 640.93 2180.66 640.381L2186.26 640.75C2185.97 642.095 2185.39 643.269 2184.51 644.273C2183.64 645.267 2182.51 646.044 2181.13 646.602C2179.75 647.152 2178.17 647.426 2176.37 647.426ZM2189.13 647V625.182H2195V628.989H2195.23C2195.62 627.634 2196.29 626.612 2197.23 625.92C2198.17 625.22 2199.25 624.869 2200.47 624.869C2200.77 624.869 2201.1 624.888 2201.45 624.926C2201.8 624.964 2202.11 625.016 2202.37 625.082V630.452C2202.09 630.366 2201.69 630.291 2201.19 630.224C2200.69 630.158 2200.23 630.125 2199.81 630.125C2198.92 630.125 2198.13 630.319 2197.43 630.707C2196.74 631.086 2196.19 631.616 2195.78 632.298C2195.38 632.98 2195.18 633.766 2195.18 634.656V647H2189.13ZM2204.3 647V625.182H2210.35V647H2204.3ZM2207.34 622.369C2206.44 622.369 2205.67 622.071 2205.02 621.474C2204.39 620.868 2204.07 620.144 2204.07 619.301C2204.07 618.468 2204.39 617.753 2205.02 617.156C2205.67 616.55 2206.44 616.247 2207.34 616.247C2208.24 616.247 2209.01 616.55 2209.64 617.156C2210.28 617.753 2210.61 618.468 2210.61 619.301C2210.61 620.144 2210.28 620.868 2209.64 621.474C2209.01 622.071 2208.24 622.369 2207.34 622.369ZM2220.22 647.412C2218.83 647.412 2217.59 647.17 2216.5 646.688C2215.41 646.195 2214.55 645.471 2213.91 644.514C2213.29 643.548 2212.97 642.346 2212.97 640.906C2212.97 639.694 2213.2 638.676 2213.64 637.852C2214.09 637.028 2214.69 636.366 2215.46 635.864C2216.23 635.362 2217.1 634.983 2218.07 634.727C2219.06 634.472 2220.09 634.292 2221.17 634.188C2222.44 634.055 2223.46 633.932 2224.24 633.818C2225.02 633.695 2225.58 633.515 2225.93 633.278C2226.28 633.042 2226.45 632.691 2226.45 632.227V632.142C2226.45 631.242 2226.17 630.546 2225.6 630.054C2225.04 629.562 2224.25 629.315 2223.22 629.315C2222.13 629.315 2221.26 629.557 2220.62 630.04C2219.97 630.513 2219.55 631.11 2219.34 631.83L2213.74 631.375C2214.03 630.049 2214.58 628.903 2215.42 627.938C2216.25 626.962 2217.33 626.214 2218.64 625.693C2219.97 625.163 2221.5 624.898 2223.24 624.898C2224.46 624.898 2225.62 625.04 2226.72 625.324C2227.84 625.608 2228.83 626.048 2229.69 626.645C2230.56 627.241 2231.25 628.009 2231.75 628.946C2232.26 629.874 2232.51 630.987 2232.51 632.284V647H2226.77V643.974H2226.6C2226.25 644.656 2225.78 645.258 2225.19 645.778C2224.6 646.29 2223.9 646.692 2223.07 646.986C2222.25 647.27 2221.3 647.412 2220.22 647.412ZM2221.95 643.236C2222.84 643.236 2223.63 643.061 2224.31 642.71C2224.99 642.35 2225.53 641.867 2225.92 641.261C2226.3 640.655 2226.5 639.969 2226.5 639.202V636.886C2226.31 637.009 2226.05 637.123 2225.72 637.227C2225.39 637.322 2225.03 637.412 2224.62 637.497C2224.22 637.573 2223.81 637.644 2223.4 637.71C2222.99 637.767 2222.62 637.819 2222.29 637.866C2221.58 637.971 2220.96 638.136 2220.43 638.364C2219.9 638.591 2219.49 638.899 2219.2 639.287C2218.9 639.666 2218.76 640.139 2218.76 640.707C2218.76 641.531 2219.05 642.161 2219.65 642.597C2220.26 643.023 2221.02 643.236 2221.95 643.236ZM2242.05 617.909V647H2236V617.909H2242.05Z" fill="black"/>
<path d="M2141.53 915V885.909H2161.13V890.98H2147.68V897.912H2160.12V902.983H2147.68V909.929H2161.19V915H2141.53ZM2176.31 893.182V897.727H2163.17V893.182H2176.31ZM2166.16 887.955H2172.21V908.295C2172.21 908.854 2172.29 909.29 2172.46 909.602C2172.63 909.905 2172.87 910.118 2173.17 910.241C2173.49 910.365 2173.85 910.426 2174.25 910.426C2174.54 910.426 2174.82 910.402 2175.1 910.355C2175.39 910.298 2175.61 910.256 2175.76 910.227L2176.71 914.73C2176.41 914.825 2175.98 914.934 2175.43 915.057C2174.88 915.189 2174.21 915.27 2173.43 915.298C2171.97 915.355 2170.69 915.161 2169.59 914.716C2168.5 914.271 2167.66 913.58 2167.05 912.642C2166.44 911.705 2166.15 910.521 2166.16 909.091V887.955ZM2185.57 902.386V915H2179.52V885.909H2185.4V897.031H2185.66C2186.15 895.743 2186.95 894.735 2188.05 894.006C2189.14 893.267 2190.52 892.898 2192.18 892.898C2193.69 892.898 2195.02 893.229 2196.14 893.892C2197.28 894.545 2198.16 895.488 2198.78 896.719C2199.42 897.94 2199.73 899.403 2199.72 901.108V915H2193.67V902.188C2193.68 900.843 2193.34 899.796 2192.65 899.048C2191.97 898.3 2191.01 897.926 2189.78 897.926C2188.95 897.926 2188.23 898.101 2187.59 898.452C2186.97 898.802 2186.47 899.313 2186.11 899.986C2185.76 900.649 2185.58 901.449 2185.57 902.386Z" fill="black"/>
<path d="M1915.14 781.412C1913.74 781.412 1912.5 781.17 1911.41 780.688C1910.33 780.195 1909.46 779.471 1908.83 778.514C1908.2 777.548 1907.89 776.346 1907.89 774.906C1907.89 773.694 1908.11 772.676 1908.56 771.852C1909 771.028 1909.61 770.366 1910.38 769.864C1911.14 769.362 1912.02 768.983 1912.99 768.727C1913.98 768.472 1915.01 768.292 1916.09 768.188C1917.36 768.055 1918.38 767.932 1919.16 767.818C1919.93 767.695 1920.5 767.515 1920.85 767.278C1921.2 767.042 1921.37 766.691 1921.37 766.227V766.142C1921.37 765.242 1921.09 764.546 1920.52 764.054C1919.96 763.562 1919.17 763.315 1918.13 763.315C1917.04 763.315 1916.18 763.557 1915.53 764.04C1914.89 764.513 1914.46 765.11 1914.26 765.83L1908.66 765.375C1908.94 764.049 1909.5 762.903 1910.34 761.938C1911.17 760.962 1912.24 760.214 1913.56 759.693C1914.89 759.163 1916.42 758.898 1918.16 758.898C1919.37 758.898 1920.53 759.04 1921.64 759.324C1922.76 759.608 1923.75 760.048 1924.61 760.645C1925.48 761.241 1926.17 762.009 1926.67 762.946C1927.17 763.874 1927.42 764.987 1927.42 766.284V781H1921.68V777.974H1921.51C1921.16 778.656 1920.7 779.258 1920.11 779.778C1919.52 780.29 1918.82 780.692 1917.99 780.986C1917.17 781.27 1916.22 781.412 1915.14 781.412ZM1916.87 777.236C1917.76 777.236 1918.55 777.061 1919.23 776.71C1919.91 776.35 1920.44 775.867 1920.83 775.261C1921.22 774.655 1921.41 773.969 1921.41 773.202V770.886C1921.23 771.009 1920.96 771.123 1920.63 771.227C1920.31 771.322 1919.95 771.412 1919.54 771.497C1919.13 771.573 1918.73 771.644 1918.32 771.71C1917.91 771.767 1917.54 771.819 1917.21 771.866C1916.5 771.971 1915.88 772.136 1915.35 772.364C1914.82 772.591 1914.41 772.899 1914.11 773.287C1913.82 773.666 1913.67 774.139 1913.67 774.707C1913.67 775.531 1913.97 776.161 1914.57 776.597C1915.17 777.023 1915.94 777.236 1916.87 777.236ZM1936.97 768.386V781H1930.92V759.182H1936.68V763.031H1936.94C1937.42 761.762 1938.23 760.759 1939.37 760.02C1940.51 759.272 1941.88 758.898 1943.5 758.898C1945.02 758.898 1946.34 759.229 1947.47 759.892C1948.59 760.555 1949.47 761.502 1950.09 762.733C1950.72 763.955 1951.03 765.413 1951.03 767.108V781H1944.98V768.188C1944.99 766.852 1944.65 765.811 1943.96 765.062C1943.27 764.305 1942.31 763.926 1941.1 763.926C1940.29 763.926 1939.57 764.101 1938.94 764.452C1938.33 764.802 1937.84 765.313 1937.49 765.986C1937.15 766.649 1936.98 767.449 1936.97 768.386ZM1962.64 781.355C1960.98 781.355 1959.48 780.929 1958.14 780.077C1956.8 779.215 1955.74 777.951 1954.96 776.284C1954.18 774.608 1953.79 772.553 1953.79 770.119C1953.79 767.619 1954.19 765.541 1955 763.884C1955.8 762.217 1956.87 760.972 1958.21 760.148C1959.55 759.314 1961.03 758.898 1962.63 758.898C1963.85 758.898 1964.87 759.106 1965.68 759.523C1966.5 759.93 1967.17 760.441 1967.67 761.057C1968.18 761.663 1968.57 762.259 1968.83 762.847H1969.02V751.909H1975.06V781H1969.09V777.506H1968.83C1968.55 778.112 1968.15 778.713 1967.63 779.31C1967.11 779.897 1966.45 780.384 1965.62 780.773C1964.81 781.161 1963.81 781.355 1962.64 781.355ZM1964.56 776.54C1965.53 776.54 1966.36 776.275 1967.03 775.744C1967.71 775.205 1968.23 774.452 1968.59 773.486C1968.96 772.52 1969.15 771.388 1969.15 770.091C1969.15 768.794 1968.97 767.667 1968.61 766.71C1968.25 765.754 1967.73 765.015 1967.04 764.494C1966.36 763.973 1965.53 763.713 1964.56 763.713C1963.56 763.713 1962.73 763.983 1962.04 764.523C1961.36 765.062 1960.85 765.811 1960.5 766.767C1960.15 767.723 1959.97 768.831 1959.97 770.091C1959.97 771.36 1960.15 772.482 1960.5 773.457C1960.86 774.423 1961.37 775.181 1962.04 775.73C1962.73 776.27 1963.56 776.54 1964.56 776.54ZM1991.5 750.545L1982.13 785.375H1976.91L1986.29 750.545H1991.5ZM2003.07 781.426C2000.87 781.426 1998.96 780.957 1997.35 780.02C1995.75 779.073 1994.51 777.757 1993.64 776.071C1992.77 774.376 1992.34 772.411 1992.34 770.176C1992.34 767.922 1992.77 765.953 1993.64 764.267C1994.51 762.572 1995.75 761.256 1997.35 760.318C1998.96 759.371 2000.87 758.898 2003.07 758.898C2005.28 758.898 2007.18 759.371 2008.78 760.318C2010.39 761.256 2011.63 762.572 2012.51 764.267C2013.38 765.953 2013.81 767.922 2013.81 770.176C2013.81 772.411 2013.38 774.376 2012.51 776.071C2011.63 777.757 2010.39 779.073 2008.78 780.02C2007.18 780.957 2005.28 781.426 2003.07 781.426ZM2003.1 776.739C2004.11 776.739 2004.94 776.455 2005.62 775.886C2006.29 775.309 2006.8 774.523 2007.14 773.528C2007.49 772.534 2007.66 771.402 2007.66 770.134C2007.66 768.865 2007.49 767.733 2007.14 766.739C2006.8 765.744 2006.29 764.958 2005.62 764.381C2004.94 763.803 2004.11 763.514 2003.1 763.514C2002.09 763.514 2001.24 763.803 2000.55 764.381C1999.86 764.958 1999.35 765.744 1999 766.739C1998.66 767.733 1998.49 768.865 1998.49 770.134C1998.49 771.402 1998.66 772.534 1999 773.528C1999.35 774.523 1999.86 775.309 2000.55 775.886C2001.24 776.455 2002.09 776.739 2003.1 776.739ZM2016.55 781V759.182H2022.41V762.989H2022.64C2023.04 761.634 2023.71 760.612 2024.64 759.92C2025.58 759.22 2026.66 758.869 2027.88 758.869C2028.19 758.869 2028.51 758.888 2028.86 758.926C2029.21 758.964 2029.52 759.016 2029.79 759.082V764.452C2029.5 764.366 2029.11 764.291 2028.61 764.224C2028.11 764.158 2027.65 764.125 2027.23 764.125C2026.34 764.125 2025.54 764.319 2024.84 764.707C2024.15 765.086 2023.6 765.616 2023.2 766.298C2022.8 766.98 2022.6 767.766 2022.6 768.656V781H2016.55Z" fill="black"/>
<rect x="2076" y="217" width="648" height="294" rx="36" stroke="#FF0800" stroke-width="8"/>
<path d="M2363.58 269.594V240.503H2375.06C2377.27 240.503 2379.15 240.924 2380.7 241.767C2382.25 242.6 2383.44 243.76 2384.25 245.247C2385.08 246.724 2385.49 248.429 2385.49 250.361C2385.49 252.293 2385.07 253.997 2384.24 255.474C2383.4 256.952 2382.2 258.102 2380.62 258.926C2379.04 259.75 2377.14 260.162 2374.9 260.162H2367.59V255.233H2373.91C2375.09 255.233 2376.07 255.029 2376.84 254.622C2377.61 254.205 2378.19 253.633 2378.57 252.903C2378.96 252.165 2379.15 251.317 2379.15 250.361C2379.15 249.395 2378.96 248.552 2378.57 247.832C2378.19 247.103 2377.61 246.54 2376.84 246.142C2376.06 245.735 2375.08 245.531 2373.88 245.531H2369.73V269.594H2363.58ZM2404.06 248.869C2403.95 247.723 2403.46 246.833 2402.6 246.199C2401.74 245.564 2400.57 245.247 2399.09 245.247C2398.09 245.247 2397.24 245.389 2396.55 245.673C2395.86 245.948 2395.33 246.331 2394.96 246.824C2394.6 247.316 2394.42 247.875 2394.42 248.5C2394.4 249.021 2394.51 249.475 2394.75 249.864C2394.99 250.252 2395.33 250.588 2395.75 250.872C2396.18 251.147 2396.67 251.388 2397.23 251.597C2397.79 251.795 2398.39 251.966 2399.02 252.108L2401.63 252.733C2402.9 253.017 2404.07 253.396 2405.13 253.869C2406.19 254.343 2407.11 254.925 2407.88 255.616C2408.66 256.308 2409.26 257.122 2409.69 258.06C2410.12 258.997 2410.35 260.072 2410.36 261.284C2410.35 263.064 2409.89 264.608 2408.99 265.915C2408.1 267.212 2406.81 268.221 2405.13 268.94C2403.45 269.651 2401.43 270.006 2399.06 270.006C2396.72 270.006 2394.67 269.646 2392.93 268.926C2391.19 268.206 2389.84 267.141 2388.86 265.73C2387.9 264.31 2387.39 262.553 2387.34 260.46H2393.3C2393.36 261.436 2393.64 262.25 2394.13 262.903C2394.64 263.547 2395.3 264.035 2396.14 264.366C2396.98 264.688 2397.93 264.849 2398.99 264.849C2400.03 264.849 2400.94 264.698 2401.71 264.395C2402.48 264.092 2403.08 263.67 2403.51 263.131C2403.94 262.591 2404.15 261.971 2404.15 261.27C2404.15 260.616 2403.95 260.067 2403.57 259.622C2403.19 259.177 2402.63 258.798 2401.89 258.486C2401.16 258.173 2400.27 257.889 2399.21 257.634L2396.04 256.838C2393.59 256.241 2391.65 255.309 2390.23 254.04C2388.81 252.771 2388.1 251.062 2388.11 248.912C2388.1 247.151 2388.57 245.612 2389.52 244.295C2390.47 242.979 2391.79 241.952 2393.45 241.213C2395.12 240.474 2397.01 240.105 2399.13 240.105C2401.29 240.105 2403.18 240.474 2404.79 241.213C2406.41 241.952 2407.67 242.979 2408.57 244.295C2409.47 245.612 2409.93 247.136 2409.96 248.869H2404.06ZM2431.26 240.503H2437.41V259.395C2437.41 261.516 2436.91 263.372 2435.89 264.963C2434.89 266.554 2433.48 267.795 2431.67 268.685C2429.87 269.565 2427.76 270.006 2425.35 270.006C2422.94 270.006 2420.83 269.565 2419.02 268.685C2417.21 267.795 2415.8 266.554 2414.8 264.963C2413.8 263.372 2413.29 261.516 2413.29 259.395V240.503H2419.44V258.869C2419.44 259.977 2419.69 260.962 2420.17 261.824C2420.66 262.686 2421.35 263.363 2422.24 263.855C2423.13 264.348 2424.17 264.594 2425.35 264.594C2426.55 264.594 2427.58 264.348 2428.46 263.855C2429.35 263.363 2430.04 262.686 2430.52 261.824C2431.02 260.962 2431.26 259.977 2431.26 258.869V240.503Z" fill="black"/>
<path d="M2127.96 308.017V287.903H2133.04V308.017H2127.96ZM2120.44 300.503V295.418H2140.56V300.503H2120.44Z" fill="#FF0900"/>
<path d="M2137.13 385.247V390.048H2123.87V385.247H2137.13Z" fill="black"/>
<path d="M2306.79 339.091V390H2296.03V349.308H2295.73L2284.07 356.616V347.07L2296.67 339.091H2306.79ZM2316.79 390V382.244L2334.91 365.465C2336.45 363.974 2337.75 362.631 2338.79 361.438C2339.85 360.245 2340.65 359.077 2341.2 357.933C2341.75 356.773 2342.02 355.522 2342.02 354.18C2342.02 352.688 2341.68 351.404 2341 350.327C2340.32 349.233 2339.39 348.396 2338.22 347.816C2337.04 347.219 2335.71 346.921 2334.22 346.921C2332.66 346.921 2331.3 347.236 2330.14 347.866C2328.98 348.496 2328.08 349.399 2327.45 350.575C2326.82 351.752 2326.51 353.152 2326.51 354.776H2316.29C2316.29 351.445 2317.05 348.554 2318.56 346.101C2320.06 343.648 2322.18 341.751 2324.89 340.408C2327.61 339.066 2330.74 338.395 2334.29 338.395C2337.94 338.395 2341.11 339.041 2343.81 340.334C2346.53 341.61 2348.64 343.383 2350.15 345.653C2351.66 347.924 2352.41 350.526 2352.41 353.459C2352.41 355.381 2352.03 357.279 2351.27 359.151C2350.52 361.024 2349.19 363.104 2347.27 365.391C2345.34 367.661 2342.63 370.387 2339.14 373.569L2331.7 380.852V381.2H2353.08V390H2316.79ZM2382.38 339.091L2394.68 377.77H2395.16L2407.49 339.091H2419.42L2401.87 390H2388L2370.42 339.091H2382.38ZM2441.49 390H2423.44V339.091H2441.64C2446.76 339.091 2451.17 340.11 2454.87 342.148C2458.56 344.17 2461.4 347.079 2463.39 350.874C2465.4 354.669 2466.4 359.209 2466.4 364.496C2466.4 369.799 2465.4 374.356 2463.39 378.168C2461.4 381.979 2458.54 384.904 2454.82 386.942C2451.1 388.981 2446.66 390 2441.49 390ZM2434.21 380.778H2441.04C2444.23 380.778 2446.9 380.214 2449.07 379.087C2451.26 377.944 2452.9 376.179 2454 373.793C2455.11 371.39 2455.66 368.291 2455.66 364.496C2455.66 360.734 2455.11 357.66 2454 355.273C2452.9 352.887 2451.27 351.13 2449.1 350.004C2446.93 348.877 2444.25 348.313 2441.07 348.313H2434.21V380.778ZM2517.19 356.914H2506.3C2506.1 355.505 2505.7 354.254 2505.08 353.161C2504.47 352.05 2503.68 351.106 2502.72 350.327C2501.76 349.548 2500.65 348.951 2499.39 348.537C2498.15 348.123 2496.8 347.915 2495.34 347.915C2492.71 347.915 2490.41 348.57 2488.45 349.879C2486.5 351.172 2484.98 353.061 2483.91 355.547C2482.83 358.016 2482.29 361.016 2482.29 364.545C2482.29 368.175 2482.83 371.224 2483.91 373.693C2485 376.162 2486.52 378.027 2488.48 379.286C2490.44 380.546 2492.7 381.175 2495.27 381.175C2496.71 381.175 2498.04 380.985 2499.27 380.604C2500.51 380.223 2501.61 379.667 2502.57 378.938C2503.54 378.192 2504.33 377.289 2504.96 376.229C2505.61 375.168 2506.05 373.958 2506.3 372.599L2517.19 372.649C2516.91 374.986 2516.2 377.24 2515.08 379.411C2513.97 381.565 2512.47 383.496 2510.58 385.202C2508.71 386.893 2506.47 388.235 2503.87 389.229C2501.28 390.207 2498.36 390.696 2495.09 390.696C2490.55 390.696 2486.49 389.669 2482.91 387.614C2479.35 385.559 2476.53 382.584 2474.46 378.69C2472.4 374.795 2471.38 370.08 2471.38 364.545C2471.38 358.994 2472.42 354.271 2474.51 350.376C2476.6 346.482 2479.43 343.516 2483.01 341.477C2486.59 339.422 2490.62 338.395 2495.09 338.395C2498.04 338.395 2500.78 338.809 2503.3 339.638C2505.83 340.466 2508.08 341.676 2510.03 343.267C2511.99 344.841 2513.58 346.772 2514.8 349.059C2516.05 351.346 2516.84 353.964 2517.19 356.914Z" fill="#FF0900"/>
<rect x="503" y="614" width="805" height="703" stroke="#FF8200" stroke-width="6" stroke-linecap="round" stroke-linejoin="round"/>
<rect x="104" y="284" width="1451" height="1195" rx="5" stroke="#FF8200" stroke-width="10" stroke-linecap="round" stroke-linejoin="round"/>
<rect x="796" y="778" width="357" height="351" stroke="#FF8200" stroke-width="6" stroke-linecap="round" stroke-dasharray="2 8 2 8"/>
<rect x="882" y="920" width="118" height="118" stroke="#FF8200" stroke-width="3" stroke-linecap="round" stroke-linejoin="round"/>
<rect x="817" y="790" width="133" height="118" stroke="#FF8200" stroke-width="3" stroke-linecap="round" stroke-linejoin="round"/>
<rect x="1018" y="840" width="73" height="68" stroke="#FF8200" stroke-width="3" stroke-linecap="round" stroke-linejoin="round"/>
<rect x="1018" y="970" width="102" height="145" stroke="#FF8200" stroke-width="3" stroke-linecap="round" stroke-linejoin="round"/>
<circle cx="543" cy="653" r="19.5" stroke="#FF8200" stroke-width="3"/>
<circle cx="543" cy="1278" r="19.5" stroke="#FF8200" stroke-width="3"/>
<circle cx="1274" cy="653" r="19.5" stroke="#FF8200" stroke-width="3"/>
<circle cx="1274" cy="1278" r="19.5" stroke="#FF8200" stroke-width="3"/>
<path d="M298 1512V1433.5H399V1512L381.5 1529.5H315.5L298 1512Z" fill="#FF8200"/>
<path d="M445 1512V1433.5H546V1512L528.5 1529.5H462.5L445 1512Z" fill="#FF8200"/>
<path d="M592 1512.5V1434H693V1512.5L675.5 1530H609.5L592 1512.5Z" fill="#FF8200"/>
<path d="M739 1512.5V1434H840V1512.5L822.5 1530H756.5L739 1512.5Z" fill="#FF8200"/>
<path d="M128 1512V1428H250V1512L232.5 1529.5H145.5L128 1512Z" fill="#FF8200"/>
<rect x="1143" y="1482" width="165" height="96" rx="4" fill="#FF8200"/>
<rect x="922" y="1482" width="133" height="105" rx="4" fill="#FF8200"/>
<rect x="1289" y="533" width="77" height="67" rx="4" fill="#FF8200"/>
<rect x="1435" y="387" width="120" height="105" rx="4" fill="#FF8200"/>
<rect x="1201" y="533" width="77" height="67" rx="4" fill="#FF8200"/>
<rect x="189" y="284" width="147" height="150" rx="4" fill="#FF8200"/>
<rect x="864" y="262" width="77" height="67" rx="4" fill="#FF8200"/>
<rect x="360" y="262" width="77" height="67" rx="4" fill="#FF8200"/>
<rect x="360" y="390" width="77" height="67" rx="4" fill="#FF8200"/>
<rect x="978" y="262" width="77" height="67" rx="4" fill="#FF8200"/>
<rect x="1104" y="262" width="77" height="67" rx="4" fill="#FF8200"/>
<rect x="1478" y="1190" width="58" height="79" rx="4" fill="#FF8200"/>
<rect x="1485" y="1479" width="58" height="20" rx="4" fill="#FF8200"/>
<rect x="1360" y="1478" width="58" height="21" rx="4" fill="#FF8200"/>
<rect x="1374" y="1493" width="30" height="21" rx="4" fill="#FF8200"/>
<rect x="1499" y="1493" width="30" height="21" rx="4" fill="#FF8200"/>
<rect x="1233" y="283" width="146" height="157" rx="4" fill="#FF8200"/>
<rect x="922" y="533" width="250" height="67" rx="4" fill="#FF8200"/>
<rect x="555" y="500" width="337" height="100" rx="4" fill="#FF8200"/>
<rect x="138" y="467" width="284" height="100" rx="4" fill="#FF8200"/>
<rect x="153" y="1043" width="284" height="100" rx="4" fill="#FF8200"/>
<rect x="445" y="246" width="317" height="100" rx="4" fill="#FF8200"/>
<rect x="1406.5" y="1358.5" width="48" height="24" rx="2.5" fill="black" stroke="#FF8200" stroke-width="3"/>
<path d="M1413.29 1378V1363.45H1416.37V1375.46H1422.6V1378H1413.29ZM1424.04 1378V1363.45H1433.84V1365.99H1427.11V1369.46H1433.34V1371.99H1427.11V1375.46H1433.87V1378H1424.04ZM1440.84 1378H1435.69V1363.45H1440.88C1442.35 1363.45 1443.61 1363.75 1444.66 1364.33C1445.72 1364.91 1446.53 1365.74 1447.1 1366.82C1447.67 1367.91 1447.96 1369.2 1447.96 1370.71C1447.96 1372.23 1447.67 1373.53 1447.1 1374.62C1446.53 1375.71 1445.71 1376.54 1444.65 1377.13C1443.59 1377.71 1442.32 1378 1440.84 1378ZM1438.76 1375.37H1440.71C1441.62 1375.37 1442.39 1375.2 1443.01 1374.88C1443.63 1374.56 1444.1 1374.05 1444.41 1373.37C1444.73 1372.68 1444.89 1371.8 1444.89 1370.71C1444.89 1369.64 1444.73 1368.76 1444.41 1368.08C1444.1 1367.4 1443.64 1366.89 1443.02 1366.57C1442.39 1366.25 1441.63 1366.09 1440.72 1366.09H1438.76V1375.37Z" fill="white"/>
<circle cx="148" cy="325" r="17" stroke="#FF8200" stroke-width="6"/>
<circle cx="148" cy="1325" r="17" stroke="#FF8200" stroke-width="6"/>
<circle cx="1513" cy="325" r="17" stroke="#FF8200" stroke-width="6"/>
<circle cx="1513" cy="1325" r="17" stroke="#FF8200" stroke-width="6"/>
<path d="M1467.36 425.909L1473.23 435.824H1473.45L1479.35 425.909H1486.29L1477.42 440.455L1486.49 455H1479.42L1473.45 445.071H1473.23L1467.26 455H1460.21L1469.32 440.455L1460.38 425.909H1467.36ZM1488.81 455V450.568L1499.17 440.98C1500.05 440.128 1500.79 439.361 1501.39 438.679C1501.99 437.997 1502.45 437.33 1502.76 436.676C1503.08 436.013 1503.23 435.298 1503.23 434.531C1503.23 433.679 1503.04 432.945 1502.65 432.33C1502.26 431.705 1501.73 431.226 1501.06 430.895C1500.39 430.554 1499.62 430.384 1498.77 430.384C1497.88 430.384 1497.11 430.563 1496.44 430.923C1495.78 431.283 1495.27 431.799 1494.91 432.472C1494.55 433.144 1494.37 433.944 1494.37 434.872H1488.53C1488.53 432.969 1488.96 431.316 1489.82 429.915C1490.69 428.513 1491.89 427.429 1493.45 426.662C1495 425.895 1496.79 425.511 1498.81 425.511C1500.9 425.511 1502.71 425.881 1504.26 426.619C1505.81 427.348 1507.02 428.362 1507.88 429.659C1508.74 430.956 1509.17 432.443 1509.17 434.119C1509.17 435.218 1508.95 436.302 1508.52 437.372C1508.09 438.442 1507.33 439.631 1506.23 440.938C1505.13 442.235 1503.58 443.793 1501.58 445.611L1497.34 449.773V449.972H1509.55V455H1488.81ZM1511.74 449.886V445.043L1523.89 425.909H1528.07V432.614H1525.59L1517.94 444.73V444.957H1535.2V449.886H1511.74ZM1525.71 455V448.409L1525.82 446.264V425.909H1531.59V455H1525.71Z" fill="white"/>
<path d="M1196.38 1515.91L1202.24 1525.82H1202.47L1208.37 1515.91H1215.31L1206.44 1530.45L1215.51 1545H1208.44L1202.47 1535.07H1202.24L1196.28 1545H1189.23L1198.34 1530.45L1189.4 1515.91H1196.38ZM1217.83 1545V1540.57L1228.19 1530.98C1229.07 1530.13 1229.81 1529.36 1230.41 1528.68C1231.01 1528 1231.47 1527.33 1231.78 1526.68C1232.1 1526.01 1232.25 1525.3 1232.25 1524.53C1232.25 1523.68 1232.06 1522.95 1231.67 1522.33C1231.28 1521.7 1230.75 1521.23 1230.08 1520.89C1229.41 1520.55 1228.64 1520.38 1227.79 1520.38C1226.9 1520.38 1226.13 1520.56 1225.46 1520.92C1224.8 1521.28 1224.29 1521.8 1223.93 1522.47C1223.57 1523.14 1223.39 1523.94 1223.39 1524.87H1217.55C1217.55 1522.97 1217.98 1521.32 1218.84 1519.91C1219.7 1518.51 1220.91 1517.43 1222.47 1516.66C1224.02 1515.89 1225.81 1515.51 1227.83 1515.51C1229.92 1515.51 1231.73 1515.88 1233.27 1516.62C1234.83 1517.35 1236.04 1518.36 1236.9 1519.66C1237.76 1520.96 1238.19 1522.44 1238.19 1524.12C1238.19 1525.22 1237.97 1526.3 1237.54 1527.37C1237.11 1528.44 1236.35 1529.63 1235.25 1530.94C1234.15 1532.23 1232.6 1533.79 1230.6 1535.61L1226.36 1539.77V1539.97H1238.57V1545H1217.83ZM1252.68 1545.4C1250.49 1545.4 1248.55 1545.04 1246.84 1544.33C1245.15 1543.61 1243.82 1542.63 1242.85 1541.39C1241.89 1540.15 1241.4 1538.75 1241.4 1537.17C1241.4 1535.96 1241.68 1534.85 1242.23 1533.84C1242.79 1532.81 1243.54 1531.96 1244.5 1531.29C1245.46 1530.61 1246.53 1530.18 1247.71 1529.99V1529.79C1246.16 1529.47 1244.9 1528.72 1243.93 1527.53C1242.97 1526.33 1242.48 1524.93 1242.48 1523.34C1242.48 1521.83 1242.92 1520.49 1243.8 1519.32C1244.68 1518.13 1245.89 1517.21 1247.43 1516.53C1248.97 1515.85 1250.72 1515.51 1252.68 1515.51C1254.64 1515.51 1256.39 1515.85 1257.92 1516.53C1259.47 1517.22 1260.68 1518.15 1261.56 1519.33C1262.44 1520.51 1262.89 1521.84 1262.9 1523.34C1262.89 1524.94 1262.39 1526.34 1261.42 1527.53C1260.44 1528.72 1259.19 1529.47 1257.67 1529.79V1529.99C1258.83 1530.18 1259.89 1530.61 1260.84 1531.29C1261.79 1531.96 1262.55 1532.81 1263.11 1533.84C1263.68 1534.85 1263.97 1535.96 1263.97 1537.17C1263.97 1538.75 1263.48 1540.15 1262.51 1541.39C1261.55 1542.63 1260.21 1543.61 1258.51 1544.33C1256.81 1545.04 1254.87 1545.4 1252.68 1545.4ZM1252.68 1540.88C1253.66 1540.88 1254.51 1540.71 1255.24 1540.36C1255.97 1540 1256.54 1539.5 1256.94 1538.88C1257.36 1538.24 1257.57 1537.51 1257.57 1536.69C1257.57 1535.85 1257.36 1535.1 1256.93 1534.46C1256.5 1533.81 1255.93 1533.3 1255.2 1532.93C1254.47 1532.55 1253.63 1532.36 1252.68 1532.36C1251.74 1532.36 1250.91 1532.55 1250.17 1532.93C1249.43 1533.3 1248.85 1533.81 1248.42 1534.46C1248 1535.1 1247.8 1535.85 1247.8 1536.69C1247.8 1537.51 1248 1538.24 1248.41 1538.88C1248.81 1539.5 1249.39 1540 1250.13 1540.36C1250.86 1540.71 1251.72 1540.88 1252.68 1540.88ZM1252.68 1527.88C1253.5 1527.88 1254.22 1527.72 1254.86 1527.39C1255.49 1527.05 1255.99 1526.6 1256.35 1526.01C1256.71 1525.42 1256.89 1524.74 1256.89 1523.98C1256.89 1523.22 1256.71 1522.56 1256.35 1521.99C1255.99 1521.41 1255.49 1520.96 1254.87 1520.64C1254.24 1520.31 1253.52 1520.14 1252.68 1520.14C1251.86 1520.14 1251.13 1520.31 1250.49 1520.64C1249.86 1520.96 1249.36 1521.41 1249 1521.99C1248.65 1522.56 1248.48 1523.22 1248.48 1523.98C1248.48 1524.74 1248.66 1525.42 1249.02 1526.01C1249.38 1526.6 1249.87 1527.05 1250.51 1527.39C1251.14 1527.72 1251.87 1527.88 1252.68 1527.88Z" fill="white"/>
<path d="M615.691 1467.91L621.557 1477.82H621.785L627.679 1467.91H634.625L625.748 1482.45L634.824 1497H627.75L621.785 1487.07H621.557L615.591 1497H608.546L617.651 1482.45L608.716 1467.91H615.691ZM649.803 1467.91V1497H643.653V1473.75H643.482L636.82 1477.92V1472.47L644.022 1467.91H649.803ZM666.37 1497.4C664.182 1497.4 662.236 1497.04 660.532 1496.33C658.836 1495.61 657.506 1494.63 656.54 1493.39C655.574 1492.15 655.091 1490.75 655.091 1489.17C655.091 1487.96 655.366 1486.85 655.915 1485.84C656.474 1484.81 657.231 1483.96 658.188 1483.29C659.144 1482.61 660.214 1482.18 661.398 1481.99V1481.79C659.845 1481.47 658.586 1480.72 657.62 1479.53C656.654 1478.33 656.171 1476.93 656.171 1475.34C656.171 1473.83 656.611 1472.49 657.492 1471.32C658.372 1470.13 659.58 1469.21 661.114 1468.53C662.657 1467.85 664.409 1467.51 666.37 1467.51C668.33 1467.51 670.077 1467.85 671.611 1468.53C673.155 1469.22 674.367 1470.15 675.247 1471.33C676.128 1472.51 676.573 1473.84 676.583 1475.34C676.573 1476.94 676.081 1478.34 675.105 1479.53C674.13 1480.72 672.88 1481.47 671.355 1481.79V1481.99C672.52 1482.18 673.576 1482.61 674.523 1483.29C675.479 1483.96 676.237 1484.81 676.796 1485.84C677.364 1486.85 677.653 1487.96 677.662 1489.17C677.653 1490.75 677.165 1492.15 676.199 1493.39C675.233 1494.63 673.898 1495.61 672.193 1496.33C670.498 1497.04 668.557 1497.4 666.37 1497.4ZM666.37 1492.88C667.345 1492.88 668.197 1492.71 668.926 1492.36C669.656 1492 670.224 1491.5 670.631 1490.88C671.048 1490.24 671.256 1489.51 671.256 1488.69C671.256 1487.85 671.043 1487.1 670.617 1486.46C670.191 1485.81 669.613 1485.3 668.884 1484.93C668.155 1484.55 667.317 1484.36 666.37 1484.36C665.432 1484.36 664.594 1484.55 663.855 1484.93C663.117 1485.3 662.534 1485.81 662.108 1486.46C661.692 1487.1 661.483 1487.85 661.483 1488.69C661.483 1489.51 661.687 1490.24 662.094 1490.88C662.501 1491.5 663.074 1492 663.813 1492.36C664.551 1492.71 665.404 1492.88 666.37 1492.88ZM666.37 1479.88C667.184 1479.88 667.908 1479.72 668.543 1479.39C669.177 1479.05 669.675 1478.6 670.034 1478.01C670.394 1477.42 670.574 1476.74 670.574 1475.98C670.574 1475.22 670.394 1474.56 670.034 1473.99C669.675 1473.41 669.182 1472.96 668.557 1472.64C667.932 1472.31 667.203 1472.14 666.37 1472.14C665.546 1472.14 664.817 1472.31 664.182 1472.64C663.548 1472.96 663.05 1473.41 662.691 1473.99C662.34 1474.56 662.165 1475.22 662.165 1475.98C662.165 1476.74 662.345 1477.42 662.705 1478.01C663.065 1478.6 663.562 1479.05 664.196 1479.39C664.831 1479.72 665.555 1479.88 666.37 1479.88Z" fill="white"/>
<path d="M1311.7 552.909L1317.57 562.824H1317.8L1323.69 552.909H1330.64L1321.76 567.455L1330.84 582H1323.76L1317.8 572.071H1317.57L1311.6 582H1304.56L1313.66 567.455L1304.73 552.909H1311.7ZM1334.31 582L1346.37 558.136V557.938H1332.32V552.909H1352.73V558.009L1340.66 582H1334.31Z" fill="white"/>
<defs>
<filter id="filter0_d_304_1502" x="1660.66" y="132.05" width="171.527" height="171.528" filterUnits="userSpaceOnUse" color-interpolation-filters="sRGB">
<feFlood flood-opacity="0" result="BackgroundImageFix"/>
<feColorMatrix in="SourceAlpha" type="matrix" values="0 0 0 0 0 0 0 0 0 0 0 0 0 0 0 0 0 0 127 0" result="hardAlpha"/>
<feOffset dy="4"/>
<feGaussianBlur stdDeviation="2"/>
<feComposite in2="hardAlpha" operator="out"/>
<feColorMatrix type="matrix" values="0 0 0 0 0 0 0 0 0 0 0 0 0 0 0 0 0 0 0.25 0"/>
<feBlend mode="normal" in2="BackgroundImageFix" result="effect1_dropShadow_304_1502"/>
<feBlend mode="normal" in="SourceGraphic" in2="effect1_dropShadow_304_1502" result="shape"/>
</filter>
<filter id="filter1_d_304_1502" x="1632.07" y="270.604" width="227.52" height="227.52" filterUnits="userSpaceOnUse" color-interpolation-filters="sRGB">
<feFlood flood-opacity="0" result="BackgroundImageFix"/>
<feColorMatrix in="SourceAlpha" type="matrix" values="0 0 0 0 0 0 0 0 0 0 0 0 0 0 0 0 0 0 127 0" result="hardAlpha"/>
<feOffset dy="4"/>
<feGaussianBlur stdDeviation="2"/>
<feComposite in2="hardAlpha" operator="out"/>
<feColorMatrix type="matrix" values="0 0 0 0 0 0 0 0 0 0 0 0 0 0 0 0 0 0 0.25 0"/>
<feBlend mode="normal" in2="BackgroundImageFix" result="effect1_dropShadow_304_1502"/>
<feBlend mode="normal" in="SourceGraphic" in2="effect1_dropShadow_304_1502" result="shape"/>
</filter>
<filter id="filter2_d_304_1502" x="922.098" y="1661.96" width="201.751" height="201.751" filterUnits="userSpaceOnUse" color-interpolation-filters="sRGB">
<feFlood flood-opacity="0" result="BackgroundImageFix"/>
<feColorMatrix in="SourceAlpha" type="matrix" values="0 0 0 0 0 0 0 0 0 0 0 0 0 0 0 0 0 0 127 0" result="hardAlpha"/>
<feOffset dy="4"/>
<feGaussianBlur stdDeviation="2"/>
<feComposite in2="hardAlpha" operator="out"/>
<feColorMatrix type="matrix" values="0 0 0 0 0 0 0 0 0 0 0 0 0 0 0 0 0 0 0.25 0"/>
<feBlend mode="normal" in2="BackgroundImageFix" result="effect1_dropShadow_304_1502"/>
<feBlend mode="normal" in="SourceGraphic" in2="effect1_dropShadow_304_1502" result="shape"/>
</filter>
<filter id="filter3_d_304_1502" x="347.074" y="1627.18" width="170.521" height="170.521" filterUnits="userSpaceOnUse" color-interpolation-filters="sRGB">
<feFlood flood-opacity="0" result="BackgroundImageFix"/>
<feColorMatrix in="SourceAlpha" type="matrix" values="0 0 0 0 0 0 0 0 0 0 0 0 0 0 0 0 0 0 127 0" result="hardAlpha"/>
<feOffset dy="4"/>
<feGaussianBlur stdDeviation="2"/>
<feComposite in2="hardAlpha" operator="out"/>
<feColorMatrix type="matrix" values="0 0 0 0 0 0 0 0 0 0 0 0 0 0 0 0 0 0 0.25 0"/>
<feBlend mode="normal" in2="BackgroundImageFix" result="effect1_dropShadow_304_1502"/>
<feBlend mode="normal" in="SourceGraphic" in2="effect1_dropShadow_304_1502" result="shape"/>
</filter>
<filter id="filter4_d_304_1502" x="2257.75" y="1427.06" width="65.4023" height="65.4023" filterUnits="userSpaceOnUse" color-interpolation-filters="sRGB">
<feFlood flood-opacity="0" result="BackgroundImageFix"/>
<feColorMatrix in="SourceAlpha" type="matrix" values="0 0 0 0 0 0 0 0 0 0 0 0 0 0 0 0 0 0 127 0" result="hardAlpha"/>
<feOffset dy="4"/>
<feGaussianBlur stdDeviation="2"/>
<feComposite in2="hardAlpha" operator="out"/>
<feColorMatrix type="matrix" values="0 0 0 0 0 0 0 0 0 0 0 0 0 0 0 0 0 0 0.25 0"/>
<feBlend mode="normal" in2="BackgroundImageFix" result="effect1_dropShadow_304_1502"/>
<feBlend mode="normal" in="SourceGraphic" in2="effect1_dropShadow_304_1502" result="shape"/>
</filter>
<filter id="filter5_d_304_1502" x="2244.52" y="1610.08" width="87.4695" height="87.4697" filterUnits="userSpaceOnUse" color-interpolation-filters="sRGB">
<feFlood flood-opacity="0" result="BackgroundImageFix"/>
<feColorMatrix in="SourceAlpha" type="matrix" values="0 0 0 0 0 0 0 0 0 0 0 0 0 0 0 0 0 0 127 0" result="hardAlpha"/>
<feOffset dy="4"/>
<feGaussianBlur stdDeviation="2"/>
<feComposite in2="hardAlpha" operator="out"/>
<feColorMatrix type="matrix" values="0 0 0 0 0 0 0 0 0 0 0 0 0 0 0 0 0 0 0.25 0"/>
<feBlend mode="normal" in2="BackgroundImageFix" result="effect1_dropShadow_304_1502"/>
<feBlend mode="normal" in="SourceGraphic" in2="effect1_dropShadow_304_1502" result="shape"/>
</filter>
</defs>
</svg>
