<svg width="2650" height="1898" viewBox="0 0 2650 1898" fill="none" xmlns="http://www.w3.org/2000/svg">
<path d="M1424 507.997L1232 507.997" stroke="#FF8200" stroke-width="10" stroke-linecap="round"/>
<path d="M562 1508H615.758V1893.5H1953V1582.5" stroke="#002FFF" stroke-width="9" stroke-linecap="round"/>
<path d="M2061 293.997H1806V426.997H1432.5V383.997" stroke="#FF0800" stroke-width="9" stroke-linecap="round"/>
<path d="M2062 309.997H1822.5V449.497H1398.5V386.497" stroke="black" stroke-width="9" stroke-linecap="round"/>
<path d="M1140 1530.5H1854.89V845.997H2052.5M1523.5 508.997H1854.89V579.997H2052.5" stroke="#00AC00" stroke-width="9" stroke-linecap="round"/>
<rect x="1505.31" y="282.843" width="400" height="60" rx="30" transform="rotate(-45 1505.31 282.843)" fill="#FF8200"/>
<g filter="url(#filter0_d_378_635)">
<path d="M1592 218.652L1603.15 221.514L1603.31 221.353L1600.47 210.174L1605.38 205.263L1609.39 221.825L1626.1 225.692L1621.09 230.694L1609.85 227.892L1609.69 228.053L1612.5 239.292L1607.51 244.274L1603.67 227.551L1587.06 223.583L1592 218.652ZM1627.74 224.05L1624.6 220.916L1625.15 206.814C1625.17 205.589 1625.15 204.524 1625.09 203.62C1625.03 202.71 1624.88 201.913 1624.64 201.23C1624.4 200.54 1624 199.924 1623.46 199.382C1622.86 198.779 1622.2 198.397 1621.49 198.237C1620.77 198.069 1620.06 198.106 1619.35 198.347C1618.63 198.581 1617.97 199 1617.37 199.603C1616.74 200.232 1616.32 200.908 1616.11 201.632C1615.89 202.355 1615.9 203.081 1616.12 203.811C1616.34 204.541 1616.78 205.234 1617.43 205.89L1613.3 210.018C1611.96 208.672 1611.09 207.199 1610.71 205.599C1610.33 203.999 1610.42 202.378 1610.97 200.738C1611.53 199.097 1612.52 197.56 1613.96 196.127C1615.43 194.654 1616.97 193.633 1618.59 193.064C1620.2 192.481 1621.77 192.344 1623.3 192.652C1624.82 192.96 1626.18 193.707 1627.37 194.892C1628.14 195.669 1628.76 196.589 1629.2 197.654C1629.66 198.712 1629.96 200.091 1630.11 201.792C1630.25 203.486 1630.26 205.683 1630.13 208.381L1630.07 214.327L1630.21 214.468L1638.85 205.83L1642.4 209.386L1627.74 224.05ZM1640.34 204.22L1636.91 200.795L1631.97 178.678L1634.92 175.725L1639.66 180.466L1637.91 182.214L1641.07 196.195L1641.23 196.356L1653.43 184.152L1656.92 187.637L1640.34 204.22ZM1653.82 197.963L1649.16 193.302L1647.73 191.705L1633.33 177.312L1637.41 173.234L1657.98 193.804L1653.82 197.963ZM1668.4 183.386L1647.83 162.815L1655.95 154.7C1657.51 153.14 1659.13 152.108 1660.83 151.606C1662.52 151.097 1664.17 151.081 1665.8 151.556C1667.43 152.018 1668.92 152.932 1670.29 154.298C1671.66 155.664 1672.57 157.164 1673.02 158.798C1673.48 160.432 1673.44 162.099 1672.9 163.8C1672.37 165.494 1671.32 167.131 1669.74 168.711L1664.56 173.884L1661.08 170.399L1665.55 165.929C1666.39 165.092 1666.93 164.258 1667.19 163.428C1667.44 162.584 1667.44 161.771 1667.2 160.987C1666.95 160.191 1666.49 159.454 1665.81 158.778C1665.13 158.095 1664.39 157.636 1663.61 157.402C1662.83 157.154 1662.02 157.164 1661.19 157.432C1660.35 157.693 1659.51 158.245 1658.67 159.089L1655.74 162.022L1672.75 179.037L1668.4 183.386ZM1692.81 159.581C1691.25 161.141 1689.57 162.159 1687.77 162.634C1685.97 163.096 1684.16 163.04 1682.35 162.464C1680.54 161.881 1678.84 160.8 1677.26 159.219C1675.67 157.626 1674.58 155.925 1674.01 154.117C1673.42 152.302 1673.37 150.498 1673.84 148.703C1674.3 146.895 1675.32 145.211 1676.88 143.651C1678.44 142.091 1680.12 141.08 1681.92 140.618C1683.72 140.142 1685.53 140.196 1687.35 140.778C1689.15 141.354 1690.85 142.439 1692.45 144.033C1694.03 145.613 1695.11 147.31 1695.69 149.125C1696.27 150.933 1696.32 152.741 1695.85 154.549C1695.38 156.343 1694.37 158.021 1692.81 159.581ZM1689.51 156.246C1690.22 155.537 1690.62 154.743 1690.69 153.866C1690.76 152.982 1690.56 152.068 1690.1 151.124C1689.64 150.173 1688.97 149.249 1688.07 148.352C1687.17 147.454 1686.25 146.778 1685.3 146.323C1684.35 145.861 1683.44 145.663 1682.55 145.73C1681.67 145.797 1680.87 146.185 1680.16 146.895C1679.45 147.612 1679.05 148.419 1678.97 149.316C1678.89 150.206 1679.09 151.127 1679.54 152.078C1680 153.022 1680.68 153.943 1681.58 154.84C1682.48 155.737 1683.4 156.417 1684.34 156.879C1685.29 157.334 1686.21 157.525 1687.1 157.452C1687.99 157.365 1688.8 156.963 1689.51 156.246ZM1704.69 147.096L1685.07 135.867L1689.39 131.538L1702.15 139.513L1702.29 139.372L1694.42 126.516L1698.67 122.267L1711.5 130.041L1711.63 129.91L1703.68 117.255L1708 112.936L1719.24 132.552L1714.71 137.082L1702.35 130.031L1702.16 130.222L1709.21 142.576L1704.69 147.096ZM1731.8 120.587C1730.22 122.174 1728.53 123.218 1726.74 123.721C1724.95 124.209 1723.16 124.169 1721.36 123.6C1719.55 123.024 1717.83 121.923 1716.2 120.295C1714.62 118.709 1713.53 117.008 1712.95 115.193C1712.37 113.378 1712.3 111.577 1712.75 109.789C1713.21 107.995 1714.19 106.341 1715.7 104.828C1716.72 103.81 1717.83 103.026 1719.04 102.477C1720.24 101.915 1721.5 101.63 1722.8 101.623C1724.12 101.61 1725.45 101.911 1726.8 102.527C1728.15 103.137 1729.48 104.098 1730.79 105.41L1731.96 106.585L1718.94 119.612L1716.29 116.961L1725.28 107.961C1724.67 107.345 1723.99 106.933 1723.25 106.726C1722.5 106.518 1721.76 106.518 1721.02 106.726C1720.27 106.92 1719.59 107.329 1718.97 107.951C1718.32 108.601 1717.89 109.327 1717.69 110.131C1717.49 110.921 1717.5 111.708 1717.72 112.491C1717.94 113.268 1718.34 113.964 1718.95 114.58L1721.47 117.101C1722.23 117.865 1723.03 118.384 1723.87 118.658C1724.71 118.926 1725.55 118.95 1726.37 118.729C1727.19 118.508 1727.96 118.039 1728.68 117.322C1729.16 116.847 1729.52 116.345 1729.78 115.816C1730.05 115.287 1730.18 114.748 1730.2 114.199C1730.21 113.65 1730.1 113.107 1729.85 112.572L1734.07 108.875C1734.82 110.027 1735.24 111.269 1735.33 112.602C1735.42 113.921 1735.17 115.267 1734.59 116.639C1734 117.999 1733.08 119.315 1731.8 120.587ZM1740.53 111.261L1725.1 95.8328L1729.25 91.6846L1731.94 94.3764L1732.1 94.2157C1731.42 92.9769 1731.17 91.7817 1731.35 90.63C1731.51 89.4715 1732.03 88.4604 1732.89 87.5966C1733.11 87.3823 1733.35 87.1647 1733.63 86.9438C1733.9 86.7228 1734.16 86.542 1734.39 86.4014L1738.19 90.1981C1737.93 90.3387 1737.59 90.563 1737.19 90.871C1736.79 91.179 1736.44 91.4804 1736.15 91.775C1735.52 92.4044 1735.09 93.1042 1734.87 93.8742C1734.65 94.6309 1734.64 95.3942 1734.83 96.1643C1735.03 96.9276 1735.45 97.624 1736.08 98.2534L1744.81 106.982L1740.53 111.261Z" fill="white"/>
</g>
<path d="M1579.38 286.205L1526.04 339.542C1525.11 340.479 1523.83 341.006 1522.51 341.006L1423.29 341.006" stroke="#FF8200" stroke-width="10" stroke-linecap="round"/>
<rect x="1505.3" y="449.692" width="400" height="60" rx="30" transform="rotate(-45 1505.3 449.692)" fill="#FF8200"/>
<g filter="url(#filter1_d_378_635)">
<path d="M1564.3 413.197L1575.46 416.06L1575.62 415.899L1572.78 404.72L1577.69 399.808L1581.7 416.371L1598.4 420.238L1593.4 425.24L1582.16 422.438L1582 422.598L1584.8 433.838L1579.82 438.82L1575.97 422.096L1559.37 418.129L1564.3 413.197ZM1600.85 417.782L1592.51 392.38L1592.37 392.24L1582.43 402.173L1578.88 398.618L1593.31 384.184L1596.92 387.79L1605.34 413.292L1600.85 417.782ZM1621.75 396.885L1606.32 381.457L1610.6 377.178L1626.03 392.606L1621.75 396.885ZM1606.48 377.319C1605.85 377.955 1605.09 378.29 1604.21 378.323C1603.34 378.343 1602.6 378.055 1602.01 377.459C1601.42 376.87 1601.13 376.14 1601.16 375.27C1601.19 374.386 1601.52 373.626 1602.16 372.99C1602.79 372.354 1603.55 372.026 1604.43 372.006C1605.3 371.972 1606.04 372.25 1606.63 372.839C1607.22 373.435 1607.51 374.175 1607.48 375.059C1607.45 375.929 1607.12 376.683 1606.48 377.319ZM1631.37 387.787C1630.71 388.45 1629.91 388.785 1628.96 388.792C1628.02 388.785 1627.21 388.45 1626.55 387.787C1625.89 387.131 1625.57 386.334 1625.57 385.397C1625.57 384.452 1625.91 383.649 1626.57 382.986C1627.21 382.343 1628.01 382.015 1628.96 382.002C1629.91 381.988 1630.72 382.31 1631.37 382.966C1631.81 383.408 1632.11 383.927 1632.25 384.523C1632.39 385.105 1632.39 385.688 1632.25 386.27C1632.1 386.846 1631.81 387.352 1631.37 387.787ZM1615.7 361.8L1621.06 356.437L1640.54 364.593L1640.79 364.351L1632.63 344.866L1637.99 339.502L1658.56 360.073L1654.35 364.291L1640.96 350.902L1640.79 351.073L1648.75 369.685L1645.88 372.558L1627.22 364.542L1627.05 364.713L1640.48 378.152L1636.27 382.371L1615.7 361.8ZM1644.81 332.69L1655.97 335.552L1656.13 335.392L1653.28 324.212L1658.2 319.301L1662.2 335.864L1678.91 339.731L1673.9 344.733L1662.66 341.93L1662.5 342.091L1665.31 353.33L1660.32 358.312L1656.48 341.589L1639.87 337.621L1644.81 332.69ZM1667.14 309.794C1668.2 308.736 1669.39 307.896 1670.73 307.273C1672.06 306.643 1673.51 306.332 1675.05 306.339C1676.61 306.339 1678.25 306.757 1679.99 307.594C1681.72 308.418 1683.52 309.757 1685.39 311.612C1687.14 313.36 1688.5 315.117 1689.48 316.885C1690.46 318.639 1691.06 320.36 1691.29 322.048C1691.51 323.735 1691.36 325.346 1690.83 326.879C1690.3 328.406 1689.39 329.805 1688.12 331.077C1686.75 332.45 1685.27 333.398 1683.69 333.92C1682.11 334.435 1680.53 334.556 1678.97 334.281C1677.41 333.994 1675.99 333.341 1674.7 332.323L1678.99 328.034C1679.91 328.617 1680.84 328.848 1681.79 328.727C1682.74 328.6 1683.61 328.141 1684.4 327.351C1685.73 326.012 1686.17 324.411 1685.7 322.55C1685.23 320.682 1683.97 318.726 1681.94 316.684L1681.8 316.825C1682.1 317.735 1682.2 318.67 1682.12 319.627C1682.02 320.578 1681.75 321.509 1681.31 322.419C1680.88 323.323 1680.28 324.154 1679.52 324.91C1678.31 326.122 1676.95 326.919 1675.43 327.301C1673.91 327.682 1672.37 327.649 1670.83 327.2C1669.28 326.752 1667.87 325.888 1666.59 324.609C1665.2 323.236 1664.29 321.689 1663.86 319.969C1663.42 318.248 1663.47 316.507 1664.02 314.746C1664.56 312.971 1665.6 311.321 1667.14 309.794ZM1670.58 313.179C1669.91 313.855 1669.47 314.618 1669.26 315.469C1669.06 316.313 1669.07 317.16 1669.31 318.01C1669.55 318.854 1670.01 319.607 1670.69 320.27C1671.36 320.946 1672.12 321.408 1672.96 321.656C1673.79 321.89 1674.63 321.91 1675.47 321.716C1676.3 321.509 1677.06 321.07 1677.73 320.4C1678.23 319.898 1678.6 319.339 1678.84 318.723C1679.08 318.107 1679.2 317.478 1679.18 316.835C1679.17 316.179 1679.04 315.542 1678.78 314.926C1678.53 314.31 1678.15 313.758 1677.67 313.269C1677.01 312.626 1676.26 312.184 1675.42 311.943C1674.57 311.702 1673.72 311.682 1672.86 311.883C1672.01 312.084 1671.25 312.516 1670.58 313.179ZM1706.26 312.943C1704.76 314.442 1703.16 315.52 1701.48 316.177C1699.79 316.82 1698.15 317.024 1696.56 316.789C1694.98 316.542 1693.57 315.829 1692.36 314.65L1696.73 310.271C1697.26 310.746 1697.87 311.024 1698.55 311.104C1699.24 311.171 1699.94 311.054 1700.65 310.753C1701.37 310.452 1702.04 309.983 1702.68 309.347C1703.34 308.684 1703.81 307.981 1704.09 307.237C1704.36 306.494 1704.44 305.771 1704.31 305.068C1704.18 304.365 1703.85 303.742 1703.3 303.2C1702.75 302.651 1702.12 302.319 1701.39 302.205C1700.66 302.078 1699.89 302.179 1699.08 302.507C1698.27 302.828 1697.48 303.377 1696.7 304.154L1694.79 306.072L1691.59 302.878L1693.51 300.96C1694.17 300.304 1694.63 299.611 1694.91 298.881C1695.19 298.144 1695.27 297.434 1695.15 296.751C1695.02 296.062 1694.69 295.446 1694.14 294.903C1693.63 294.388 1693.05 294.06 1692.42 293.919C1691.78 293.765 1691.13 293.798 1690.47 294.019C1689.81 294.234 1689.19 294.632 1688.61 295.215C1688.02 295.804 1687.59 296.45 1687.31 297.153C1687.03 297.85 1686.94 298.539 1687.03 299.222C1687.13 299.905 1687.42 300.518 1687.93 301.06L1683.76 305.229C1682.59 304.023 1681.89 302.641 1681.64 301.08C1681.39 299.52 1681.57 297.93 1682.17 296.309C1682.77 294.676 1683.78 293.156 1685.18 291.749C1686.6 290.33 1688.1 289.345 1689.68 288.796C1691.26 288.247 1692.79 288.117 1694.25 288.405C1695.72 288.679 1696.99 289.362 1698.07 290.454C1699.23 291.599 1699.83 292.918 1699.88 294.411C1699.93 295.898 1699.49 297.321 1698.54 298.68L1698.7 298.841C1700.41 297.521 1702.09 296.895 1703.74 296.962C1705.38 297.016 1706.84 297.685 1708.11 298.971C1709.29 300.136 1710 301.516 1710.22 303.109C1710.46 304.696 1710.24 306.347 1709.57 308.061C1708.9 309.775 1707.8 311.402 1706.26 312.943ZM1704.22 280.449L1700.63 276.864L1717.53 259.969L1721.11 263.555L1714.81 269.853L1731.8 286.837L1727.5 291.136L1710.52 274.152L1704.22 280.449ZM1745.05 274.194C1743.46 275.781 1741.77 276.826 1739.98 277.328C1738.2 277.817 1736.4 277.777 1734.6 277.207C1732.79 276.632 1731.07 275.53 1729.45 273.903C1727.86 272.316 1726.77 270.615 1726.19 268.8C1725.61 266.986 1725.54 265.185 1725.99 263.397C1726.45 261.602 1727.43 259.948 1728.94 258.435C1729.96 257.417 1731.07 256.634 1732.28 256.085C1733.48 255.522 1734.74 255.238 1736.05 255.231C1737.36 255.217 1738.69 255.519 1740.04 256.135C1741.39 256.744 1742.72 257.705 1744.03 259.017L1745.21 260.193L1732.18 273.22L1729.53 270.568L1738.53 261.569C1737.91 260.953 1737.23 260.541 1736.49 260.333C1735.74 260.126 1735 260.126 1734.26 260.333C1733.51 260.527 1732.83 260.936 1732.21 261.559C1731.56 262.208 1731.13 262.935 1730.93 263.738C1730.73 264.528 1730.74 265.315 1730.96 266.099C1731.18 266.875 1731.59 267.572 1732.19 268.188L1734.71 270.709C1735.47 271.472 1736.27 271.991 1737.11 272.266C1737.95 272.534 1738.79 272.557 1739.61 272.336C1740.43 272.115 1741.2 271.646 1741.92 270.93C1742.4 270.454 1742.77 269.952 1743.03 269.423C1743.29 268.894 1743.42 268.355 1743.44 267.806C1743.45 267.257 1743.34 266.715 1743.1 266.179L1747.32 262.483C1748.07 263.634 1748.48 264.877 1748.57 266.209C1748.66 267.528 1748.41 268.874 1747.83 270.247C1747.24 271.606 1746.32 272.922 1745.05 274.194ZM1755.58 241.003L1751.9 245.161C1751.5 244.894 1751.05 244.736 1750.56 244.689C1750.07 244.636 1749.56 244.709 1749.04 244.91C1748.52 245.098 1748.01 245.439 1747.51 245.935C1746.85 246.598 1746.43 247.297 1746.26 248.034C1746.07 248.764 1746.22 249.36 1746.68 249.822C1747.05 250.19 1747.5 250.354 1748.05 250.314C1748.6 250.274 1749.31 249.973 1750.18 249.41L1753.54 247.18C1755.35 245.988 1756.96 245.366 1758.38 245.312C1759.8 245.258 1761.06 245.787 1762.18 246.899C1763.19 247.91 1763.78 249.095 1763.94 250.455C1764.12 251.807 1763.9 253.213 1763.3 254.673C1762.7 256.12 1761.73 257.512 1760.39 258.852C1758.35 260.894 1756.29 262.096 1754.23 262.457C1752.17 262.806 1750.3 262.347 1748.62 261.081L1752.6 256.652C1753.35 257.147 1754.14 257.315 1754.95 257.154C1755.76 256.987 1756.55 256.521 1757.31 255.758C1758.06 255.008 1758.52 254.261 1758.69 253.518C1758.86 252.761 1758.71 252.149 1758.26 251.68C1757.86 251.298 1757.38 251.144 1756.81 251.218C1756.24 251.285 1755.55 251.586 1754.74 252.122L1751.54 254.261C1749.73 255.467 1748.09 256.066 1746.61 256.059C1745.13 256.046 1743.82 255.463 1742.67 254.312C1741.68 253.321 1741.09 252.199 1740.91 250.947C1740.74 249.688 1740.95 248.376 1741.53 247.01C1742.13 245.637 1743.09 244.291 1744.41 242.972C1746.36 241.023 1748.3 239.902 1750.24 239.607C1752.19 239.306 1753.97 239.771 1755.58 241.003ZM1761.58 226.2L1764.79 229.415L1755.5 238.705L1752.29 235.491L1761.58 226.2ZM1750.7 229.686L1754.98 225.407L1769.36 239.79C1769.76 240.185 1770.13 240.433 1770.47 240.533C1770.8 240.627 1771.12 240.61 1771.42 240.483C1771.73 240.349 1772.03 240.138 1772.32 239.85C1772.52 239.649 1772.7 239.432 1772.87 239.197C1773.03 238.956 1773.15 238.772 1773.24 238.645L1777.1 241.156C1776.95 241.437 1776.73 241.816 1776.43 242.291C1776.13 242.773 1775.72 243.302 1775.18 243.878C1774.19 244.949 1773.15 245.716 1772.06 246.178C1770.97 246.633 1769.88 246.744 1768.79 246.51C1767.7 246.275 1766.65 245.649 1765.65 244.631L1750.7 229.686Z" fill="white"/>
</g>
<path d="M1579.38 453.055L1526.04 506.391C1525.1 507.329 1523.83 507.856 1522.51 507.856L1423.29 507.855" stroke="#FF8200" stroke-width="10" stroke-linecap="round"/>
<rect x="1107.27" y="1587.3" width="400" height="60" rx="30" transform="rotate(135 1107.27 1587.3)" fill="#FF8200"/>
<g filter="url(#filter2_d_378_635)">
<path d="M853.431 1778.79L864.59 1781.65L864.751 1781.49L861.908 1770.31L866.82 1765.4L870.827 1781.96L887.531 1785.83L882.529 1790.83L871.289 1788.03L871.129 1788.19L873.931 1799.43L868.949 1804.41L865.102 1787.69L848.499 1783.72L853.431 1778.79ZM889.173 1784.19L886.039 1781.05L886.582 1766.95C886.602 1765.72 886.582 1764.66 886.522 1763.76C886.468 1762.85 886.321 1762.05 886.08 1761.37C885.832 1760.68 885.437 1760.06 884.894 1759.52C884.292 1758.91 883.636 1758.53 882.926 1758.37C882.209 1758.2 881.496 1758.24 880.786 1758.48C880.07 1758.72 879.41 1759.14 878.808 1759.74C878.178 1760.37 877.756 1761.04 877.542 1761.77C877.328 1762.49 877.331 1763.22 877.552 1763.95C877.773 1764.68 878.212 1765.37 878.868 1766.03L874.74 1770.15C873.394 1768.81 872.53 1767.33 872.148 1765.73C871.767 1764.13 871.854 1762.51 872.41 1760.87C872.965 1759.23 873.96 1757.7 875.393 1756.26C876.866 1754.79 878.409 1753.77 880.023 1753.2C881.637 1752.62 883.207 1752.48 884.734 1752.79C886.26 1753.1 887.616 1753.84 888.802 1755.03C889.578 1755.8 890.191 1756.72 890.64 1757.79C891.095 1758.85 891.396 1760.23 891.544 1761.93C891.684 1763.62 891.691 1765.82 891.564 1768.52L891.503 1774.46L891.644 1774.6L900.282 1765.97L903.838 1769.52L889.173 1784.19ZM914.095 1759.83C912.549 1761.37 910.921 1762.5 909.214 1763.2C907.506 1763.89 905.873 1764.14 904.312 1763.94C902.752 1763.75 901.416 1763.1 900.305 1761.99C899.448 1761.13 898.855 1760.15 898.527 1759.04C898.199 1757.92 898.135 1756.79 898.336 1755.64C898.53 1754.48 898.979 1753.41 899.682 1752.44L899.541 1752.3C898.222 1753.18 896.799 1753.54 895.273 1753.38C893.739 1753.21 892.41 1752.56 891.285 1751.44C890.221 1750.37 889.584 1749.12 889.377 1747.66C889.163 1746.2 889.36 1744.69 889.969 1743.13C890.579 1741.56 891.577 1740.08 892.963 1738.69C894.349 1737.31 895.825 1736.31 897.392 1735.71C898.966 1735.1 900.482 1734.9 901.942 1735.12C903.395 1735.32 904.654 1735.95 905.719 1737.01C906.844 1738.14 907.483 1739.48 907.637 1741.01C907.791 1742.55 907.44 1743.96 906.582 1745.26L906.723 1745.4C907.681 1744.71 908.735 1744.27 909.887 1744.09C911.039 1743.89 912.174 1743.95 913.292 1744.28C914.41 1744.59 915.401 1745.17 916.265 1746.03C917.37 1747.14 918.019 1748.48 918.214 1750.04C918.408 1751.6 918.157 1753.24 917.46 1754.95C916.764 1756.66 915.642 1758.28 914.095 1759.83ZM910.901 1756.63C911.591 1755.94 912.07 1755.22 912.338 1754.45C912.599 1753.68 912.652 1752.93 912.498 1752.2C912.344 1751.46 911.976 1750.8 911.394 1750.21C910.798 1749.62 910.121 1749.24 909.365 1749.09C908.601 1748.93 907.831 1748.97 907.055 1749.23C906.271 1749.48 905.545 1749.94 904.875 1750.61C904.212 1751.27 903.753 1751.99 903.499 1752.78C903.238 1753.57 903.188 1754.34 903.348 1755.11C903.509 1755.86 903.887 1756.53 904.483 1757.12C905.066 1757.71 905.725 1758.08 906.462 1758.24C907.192 1758.39 907.945 1758.34 908.722 1758.07C909.492 1757.79 910.218 1757.31 910.901 1756.63ZM901.711 1747.44C902.287 1746.87 902.682 1746.24 902.896 1745.55C903.111 1744.87 903.137 1744.19 902.977 1743.52C902.816 1742.85 902.464 1742.25 901.922 1741.71C901.386 1741.17 900.79 1740.83 900.134 1740.68C899.471 1740.53 898.805 1740.56 898.135 1740.77C897.459 1740.98 896.826 1741.38 896.237 1741.97C895.654 1742.55 895.256 1743.18 895.042 1743.87C894.821 1744.54 894.787 1745.21 894.941 1745.87C895.095 1746.52 895.44 1747.12 895.976 1747.65C896.518 1748.19 897.124 1748.55 897.794 1748.71C898.463 1748.87 899.14 1748.84 899.823 1748.63C900.506 1748.41 901.135 1748.02 901.711 1747.44ZM929.81 1743.55L909.239 1722.98L923.1 1709.12L926.686 1712.7L917.174 1722.22L922.076 1727.12L930.875 1718.32L934.46 1721.9L925.662 1730.7L930.573 1735.61L940.125 1726.06L943.711 1729.65L929.81 1743.55ZM938.978 1703.53L942.192 1706.74L932.901 1716.03L929.687 1712.82L938.978 1703.53ZM928.1 1707.01L932.379 1702.73L946.762 1717.12C947.157 1717.51 947.525 1717.76 947.867 1717.86C948.202 1717.95 948.52 1717.94 948.821 1717.81C949.129 1717.67 949.427 1717.46 949.715 1717.18C949.916 1716.97 950.1 1716.76 950.267 1716.52C950.428 1716.28 950.552 1716.1 950.639 1715.97L954.496 1718.48C954.349 1718.76 954.124 1719.14 953.823 1719.62C953.528 1720.1 953.113 1720.63 952.578 1721.2C951.587 1722.27 950.545 1723.04 949.454 1723.5C948.369 1723.96 947.281 1724.07 946.19 1723.83C945.098 1723.6 944.05 1722.97 943.046 1721.96L928.1 1707.01ZM952.035 1703.49L960.955 1712.4L956.676 1716.68L936.105 1696.11L940.264 1691.95L948.128 1699.82L948.309 1699.64C947.747 1698.38 947.596 1697.1 947.857 1695.81C948.112 1694.51 948.825 1693.28 949.996 1692.11C951.068 1691.03 952.236 1690.33 953.502 1690.01C954.767 1689.66 956.056 1689.71 957.369 1690.14C958.681 1690.55 959.937 1691.37 961.135 1692.58L970.959 1702.4L966.68 1706.68L957.62 1697.62C956.676 1696.66 955.695 1696.16 954.677 1696.12C953.666 1696.08 952.725 1696.49 951.855 1697.36C951.272 1697.94 950.88 1698.58 950.679 1699.28C950.485 1699.97 950.499 1700.68 950.72 1701.41C950.941 1702.12 951.379 1702.82 952.035 1703.49ZM980.81 1693.15C979.223 1694.74 977.535 1695.78 975.747 1696.29C973.959 1696.77 972.165 1696.73 970.364 1696.17C968.556 1695.59 966.838 1694.49 965.211 1692.86C963.624 1691.27 962.539 1689.57 961.957 1687.76C961.374 1685.94 961.307 1684.14 961.756 1682.35C962.211 1680.56 963.196 1678.91 964.709 1677.39C965.727 1676.37 966.838 1675.59 968.043 1675.04C969.249 1674.48 970.504 1674.2 971.81 1674.19C973.122 1674.18 974.455 1674.48 975.808 1675.09C977.154 1675.7 978.483 1676.66 979.795 1677.98L980.97 1679.15L967.943 1692.18L965.291 1689.53L974.291 1680.53C973.675 1679.91 972.995 1679.5 972.252 1679.29C971.509 1679.08 970.765 1679.08 970.022 1679.29C969.279 1679.49 968.596 1679.89 967.973 1680.52C967.324 1681.17 966.898 1681.89 966.698 1682.7C966.497 1683.49 966.507 1684.27 966.728 1685.06C966.942 1685.83 967.35 1686.53 967.953 1687.15L970.474 1689.67C971.238 1690.43 972.038 1690.95 972.875 1691.22C973.718 1691.49 974.552 1691.51 975.376 1691.29C976.199 1691.07 976.969 1690.6 977.686 1689.89C978.161 1689.41 978.53 1688.91 978.791 1688.38C979.052 1687.85 979.189 1687.31 979.203 1686.76C979.216 1686.21 979.102 1685.67 978.861 1685.14L983.08 1681.44C983.83 1682.59 984.248 1683.83 984.335 1685.17C984.422 1686.49 984.174 1687.83 983.592 1689.2C983.009 1690.56 982.082 1691.88 980.81 1693.15ZM989.533 1683.83L974.105 1668.4L978.254 1664.25L980.945 1666.94L981.106 1666.78C980.43 1665.54 980.179 1664.35 980.353 1663.2C980.52 1662.04 981.036 1661.03 981.9 1660.16C982.114 1659.95 982.358 1659.73 982.633 1659.51C982.907 1659.29 983.162 1659.11 983.396 1658.97L987.193 1662.76C986.932 1662.9 986.6 1663.13 986.198 1663.44C985.797 1663.74 985.448 1664.05 985.154 1664.34C984.524 1664.97 984.099 1665.67 983.878 1666.44C983.657 1667.2 983.644 1667.96 983.838 1668.73C984.039 1669.49 984.454 1670.19 985.084 1670.82L993.812 1679.55L989.533 1683.83ZM995.618 1659.9L1004.54 1668.82L1000.26 1673.1L984.83 1657.67L988.908 1653.6L991.63 1656.32L991.811 1656.14C991.255 1654.9 991.118 1653.62 991.399 1652.29C991.674 1650.96 992.383 1649.72 993.528 1648.57C994.6 1647.5 995.768 1646.8 997.034 1646.47C998.299 1646.15 999.588 1646.2 1000.9 1646.62C1002.21 1647.05 1003.46 1647.86 1004.66 1649.06L1014.48 1658.88L1010.2 1663.16L1001.14 1654.1C1000.2 1653.15 999.227 1652.65 998.209 1652.61C997.184 1652.56 996.244 1652.97 995.386 1653.83C994.811 1654.4 994.426 1655.03 994.231 1655.72C994.044 1656.41 994.064 1657.11 994.292 1657.83C994.519 1658.54 994.961 1659.23 995.618 1659.9ZM1024.34 1649.63C1022.75 1651.21 1021.06 1652.26 1019.27 1652.76C1017.49 1653.25 1015.69 1653.21 1013.89 1652.64C1012.08 1652.06 1010.37 1650.96 1008.74 1649.33C1007.15 1647.75 1006.07 1646.05 1005.48 1644.23C1004.9 1642.42 1004.83 1640.62 1005.28 1638.83C1005.74 1637.03 1006.72 1635.38 1008.24 1633.87C1009.25 1632.85 1010.37 1632.06 1011.57 1631.52C1012.78 1630.95 1014.03 1630.67 1015.34 1630.66C1016.65 1630.65 1017.98 1630.95 1019.33 1631.57C1020.68 1632.18 1022.01 1633.14 1023.32 1634.45L1024.5 1635.62L1011.47 1648.65L1008.82 1646L1017.82 1637C1017.2 1636.38 1016.52 1635.97 1015.78 1635.76C1015.04 1635.56 1014.29 1635.56 1013.55 1635.76C1012.81 1635.96 1012.12 1636.37 1011.5 1636.99C1010.85 1637.64 1010.43 1638.37 1010.22 1639.17C1010.02 1639.96 1010.03 1640.75 1010.25 1641.53C1010.47 1642.31 1010.88 1643 1011.48 1643.62L1014 1646.14C1014.76 1646.9 1015.56 1647.42 1016.4 1647.7C1017.25 1647.96 1018.08 1647.99 1018.9 1647.77C1019.73 1647.55 1020.5 1647.08 1021.21 1646.36C1021.69 1645.89 1022.06 1645.38 1022.32 1644.85C1022.58 1644.33 1022.72 1643.79 1022.73 1643.24C1022.74 1642.69 1022.63 1642.15 1022.39 1641.61L1026.61 1637.91C1027.36 1639.07 1027.77 1640.31 1027.86 1641.64C1027.95 1642.96 1027.7 1644.31 1027.12 1645.68C1026.54 1647.04 1025.61 1648.35 1024.34 1649.63ZM1025.84 1616.67L1029.05 1619.88L1019.76 1629.17L1016.55 1625.96L1025.84 1616.67ZM1014.96 1620.15L1019.24 1615.87L1033.62 1630.25C1034.02 1630.65 1034.39 1630.9 1034.73 1631C1035.06 1631.09 1035.38 1631.08 1035.68 1630.95C1035.99 1630.81 1036.29 1630.6 1036.58 1630.32C1036.78 1630.11 1036.96 1629.9 1037.13 1629.66C1037.29 1629.42 1037.41 1629.24 1037.5 1629.11L1041.36 1631.62C1041.21 1631.9 1040.98 1632.28 1040.68 1632.76C1040.39 1633.24 1039.97 1633.77 1039.44 1634.34C1038.45 1635.41 1037.41 1636.18 1036.31 1636.64C1035.23 1637.1 1034.14 1637.21 1033.05 1636.97C1031.96 1636.74 1030.91 1636.11 1029.91 1635.1L1014.96 1620.15Z" fill="white"/>
</g>
<path d="M1032.19 1584.94L1085.53 1531.6C1086.47 1530.67 1087.74 1530.14 1089.07 1530.14L1188.29 1530.14" stroke="#FF8200" stroke-width="10" stroke-linecap="round"/>
<rect x="505.694" y="1565.73" width="400" height="60" rx="30" transform="rotate(135 505.694 1565.73)" fill="#FF8200"/>
<g filter="url(#filter3_d_378_635)">
<path d="M269.09 1739.98L280.249 1742.84L280.41 1742.68L277.568 1731.5L282.479 1726.59L286.487 1743.15L303.19 1747.02L298.188 1752.02L286.949 1749.22L286.788 1749.38L289.59 1760.62L284.608 1765.6L280.762 1748.88L264.159 1744.91L269.09 1739.98ZM293.211 1715.86L313.782 1736.43L309.433 1740.78L292.991 1724.34L292.87 1724.46L291.112 1732.12L287.255 1728.26L289.124 1719.95L293.211 1715.86ZM325.777 1725C324.23 1726.54 322.603 1727.67 320.896 1728.37C319.188 1729.06 317.554 1729.31 315.994 1729.11C314.434 1728.92 313.098 1728.27 311.987 1727.16C311.13 1726.3 310.537 1725.32 310.209 1724.21C309.881 1723.09 309.817 1721.96 310.018 1720.81C310.212 1719.65 310.661 1718.58 311.364 1717.61L311.223 1717.47C309.904 1718.35 308.481 1718.71 306.955 1718.55C305.421 1718.38 304.092 1717.73 302.967 1716.61C301.902 1715.54 301.266 1714.29 301.059 1712.83C300.844 1711.37 301.042 1709.86 301.651 1708.3C302.261 1706.73 303.258 1705.25 304.644 1703.86C306.031 1702.48 307.507 1701.48 309.074 1700.88C310.647 1700.27 312.164 1700.07 313.624 1700.29C315.077 1700.49 316.336 1701.12 317.4 1702.18C318.525 1703.31 319.165 1704.65 319.319 1706.18C319.473 1707.72 319.121 1709.13 318.264 1710.43L318.405 1710.57C319.362 1709.88 320.417 1709.44 321.569 1709.26C322.72 1709.06 323.855 1709.12 324.974 1709.45C326.092 1709.76 327.083 1710.34 327.947 1711.19C329.052 1712.31 329.701 1713.65 329.895 1715.21C330.09 1716.77 329.838 1718.41 329.142 1720.12C328.446 1721.83 327.324 1723.45 325.777 1725ZM322.583 1721.8C323.273 1721.11 323.752 1720.39 324.02 1719.62C324.281 1718.85 324.334 1718.1 324.18 1717.37C324.026 1716.63 323.658 1715.97 323.075 1715.38C322.479 1714.79 321.803 1714.41 321.046 1714.26C320.283 1714.1 319.513 1714.14 318.736 1714.4C317.953 1714.65 317.226 1715.11 316.557 1715.78C315.894 1716.44 315.435 1717.16 315.181 1717.95C314.92 1718.74 314.869 1719.51 315.03 1720.27C315.191 1721.02 315.569 1721.7 316.165 1722.29C316.748 1722.88 317.407 1723.25 318.144 1723.41C318.874 1723.56 319.627 1723.51 320.404 1723.24C321.174 1722.96 321.9 1722.48 322.583 1721.8ZM313.393 1712.61C313.969 1712.04 314.364 1711.41 314.578 1710.72C314.792 1710.04 314.819 1709.36 314.658 1708.69C314.498 1708.02 314.146 1707.42 313.604 1706.88C313.068 1706.34 312.472 1706 311.816 1705.85C311.153 1705.7 310.487 1705.73 309.817 1705.94C309.141 1706.15 308.508 1706.55 307.919 1707.14C307.336 1707.72 306.938 1708.35 306.724 1709.04C306.503 1709.71 306.469 1710.38 306.623 1711.04C306.777 1711.69 307.122 1712.29 307.658 1712.82C308.2 1713.36 308.806 1713.72 309.476 1713.88C310.145 1714.04 310.822 1714.01 311.505 1713.8C312.188 1713.58 312.817 1713.19 313.393 1712.61ZM346.273 1677.2L341.873 1681.6C341.224 1681.11 340.554 1680.77 339.865 1680.58C339.168 1680.37 338.468 1680.31 337.765 1680.38C337.062 1680.46 336.373 1680.67 335.696 1681.01C335.027 1681.34 334.397 1681.8 333.808 1682.39C332.743 1683.46 332.08 1684.65 331.819 1685.97C331.551 1687.28 331.702 1688.66 332.271 1690.1C332.834 1691.53 333.828 1692.96 335.254 1694.39C336.721 1695.85 338.17 1696.87 339.603 1697.43C341.043 1697.98 342.412 1698.12 343.711 1697.84C345.011 1697.56 346.179 1696.9 347.217 1695.86C347.799 1695.28 348.261 1694.66 348.603 1694.01C348.951 1693.36 349.172 1692.69 349.266 1692.01C349.353 1691.32 349.309 1690.63 349.135 1689.95C348.968 1689.26 348.66 1688.59 348.211 1687.94L352.631 1683.56C353.461 1684.62 354.087 1685.81 354.509 1687.14C354.931 1688.46 355.105 1689.85 355.031 1691.3C354.958 1692.74 354.596 1694.19 353.946 1695.64C353.297 1697.08 352.313 1698.46 350.993 1699.78C349.159 1701.61 347.103 1702.84 344.826 1703.46C342.556 1704.06 340.216 1704 337.806 1703.26C335.402 1702.52 333.081 1701.03 330.845 1698.8C328.602 1696.55 327.115 1694.22 326.385 1691.8C325.655 1689.39 325.602 1687.04 326.225 1684.77C326.841 1682.5 328.053 1680.45 329.861 1678.65C331.053 1677.45 332.325 1676.52 333.677 1675.83C335.037 1675.14 336.433 1674.73 337.866 1674.58C339.292 1674.42 340.715 1674.56 342.135 1674.99C343.561 1675.41 344.94 1676.15 346.273 1677.2ZM361.912 1688.3L341.341 1667.73L349.457 1659.61C351.017 1658.05 352.644 1657.02 354.338 1656.52C356.026 1656.01 357.683 1655.99 359.31 1656.47C360.937 1656.93 362.434 1657.84 363.8 1659.21C365.166 1660.58 366.077 1662.08 366.532 1663.71C366.987 1665.34 366.947 1667.01 366.411 1668.71C365.882 1670.41 364.828 1672.04 363.247 1673.62L358.075 1678.8L354.589 1675.31L359.059 1670.84C359.896 1670.01 360.442 1669.17 360.696 1668.34C360.951 1667.5 360.954 1666.68 360.706 1665.9C360.459 1665.1 359.997 1664.37 359.32 1663.69C358.637 1663.01 357.904 1662.55 357.121 1662.31C356.337 1662.07 355.53 1662.08 354.7 1662.34C353.863 1662.61 353.023 1663.16 352.179 1664L349.246 1666.93L366.261 1683.95L361.912 1688.3ZM366.72 1640.42L384.72 1671.68L381.033 1675.36L363.034 1644.11L366.72 1640.42ZM389.548 1660.66L368.978 1640.09L377.094 1631.98C378.654 1630.42 380.281 1629.38 381.975 1628.88C383.663 1628.37 385.32 1628.36 386.947 1628.83C388.574 1629.29 390.071 1630.21 391.437 1631.57C392.803 1632.94 393.713 1634.44 394.169 1636.07C394.624 1637.71 394.584 1639.38 394.048 1641.08C393.519 1642.77 392.465 1644.41 390.884 1645.99L385.712 1651.16L382.226 1647.67L386.696 1643.21C387.533 1642.37 388.079 1641.53 388.333 1640.7C388.588 1639.86 388.591 1639.05 388.343 1638.26C388.095 1637.47 387.633 1636.73 386.957 1636.05C386.274 1635.37 385.541 1634.91 384.757 1634.68C383.974 1634.43 383.167 1634.44 382.337 1634.71C381.5 1634.97 380.659 1635.52 379.816 1636.37L376.883 1639.3L393.898 1656.31L389.548 1660.66ZM407.013 1643.2L386.443 1622.63L394.558 1614.51C396.118 1612.95 397.746 1611.92 399.44 1611.42C401.127 1610.91 402.784 1610.89 404.411 1611.37C406.039 1611.83 407.535 1612.74 408.901 1614.11C410.267 1615.48 411.178 1616.98 411.633 1618.61C412.089 1620.24 412.048 1621.91 411.513 1623.61C410.984 1625.31 409.929 1626.94 408.349 1628.52L403.176 1633.7L399.691 1630.21L404.16 1625.74C404.997 1624.9 405.543 1624.07 405.798 1623.24C406.052 1622.4 406.055 1621.58 405.808 1620.8C405.56 1620 405.098 1619.27 404.422 1618.59C403.739 1617.91 403.005 1617.45 402.222 1617.21C401.438 1616.97 400.632 1616.98 399.801 1617.24C398.964 1617.5 398.124 1618.06 397.28 1618.9L394.347 1621.83L411.362 1638.85L407.013 1643.2Z" fill="white"/>
</g>
<path d="M430.62 1563.37L483.956 1510.03C484.894 1509.09 486.166 1508.56 487.492 1508.56L586.712 1508.56" stroke="#FF8200" stroke-width="10" stroke-linecap="round"/>
<rect x="1998" y="1076" width="648" height="790" rx="36" stroke="#002FFF" stroke-width="8"/>
<path d="M2189.73 1141V1111.91H2209.33V1116.98H2195.88V1123.91H2208.32V1128.98H2195.88V1135.93H2209.39V1141H2189.73ZM2218.28 1111.91L2225.31 1134.01H2225.58L2232.63 1111.91H2239.44L2229.41 1141H2221.49L2211.45 1111.91H2218.28ZM2251.02 1126.45C2251.02 1122.93 2251.49 1119.69 2252.43 1116.72C2253.38 1113.76 2254.82 1111.01 2256.76 1108.48H2262.54C2261.81 1109.42 2261.12 1110.57 2260.48 1111.92C2259.85 1113.27 2259.3 1114.74 2258.82 1116.35C2258.35 1117.96 2257.98 1119.63 2257.71 1121.35C2257.45 1123.07 2257.32 1124.77 2257.32 1126.45C2257.32 1128.7 2257.54 1130.96 2258 1133.26C2258.46 1135.54 2259.09 1137.66 2259.87 1139.62C2260.67 1141.58 2261.56 1143.18 2262.54 1144.43H2256.76C2254.82 1141.91 2253.38 1139.16 2252.43 1136.2C2251.49 1133.23 2251.02 1129.98 2251.02 1126.45ZM2280.75 1120.27C2280.64 1119.13 2280.15 1118.24 2279.29 1117.6C2278.43 1116.97 2277.26 1116.65 2275.78 1116.65C2274.78 1116.65 2273.93 1116.79 2273.24 1117.08C2272.55 1117.35 2272.02 1117.73 2271.65 1118.23C2271.29 1118.72 2271.11 1119.28 2271.11 1119.9C2271.09 1120.42 2271.2 1120.88 2271.43 1121.27C2271.68 1121.66 2272.02 1121.99 2272.44 1122.28C2272.87 1122.55 2273.36 1122.79 2273.92 1123C2274.48 1123.2 2275.07 1123.37 2275.71 1123.51L2278.32 1124.14C2279.59 1124.42 2280.76 1124.8 2281.82 1125.27C2282.88 1125.75 2283.8 1126.33 2284.57 1127.02C2285.35 1127.71 2285.95 1128.53 2286.38 1129.46C2286.81 1130.4 2287.03 1131.48 2287.04 1132.69C2287.03 1134.47 2286.58 1136.01 2285.68 1137.32C2284.79 1138.62 2283.5 1139.62 2281.82 1140.34C2280.14 1141.05 2278.12 1141.41 2275.75 1141.41C2273.4 1141.41 2271.36 1141.05 2269.61 1140.33C2267.88 1139.61 2266.53 1138.54 2265.55 1137.13C2264.59 1135.71 2264.08 1133.96 2264.03 1131.86H2269.98C2270.05 1132.84 2270.33 1133.65 2270.82 1134.31C2271.32 1134.95 2271.99 1135.44 2272.82 1135.77C2273.67 1136.09 2274.62 1136.25 2275.68 1136.25C2276.72 1136.25 2277.63 1136.1 2278.39 1135.8C2279.17 1135.5 2279.77 1135.07 2280.2 1134.53C2280.62 1133.99 2280.84 1133.37 2280.84 1132.67C2280.84 1132.02 2280.64 1131.47 2280.25 1131.03C2279.88 1130.58 2279.32 1130.2 2278.58 1129.89C2277.85 1129.58 2276.95 1129.29 2275.89 1129.04L2272.73 1128.24C2270.27 1127.64 2268.34 1126.71 2266.92 1125.44C2265.5 1124.17 2264.79 1122.46 2264.8 1120.32C2264.79 1118.55 2265.26 1117.02 2266.21 1115.7C2267.16 1114.38 2268.47 1113.36 2270.14 1112.62C2271.81 1111.88 2273.7 1111.51 2275.82 1111.51C2277.98 1111.51 2279.87 1111.88 2281.48 1112.62C2283.09 1113.36 2284.35 1114.38 2285.25 1115.7C2286.15 1117.02 2286.62 1118.54 2286.65 1120.27H2280.75ZM2289.87 1141V1119.18H2295.92V1141H2289.87ZM2292.91 1116.37C2292.01 1116.37 2291.24 1116.07 2290.59 1115.47C2289.96 1114.87 2289.64 1114.14 2289.64 1113.3C2289.64 1112.46 2289.96 1111.75 2290.59 1111.15C2291.24 1110.55 2292.01 1110.24 2292.91 1110.24C2293.81 1110.24 2294.57 1110.55 2295.21 1111.15C2295.85 1111.75 2296.17 1112.46 2296.17 1113.3C2296.17 1114.14 2295.85 1114.87 2295.21 1115.47C2294.57 1116.07 2293.81 1116.37 2292.91 1116.37ZM2299.57 1141V1119.18H2305.33V1123.03H2305.59C2306.04 1121.75 2306.8 1120.74 2307.86 1120C2308.92 1119.26 2310.19 1118.89 2311.67 1118.89C2313.16 1118.89 2314.44 1119.27 2315.49 1120.02C2316.54 1120.76 2317.24 1121.76 2317.59 1123.03H2317.82C2318.26 1121.78 2319.07 1120.78 2320.23 1120.03C2321.41 1119.27 2322.79 1118.89 2324.4 1118.89C2326.43 1118.89 2328.08 1119.54 2329.35 1120.84C2330.63 1122.13 2331.27 1123.96 2331.27 1126.32V1141H2325.23V1127.52C2325.23 1126.3 2324.91 1125.4 2324.27 1124.79C2323.62 1124.18 2322.82 1123.88 2321.85 1123.88C2320.75 1123.88 2319.9 1124.23 2319.28 1124.93C2318.67 1125.62 2318.36 1126.54 2318.36 1127.67V1141H2312.49V1127.39C2312.49 1126.32 2312.18 1125.47 2311.57 1124.83C2310.96 1124.2 2310.16 1123.88 2309.17 1123.88C2308.5 1123.88 2307.89 1124.05 2307.35 1124.39C2306.82 1124.72 2306.4 1125.19 2306.09 1125.8C2305.77 1126.39 2305.62 1127.1 2305.62 1127.9V1141H2299.57ZM2348.84 1131.71V1119.18H2354.89V1141H2349.08V1137.03H2348.86C2348.36 1138.31 2347.54 1139.34 2346.4 1140.12C2345.26 1140.89 2343.87 1141.28 2342.24 1141.28C2340.78 1141.28 2339.49 1140.95 2338.39 1140.29C2337.28 1139.62 2336.41 1138.68 2335.79 1137.46C2335.17 1136.24 2334.86 1134.78 2334.85 1133.07V1119.18H2340.9V1131.99C2340.91 1133.28 2341.26 1134.3 2341.94 1135.05C2342.62 1135.79 2343.53 1136.17 2344.68 1136.17C2345.41 1136.17 2346.09 1136 2346.72 1135.67C2347.36 1135.33 2347.87 1134.83 2348.26 1134.16C2348.66 1133.5 2348.85 1132.68 2348.84 1131.71ZM2364.58 1111.91V1141H2358.53V1111.91H2364.58ZM2374.45 1141.41C2373.06 1141.41 2371.82 1141.17 2370.73 1140.68C2369.64 1140.19 2368.78 1139.47 2368.15 1138.51C2367.52 1137.55 2367.21 1136.34 2367.21 1134.9C2367.21 1133.69 2367.43 1132.67 2367.88 1131.85C2368.32 1131.03 2368.93 1130.36 2369.69 1129.86C2370.46 1129.36 2371.33 1128.98 2372.31 1128.72C2373.29 1128.47 2374.32 1128.29 2375.4 1128.18C2376.67 1128.05 2377.7 1127.93 2378.47 1127.82C2379.25 1127.69 2379.81 1127.51 2380.16 1127.28C2380.51 1127.04 2380.69 1126.69 2380.69 1126.22V1126.14C2380.69 1125.24 2380.4 1124.54 2379.84 1124.05C2379.28 1123.56 2378.48 1123.31 2377.45 1123.31C2376.36 1123.31 2375.49 1123.55 2374.85 1124.04C2374.21 1124.51 2373.78 1125.11 2373.57 1125.83L2367.98 1125.37C2368.26 1124.05 2368.82 1122.9 2369.65 1121.93C2370.48 1120.96 2371.56 1120.21 2372.88 1119.69C2374.2 1119.16 2375.74 1118.89 2377.48 1118.89C2378.69 1118.89 2379.85 1119.04 2380.96 1119.32C2382.08 1119.61 2383.07 1120.05 2383.93 1120.64C2384.8 1121.24 2385.48 1122.01 2385.99 1122.94C2386.49 1123.87 2386.74 1124.98 2386.74 1126.28V1141H2381V1137.97H2380.83C2380.48 1138.65 2380.01 1139.25 2379.42 1139.78C2378.84 1140.29 2378.13 1140.69 2377.31 1140.98C2376.48 1141.27 2375.53 1141.41 2374.45 1141.41ZM2376.19 1137.23C2377.08 1137.23 2377.86 1137.06 2378.54 1136.71C2379.23 1136.35 2379.76 1135.86 2380.15 1135.26C2380.54 1134.65 2380.73 1133.97 2380.73 1133.2V1130.88C2380.54 1131.01 2380.28 1131.12 2379.95 1131.22C2379.63 1131.32 2379.26 1131.41 2378.86 1131.49C2378.45 1131.57 2378.04 1131.64 2377.63 1131.71C2377.23 1131.76 2376.86 1131.82 2376.53 1131.86C2375.82 1131.97 2375.2 1132.13 2374.67 1132.36C2374.14 1132.59 2373.72 1132.9 2373.43 1133.28C2373.14 1133.66 2372.99 1134.14 2372.99 1134.7C2372.99 1135.53 2373.29 1136.16 2373.88 1136.59C2374.49 1137.02 2375.26 1137.23 2376.19 1137.23ZM2401.84 1119.18V1123.72H2388.7V1119.18H2401.84ZM2391.68 1113.95H2397.73V1134.29C2397.73 1134.85 2397.82 1135.29 2397.99 1135.6C2398.16 1135.9 2398.4 1136.12 2398.7 1136.24C2399.01 1136.36 2399.37 1136.42 2399.78 1136.42C2400.06 1136.42 2400.35 1136.4 2400.63 1136.35C2400.92 1136.3 2401.13 1136.25 2401.29 1136.22L2402.24 1140.73C2401.93 1140.82 2401.51 1140.93 2400.96 1141.05C2400.41 1141.19 2399.74 1141.27 2398.96 1141.3C2397.5 1141.35 2396.22 1141.16 2395.12 1140.71C2394.03 1140.27 2393.18 1139.58 2392.58 1138.64C2391.97 1137.7 2391.67 1136.52 2391.68 1135.09V1113.95ZM2414.2 1141.42C2412 1141.42 2410.09 1140.95 2408.48 1140.02C2406.88 1139.07 2405.64 1137.75 2404.77 1136.07C2403.9 1134.37 2403.47 1132.41 2403.47 1130.17C2403.47 1127.92 2403.9 1125.95 2404.77 1124.26C2405.64 1122.57 2406.88 1121.25 2408.48 1120.32C2410.09 1119.37 2412 1118.89 2414.2 1118.89C2416.41 1118.89 2418.31 1119.37 2419.91 1120.32C2421.52 1121.25 2422.77 1122.57 2423.64 1124.26C2424.51 1125.95 2424.94 1127.92 2424.94 1130.17C2424.94 1132.41 2424.51 1134.37 2423.64 1136.07C2422.77 1137.75 2421.52 1139.07 2419.91 1140.02C2418.31 1140.95 2416.41 1141.42 2414.2 1141.42ZM2414.23 1136.74C2415.24 1136.74 2416.08 1136.45 2416.75 1135.88C2417.42 1135.31 2417.93 1134.52 2418.27 1133.53C2418.62 1132.53 2418.79 1131.4 2418.79 1130.13C2418.79 1128.86 2418.62 1127.73 2418.27 1126.74C2417.93 1125.74 2417.42 1124.96 2416.75 1124.38C2416.08 1123.8 2415.24 1123.51 2414.23 1123.51C2413.22 1123.51 2412.37 1123.8 2411.68 1124.38C2410.99 1124.96 2410.48 1125.74 2410.13 1126.74C2409.79 1127.73 2409.62 1128.86 2409.62 1130.13C2409.62 1131.4 2409.79 1132.53 2410.13 1133.53C2410.48 1134.52 2410.99 1135.31 2411.68 1135.88C2412.37 1136.45 2413.22 1136.74 2414.23 1136.74ZM2427.68 1141V1119.18H2433.54V1122.99H2433.77C2434.17 1121.63 2434.84 1120.61 2435.77 1119.92C2436.71 1119.22 2437.79 1118.87 2439.01 1118.87C2439.32 1118.87 2439.64 1118.89 2439.99 1118.92C2440.34 1118.96 2440.65 1119.01 2440.92 1119.08V1124.45C2440.63 1124.36 2440.24 1124.29 2439.74 1124.22C2439.24 1124.16 2438.78 1124.12 2438.36 1124.12C2437.47 1124.12 2436.67 1124.32 2435.97 1124.7C2435.28 1125.08 2434.73 1125.61 2434.33 1126.3C2433.93 1126.98 2433.73 1127.76 2433.73 1128.65V1141H2427.68ZM2453.04 1129.34C2453.04 1132.87 2452.57 1136.12 2451.62 1139.08C2450.69 1142.04 2449.25 1144.79 2447.31 1147.32H2441.52C2442.26 1146.38 2442.95 1145.23 2443.58 1143.88C2444.22 1142.53 2444.77 1141.05 2445.25 1139.45C2445.72 1137.84 2446.09 1136.17 2446.35 1134.45C2446.62 1132.73 2446.75 1131.02 2446.75 1129.34C2446.75 1127.09 2446.52 1124.83 2446.06 1122.55C2445.6 1120.25 2444.98 1118.13 2444.18 1116.18C2443.39 1114.22 2442.51 1112.62 2441.52 1111.37H2447.31C2449.25 1113.89 2450.69 1116.64 2451.62 1119.61C2452.57 1122.57 2453.04 1125.81 2453.04 1129.34Z" fill="black"/>
<rect x="2049.31" y="1524.84" width="400" height="60" rx="30" transform="rotate(-45 2049.31 1524.84)" fill="#FF8200"/>
<g filter="url(#filter4_d_378_635)">
<path d="M2209.75 1401.3L2205.35 1405.7C2204.7 1405.21 2204.03 1404.87 2203.34 1404.67C2202.64 1404.47 2201.94 1404.41 2201.24 1404.48C2200.54 1404.56 2199.85 1404.76 2199.17 1405.11C2198.5 1405.44 2197.87 1405.9 2197.28 1406.49C2196.22 1407.56 2195.56 1408.75 2195.3 1410.07C2195.03 1411.38 2195.18 1412.76 2195.75 1414.2C2196.31 1415.63 2197.3 1417.06 2198.73 1418.48C2200.2 1419.95 2201.65 1420.96 2203.08 1421.53C2204.52 1422.08 2205.89 1422.22 2207.19 1421.94C2208.49 1421.66 2209.66 1421 2210.69 1419.96C2211.28 1419.38 2211.74 1418.76 2212.08 1418.11C2212.43 1417.46 2212.65 1416.79 2212.74 1416.1C2212.83 1415.41 2212.79 1414.73 2212.61 1414.04C2212.44 1413.35 2212.14 1412.69 2211.69 1412.04L2216.11 1407.66C2216.94 1408.71 2217.56 1409.91 2217.98 1411.24C2218.41 1412.56 2218.58 1413.95 2218.51 1415.4C2218.43 1416.84 2218.07 1418.29 2217.42 1419.74C2216.77 1421.18 2215.79 1422.56 2214.47 1423.88C2212.63 1425.71 2210.58 1426.94 2208.3 1427.55C2206.03 1428.16 2203.69 1428.1 2201.28 1427.36C2198.88 1426.62 2196.56 1425.13 2194.32 1422.89C2192.08 1420.65 2190.59 1418.32 2189.86 1415.9C2189.13 1413.49 2189.08 1411.14 2189.7 1408.87C2190.32 1406.59 2191.53 1404.55 2193.34 1402.74C2194.53 1401.55 2195.8 1400.62 2197.15 1399.93C2198.51 1399.24 2199.91 1398.82 2201.34 1398.68C2202.77 1398.52 2204.19 1398.66 2205.61 1399.09C2207.04 1399.51 2208.42 1400.25 2209.75 1401.3ZM2225.39 1412.4L2204.82 1391.83L2212.93 1383.71C2214.49 1382.15 2216.12 1381.12 2217.81 1380.62C2219.5 1380.11 2221.16 1380.09 2222.79 1380.57C2224.41 1381.03 2225.91 1381.94 2227.28 1383.31C2228.64 1384.68 2229.55 1386.18 2230.01 1387.81C2230.46 1389.44 2230.42 1391.11 2229.89 1392.81C2229.36 1394.51 2228.3 1396.14 2226.72 1397.72L2221.55 1402.9L2218.07 1399.41L2222.54 1394.94C2223.37 1394.1 2223.92 1393.27 2224.17 1392.44C2224.43 1391.6 2224.43 1390.78 2224.18 1390C2223.93 1389.2 2223.47 1388.47 2222.8 1387.79C2222.11 1387.11 2221.38 1386.65 2220.6 1386.41C2219.81 1386.17 2219.01 1386.18 2218.18 1386.44C2217.34 1386.7 2216.5 1387.26 2215.65 1388.1L2212.72 1391.03L2229.74 1408.05L2225.39 1412.4Z" fill="white"/>
</g>
<path d="M2123.38 1528.2L2070.04 1581.54C2069.11 1582.48 2067.83 1583 2066.51 1583L1967.29 1583" stroke="#FF8200" stroke-width="10" stroke-linecap="round"/>
<rect x="2047.31" y="1718.69" width="400" height="60" rx="30" transform="rotate(-45 2047.31 1718.69)" fill="#FF8200"/>
<g filter="url(#filter5_d_378_635)">
<path d="M2191.45 1610.34C2190.83 1609.99 2190.2 1609.76 2189.57 1609.64C2188.93 1609.51 2188.3 1609.5 2187.67 1609.61C2187.04 1609.7 2186.42 1609.91 2185.81 1610.24C2185.21 1610.56 2184.62 1611 2184.06 1611.56C2183.01 1612.62 2182.35 1613.8 2182.07 1615.12C2181.81 1616.43 2181.95 1617.81 2182.51 1619.25C2183.05 1620.68 2184.05 1622.11 2185.48 1623.55C2186.91 1624.98 2188.35 1625.98 2189.79 1626.55C2191.23 1627.12 2192.61 1627.27 2193.94 1627C2195.25 1626.73 2196.46 1626.05 2197.54 1624.96C2198.53 1623.98 2199.19 1622.96 2199.54 1621.92C2199.89 1620.86 2199.93 1619.83 2199.65 1618.82C2199.38 1617.8 2198.81 1616.85 2197.93 1615.97L2198.95 1615.22L2193.64 1620.52L2190.37 1617.25L2198.98 1608.64L2201.57 1611.23C2203.38 1613.04 2204.55 1614.98 2205.08 1617.04C2205.61 1619.09 2205.56 1621.14 2204.92 1623.19C2204.28 1625.22 2203.1 1627.1 2201.37 1628.83C2199.44 1630.76 2197.32 1632.03 2195.01 1632.64C2192.69 1633.24 2190.34 1633.16 2187.95 1632.41C2185.56 1631.64 2183.28 1630.17 2181.11 1628C2179.44 1626.33 2178.2 1624.6 2177.37 1622.81C2176.55 1621.01 2176.12 1619.22 2176.09 1617.43C2176.05 1615.64 2176.38 1613.93 2177.07 1612.29C2177.76 1610.65 2178.79 1609.15 2180.14 1607.79C2181.31 1606.62 2182.57 1605.71 2183.91 1605.05C2185.25 1604.38 2186.62 1603.96 2188.01 1603.8C2189.41 1603.63 2190.78 1603.73 2192.13 1604.08C2193.47 1604.43 2194.72 1605.04 2195.87 1605.92L2191.45 1610.34ZM2209.04 1579.46L2229.61 1600.03L2225.85 1603.78L2203.96 1599.79L2203.81 1599.94L2216.75 1612.88L2212.4 1617.23L2191.83 1596.66L2195.65 1592.84L2217.47 1596.9L2217.65 1596.72L2204.71 1583.78L2209.04 1579.46ZM2239.65 1589.99L2232.35 1597.28L2211.78 1576.71L2219.14 1569.36C2221.21 1567.29 2223.4 1565.92 2225.72 1565.25C2228.03 1564.57 2230.35 1564.6 2232.69 1565.33C2235.03 1566.05 2237.27 1567.48 2239.41 1569.62C2241.55 1571.76 2242.98 1574.01 2243.71 1576.36C2244.45 1578.7 2244.48 1581.04 2243.79 1583.37C2243.12 1585.69 2241.74 1587.9 2239.65 1589.99ZM2232.98 1589.21L2235.74 1586.44C2237.03 1585.16 2237.88 1583.85 2238.3 1582.52C2238.72 1581.17 2238.67 1579.79 2238.15 1578.39C2237.63 1576.97 2236.6 1575.49 2235.07 1573.96C2233.55 1572.44 2232.08 1571.42 2230.67 1570.91C2229.26 1570.38 2227.89 1570.33 2226.56 1570.75C2225.23 1571.18 2223.92 1572.03 2222.63 1573.32L2219.86 1576.09L2232.98 1589.21Z" fill="white"/>
</g>
<path d="M2121.38 1722.05L2068.04 1775.39C2067.11 1776.33 2065.83 1776.85 2064.51 1776.85L1965.29 1776.85" stroke="#FF8200" stroke-width="10" stroke-linecap="round"/>
<rect x="1998" y="495.997" width="648" height="429" rx="36" stroke="#00AC00" stroke-width="8"/>
<path d="M2209.28 542.027H2198.97V512.936H2209.37C2212.3 512.936 2214.81 513.519 2216.93 514.684C2219.04 515.839 2220.66 517.501 2221.8 519.669C2222.94 521.838 2223.52 524.433 2223.52 527.453C2223.52 530.484 2222.94 533.088 2221.8 535.266C2220.66 537.444 2219.03 539.115 2216.9 540.28C2214.78 541.445 2212.24 542.027 2209.28 542.027ZM2205.12 536.757H2209.03C2210.85 536.757 2212.38 536.435 2213.62 535.792C2214.87 535.138 2215.8 534.13 2216.43 532.766C2217.06 531.393 2217.38 529.622 2217.38 527.453C2217.38 525.304 2217.06 523.547 2216.43 522.184C2215.8 520.82 2214.87 519.816 2213.63 519.172C2212.39 518.528 2210.86 518.206 2209.04 518.206H2205.12V536.757ZM2236.7 542.453C2234.46 542.453 2232.53 541.999 2230.91 541.09C2229.3 540.171 2228.06 538.874 2227.19 537.198C2226.32 535.512 2225.88 533.519 2225.88 531.218C2225.88 528.973 2226.32 527.004 2227.19 525.309C2228.06 523.614 2229.28 522.292 2230.87 521.346C2232.46 520.399 2234.32 519.925 2236.46 519.925C2237.9 519.925 2239.24 520.157 2240.48 520.621C2241.73 521.076 2242.82 521.762 2243.75 522.681C2244.69 523.599 2245.42 524.755 2245.94 526.147C2246.46 527.529 2246.72 529.149 2246.72 531.005V532.667H2228.29V528.917H2241.02C2241.02 528.045 2240.83 527.274 2240.45 526.601C2240.07 525.929 2239.55 525.403 2238.88 525.025C2238.21 524.636 2237.44 524.442 2236.56 524.442C2235.64 524.442 2234.83 524.655 2234.12 525.081C2233.42 525.498 2232.87 526.061 2232.47 526.772C2232.07 527.472 2231.87 528.254 2231.86 529.115V532.681C2231.86 533.76 2232.06 534.693 2232.46 535.479C2232.86 536.265 2233.44 536.871 2234.17 537.297C2234.91 537.723 2235.79 537.936 2236.8 537.936C2237.48 537.936 2238.09 537.842 2238.65 537.652C2239.21 537.463 2239.69 537.179 2240.08 536.8C2240.48 536.421 2240.78 535.957 2240.99 535.408L2246.59 535.777C2246.31 537.122 2245.72 538.296 2244.84 539.3C2243.97 540.294 2242.84 541.071 2241.46 541.63C2240.09 542.179 2238.5 542.453 2236.7 542.453ZM2269.22 520.209L2261.59 542.027H2254.78L2247.15 520.209H2253.54L2258.07 535.82H2258.3L2262.82 520.209H2269.22ZM2280.36 542.453C2278.11 542.453 2276.18 541.999 2274.56 541.09C2272.95 540.171 2271.71 538.874 2270.84 537.198C2269.97 535.512 2269.53 533.519 2269.53 531.218C2269.53 528.973 2269.97 527.004 2270.84 525.309C2271.71 523.614 2272.94 522.292 2274.52 521.346C2276.11 520.399 2277.98 519.925 2280.12 519.925C2281.56 519.925 2282.9 520.157 2284.14 520.621C2285.39 521.076 2286.48 521.762 2287.4 522.681C2288.34 523.599 2289.07 524.755 2289.59 526.147C2290.11 527.529 2290.37 529.149 2290.37 531.005V532.667H2271.95V528.917H2284.68C2284.68 528.045 2284.49 527.274 2284.11 526.601C2283.73 525.929 2283.2 525.403 2282.53 525.025C2281.87 524.636 2281.1 524.442 2280.22 524.442C2279.3 524.442 2278.48 524.655 2277.77 525.081C2277.07 525.498 2276.52 526.061 2276.12 526.772C2275.73 527.472 2275.52 528.254 2275.51 529.115V532.681C2275.51 533.76 2275.71 534.693 2276.11 535.479C2276.52 536.265 2277.09 536.871 2277.83 537.297C2278.57 537.723 2279.44 537.936 2280.46 537.936C2281.13 537.936 2281.75 537.842 2282.3 537.652C2282.86 537.463 2283.34 537.179 2283.74 536.8C2284.14 536.421 2284.44 535.957 2284.65 535.408L2290.24 535.777C2289.96 537.122 2289.38 538.296 2288.5 539.3C2287.63 540.294 2286.5 541.071 2285.12 541.63C2283.74 542.179 2282.16 542.453 2280.36 542.453ZM2299.17 512.936V542.027H2293.12V512.936H2299.17ZM2312.68 542.453C2310.47 542.453 2308.56 541.985 2306.95 541.047C2305.35 540.1 2304.12 538.784 2303.25 537.098C2302.37 535.403 2301.94 533.438 2301.94 531.203C2301.94 528.95 2302.37 526.98 2303.25 525.294C2304.12 523.599 2305.35 522.283 2306.95 521.346C2308.56 520.399 2310.47 519.925 2312.68 519.925C2314.88 519.925 2316.79 520.399 2318.39 521.346C2320 522.283 2321.24 523.599 2322.11 525.294C2322.98 526.98 2323.42 528.95 2323.42 531.203C2323.42 533.438 2322.98 535.403 2322.11 537.098C2321.24 538.784 2320 540.1 2318.39 541.047C2316.79 541.985 2314.88 542.453 2312.68 542.453ZM2312.71 537.766C2313.71 537.766 2314.55 537.482 2315.22 536.914C2315.89 536.336 2316.4 535.55 2316.74 534.556C2317.09 533.561 2317.27 532.43 2317.27 531.161C2317.27 529.892 2317.09 528.76 2316.74 527.766C2316.4 526.772 2315.89 525.986 2315.22 525.408C2314.55 524.83 2313.71 524.542 2312.71 524.542C2311.69 524.542 2310.84 524.83 2310.15 525.408C2309.47 525.986 2308.95 526.772 2308.6 527.766C2308.26 528.76 2308.09 529.892 2308.09 531.161C2308.09 532.43 2308.26 533.561 2308.6 534.556C2308.95 535.55 2309.47 536.336 2310.15 536.914C2310.84 537.482 2311.69 537.766 2312.71 537.766ZM2326.15 550.209V520.209H2332.12V523.874H2332.39C2332.65 523.287 2333.04 522.69 2333.54 522.084C2334.05 521.469 2334.71 520.957 2335.53 520.55C2336.35 520.133 2337.37 519.925 2338.59 519.925C2340.18 519.925 2341.65 520.342 2343 521.175C2344.34 521.999 2345.42 523.244 2346.22 524.911C2347.03 526.568 2347.43 528.647 2347.43 531.147C2347.43 533.58 2347.04 535.635 2346.25 537.311C2345.47 538.978 2344.41 540.242 2343.07 541.104C2341.73 541.956 2340.24 542.382 2338.58 542.382C2337.41 542.382 2336.41 542.188 2335.58 541.8C2334.77 541.412 2334.1 540.924 2333.58 540.337C2333.06 539.74 2332.66 539.139 2332.39 538.533H2332.2V550.209H2326.15ZM2332.07 531.118C2332.07 532.416 2332.25 533.547 2332.61 534.513C2332.97 535.479 2333.49 536.232 2334.18 536.772C2334.86 537.302 2335.69 537.567 2336.66 537.567C2337.65 537.567 2338.48 537.297 2339.16 536.757C2339.84 536.208 2340.36 535.451 2340.71 534.485C2341.07 533.509 2341.25 532.387 2341.25 531.118C2341.25 529.859 2341.07 528.751 2340.72 527.794C2340.37 526.838 2339.86 526.09 2339.18 525.55C2338.49 525.01 2337.66 524.74 2336.66 524.74C2335.68 524.74 2334.84 525.001 2334.16 525.522C2333.49 526.042 2332.97 526.781 2332.61 527.738C2332.25 528.694 2332.07 529.821 2332.07 531.118ZM2360.21 542.453C2357.96 542.453 2356.03 541.999 2354.41 541.09C2352.8 540.171 2351.56 538.874 2350.69 537.198C2349.82 535.512 2349.38 533.519 2349.38 531.218C2349.38 528.973 2349.82 527.004 2350.69 525.309C2351.56 523.614 2352.79 522.292 2354.37 521.346C2355.96 520.399 2357.82 519.925 2359.96 519.925C2361.4 519.925 2362.74 520.157 2363.98 520.621C2365.23 521.076 2366.32 521.762 2367.25 522.681C2368.19 523.599 2368.92 524.755 2369.44 526.147C2369.96 527.529 2370.22 529.149 2370.22 531.005V532.667H2351.8V528.917H2364.52C2364.52 528.045 2364.34 527.274 2363.96 526.601C2363.58 525.929 2363.05 525.403 2362.38 525.025C2361.72 524.636 2360.95 524.442 2360.06 524.442C2359.15 524.442 2358.33 524.655 2357.62 525.081C2356.92 525.498 2356.37 526.061 2355.97 526.772C2355.58 527.472 2355.37 528.254 2355.36 529.115V532.681C2355.36 533.76 2355.56 534.693 2355.96 535.479C2356.37 536.265 2356.94 536.871 2357.68 537.297C2358.42 537.723 2359.29 537.936 2360.31 537.936C2360.98 537.936 2361.59 537.842 2362.15 537.652C2362.71 537.463 2363.19 537.179 2363.59 536.8C2363.98 536.421 2364.29 535.957 2364.5 535.408L2370.09 535.777C2369.81 537.122 2369.23 538.296 2368.35 539.3C2367.47 540.294 2366.35 541.071 2364.96 541.63C2363.59 542.179 2362.01 542.453 2360.21 542.453ZM2372.97 542.027V520.209H2378.84V524.016H2379.06C2379.46 522.662 2380.13 521.639 2381.07 520.948C2382 520.247 2383.08 519.897 2384.3 519.897C2384.61 519.897 2384.93 519.916 2385.28 519.953C2385.64 519.991 2385.94 520.043 2386.21 520.11V525.479C2385.92 525.394 2385.53 525.318 2385.03 525.252C2384.53 525.185 2384.07 525.152 2383.65 525.152C2382.76 525.152 2381.97 525.346 2381.26 525.735C2380.57 526.114 2380.02 526.644 2379.62 527.326C2379.22 528.007 2379.02 528.793 2379.02 529.684V542.027H2372.97ZM2396.31 542.027V512.936H2407.79C2409.99 512.936 2411.87 513.358 2413.42 514.201C2414.98 515.034 2416.16 516.194 2416.98 517.681C2417.8 519.158 2418.21 520.863 2418.21 522.794C2418.21 524.726 2417.79 526.431 2416.96 527.908C2416.13 529.385 2414.92 530.536 2413.34 531.36C2411.77 532.184 2409.86 532.596 2407.63 532.596H2400.31V527.667H2406.63C2407.82 527.667 2408.79 527.463 2409.56 527.056C2410.34 526.639 2410.92 526.066 2411.29 525.337C2411.68 524.598 2411.88 523.751 2411.88 522.794C2411.88 521.828 2411.68 520.986 2411.29 520.266C2410.92 519.537 2410.34 518.973 2409.56 518.576C2408.78 518.168 2407.8 517.965 2406.61 517.965H2402.46V542.027H2396.31ZM2446.67 523.121H2440.45C2440.34 522.316 2440.11 521.601 2439.76 520.976C2439.41 520.342 2438.96 519.802 2438.41 519.357C2437.86 518.912 2437.22 518.571 2436.5 518.334C2435.79 518.097 2435.02 517.979 2434.19 517.979C2432.68 517.979 2431.37 518.353 2430.25 519.101C2429.14 519.84 2428.27 520.919 2427.65 522.34C2427.04 523.751 2426.73 525.465 2426.73 527.482C2426.73 529.556 2427.04 531.298 2427.65 532.709C2428.28 534.12 2429.15 535.185 2430.27 535.905C2431.39 536.625 2432.68 536.985 2434.15 536.985C2434.97 536.985 2435.73 536.876 2436.43 536.658C2437.14 536.44 2437.77 536.123 2438.32 535.706C2438.87 535.28 2439.33 534.764 2439.69 534.158C2440.05 533.552 2440.31 532.861 2440.45 532.084L2446.67 532.113C2446.51 533.448 2446.11 534.736 2445.47 535.976C2444.83 537.207 2443.98 538.31 2442.9 539.286C2441.83 540.252 2440.55 541.019 2439.06 541.587C2437.58 542.146 2435.91 542.425 2434.05 542.425C2431.45 542.425 2429.13 541.838 2427.09 540.664C2425.05 539.489 2423.44 537.79 2422.26 535.564C2421.08 533.339 2420.5 530.645 2420.5 527.482C2420.5 524.31 2421.09 521.611 2422.28 519.385C2423.48 517.16 2425.1 515.465 2427.14 514.3C2429.19 513.126 2431.49 512.539 2434.05 512.539C2435.73 512.539 2437.29 512.775 2438.73 513.249C2440.18 513.722 2441.47 514.414 2442.58 515.323C2443.7 516.222 2444.61 517.326 2445.31 518.632C2446.02 519.939 2446.48 521.435 2446.67 523.121Z" fill="black"/>
<path d="M2079.31 575.273C2079.2 574.127 2078.71 573.237 2077.85 572.602C2076.98 571.968 2075.82 571.65 2074.34 571.65C2073.33 571.65 2072.49 571.793 2071.8 572.077C2071.1 572.351 2070.57 572.735 2070.2 573.227C2069.84 573.72 2069.66 574.278 2069.66 574.903C2069.65 575.424 2069.75 575.879 2069.99 576.267C2070.24 576.655 2070.57 576.991 2071 577.275C2071.43 577.55 2071.92 577.792 2072.48 578C2073.04 578.199 2073.63 578.369 2074.27 578.511L2076.88 579.136C2078.15 579.42 2079.31 579.799 2080.38 580.273C2081.44 580.746 2082.35 581.329 2083.13 582.02C2083.91 582.711 2084.51 583.525 2084.93 584.463C2085.37 585.4 2085.59 586.475 2085.6 587.687C2085.59 589.468 2085.14 591.011 2084.24 592.318C2083.35 593.615 2082.06 594.624 2080.38 595.344C2078.7 596.054 2076.68 596.409 2074.31 596.409C2071.96 596.409 2069.92 596.049 2068.17 595.329C2066.44 594.61 2065.09 593.544 2064.11 592.133C2063.14 590.713 2062.64 588.956 2062.59 586.864H2068.54C2068.61 587.839 2068.89 588.653 2069.38 589.307C2069.88 589.951 2070.55 590.438 2071.38 590.77C2072.23 591.092 2073.18 591.253 2074.24 591.253C2075.28 591.253 2076.18 591.101 2076.95 590.798C2077.73 590.495 2078.33 590.074 2078.76 589.534C2079.18 588.994 2079.39 588.374 2079.39 587.673C2079.39 587.02 2079.2 586.471 2078.81 586.025C2078.43 585.58 2077.88 585.202 2077.14 584.889C2076.41 584.577 2075.51 584.293 2074.45 584.037L2071.28 583.241C2068.83 582.645 2066.89 581.712 2065.47 580.443C2064.05 579.174 2063.35 577.465 2063.36 575.315C2063.35 573.554 2063.82 572.015 2064.76 570.699C2065.72 569.382 2067.03 568.355 2068.7 567.616C2070.37 566.878 2072.26 566.508 2074.38 566.508C2076.54 566.508 2078.42 566.878 2080.03 567.616C2081.65 568.355 2082.91 569.382 2083.81 570.699C2084.71 572.015 2085.18 573.54 2085.2 575.273H2079.31ZM2098.37 596.423C2096.12 596.423 2094.19 595.969 2092.57 595.06C2090.96 594.141 2089.72 592.844 2088.85 591.168C2087.98 589.482 2087.55 587.489 2087.55 585.187C2087.55 582.943 2087.98 580.973 2088.85 579.278C2089.72 577.583 2090.95 576.262 2092.53 575.315C2094.12 574.368 2095.99 573.895 2098.13 573.895C2099.57 573.895 2100.91 574.127 2102.15 574.591C2103.4 575.045 2104.49 575.732 2105.41 576.65C2106.35 577.569 2107.08 578.724 2107.6 580.116C2108.12 581.499 2108.38 583.118 2108.38 584.974V586.636H2089.96V582.886H2102.69C2102.69 582.015 2102.5 581.243 2102.12 580.571C2101.74 579.899 2101.21 579.373 2100.54 578.994C2099.88 578.606 2099.11 578.412 2098.23 578.412C2097.31 578.412 2096.49 578.625 2095.78 579.051C2095.08 579.468 2094.53 580.031 2094.14 580.741C2093.74 581.442 2093.53 582.223 2093.53 583.085V586.65C2093.53 587.73 2093.72 588.663 2094.12 589.449C2094.53 590.235 2095.1 590.841 2095.84 591.267C2096.58 591.693 2097.46 591.906 2098.47 591.906C2099.14 591.906 2099.76 591.811 2100.31 591.622C2100.87 591.433 2101.35 591.149 2101.75 590.77C2102.15 590.391 2102.45 589.927 2102.66 589.378L2108.26 589.747C2107.97 591.092 2107.39 592.266 2106.51 593.27C2105.64 594.264 2104.51 595.041 2103.13 595.599C2101.75 596.149 2100.17 596.423 2098.37 596.423ZM2111.13 595.997V574.179H2117V577.986H2117.23C2117.62 576.632 2118.29 575.609 2119.23 574.918C2120.17 574.217 2121.25 573.866 2122.47 573.866C2122.77 573.866 2123.1 573.885 2123.45 573.923C2123.8 573.961 2124.11 574.013 2124.37 574.079V579.449C2124.09 579.364 2123.69 579.288 2123.19 579.222C2122.69 579.155 2122.23 579.122 2121.81 579.122C2120.92 579.122 2120.13 579.316 2119.43 579.704C2118.74 580.083 2118.19 580.614 2117.78 581.295C2117.38 581.977 2117.18 582.763 2117.18 583.653V595.997H2111.13ZM2126.3 595.997V574.179H2132.35V595.997H2126.3ZM2129.34 571.366C2128.44 571.366 2127.67 571.068 2127.02 570.472C2126.39 569.865 2126.07 569.141 2126.07 568.298C2126.07 567.465 2126.39 566.75 2127.02 566.153C2127.67 565.547 2128.44 565.244 2129.34 565.244C2130.24 565.244 2131.01 565.547 2131.64 566.153C2132.28 566.75 2132.61 567.465 2132.61 568.298C2132.61 569.141 2132.28 569.865 2131.64 570.472C2131.01 571.068 2130.24 571.366 2129.34 571.366ZM2142.22 596.409C2140.83 596.409 2139.59 596.168 2138.5 595.685C2137.41 595.192 2136.55 594.468 2135.91 593.511C2135.29 592.545 2134.97 591.343 2134.97 589.903C2134.97 588.691 2135.2 587.673 2135.64 586.849C2136.09 586.025 2136.69 585.363 2137.46 584.861C2138.23 584.359 2139.1 583.98 2140.07 583.724C2141.06 583.469 2142.09 583.289 2143.17 583.185C2144.44 583.052 2145.46 582.929 2146.24 582.815C2147.02 582.692 2147.58 582.512 2147.93 582.275C2148.28 582.039 2148.45 581.688 2148.45 581.224V581.139C2148.45 580.239 2148.17 579.543 2147.6 579.051C2147.04 578.559 2146.25 578.312 2145.22 578.312C2144.13 578.312 2143.26 578.554 2142.62 579.037C2141.97 579.51 2141.55 580.107 2141.34 580.827L2135.74 580.372C2136.03 579.046 2136.58 577.9 2137.42 576.935C2138.25 575.959 2139.33 575.211 2140.64 574.69C2141.97 574.16 2143.5 573.895 2145.24 573.895C2146.46 573.895 2147.62 574.037 2148.72 574.321C2149.84 574.605 2150.83 575.045 2151.69 575.642C2152.56 576.239 2153.25 577.006 2153.75 577.943C2154.26 578.871 2154.51 579.984 2154.51 581.281V595.997H2148.77V592.972H2148.6C2148.25 593.653 2147.78 594.255 2147.19 594.775C2146.6 595.287 2145.9 595.689 2145.07 595.983C2144.25 596.267 2143.3 596.409 2142.22 596.409ZM2143.95 592.233C2144.84 592.233 2145.63 592.058 2146.31 591.707C2146.99 591.347 2147.53 590.864 2147.92 590.258C2148.3 589.652 2148.5 588.966 2148.5 588.199V585.883C2148.31 586.007 2148.05 586.12 2147.72 586.224C2147.39 586.319 2147.03 586.409 2146.62 586.494C2146.22 586.57 2145.81 586.641 2145.4 586.707C2144.99 586.764 2144.62 586.816 2144.29 586.864C2143.58 586.968 2142.96 587.133 2142.43 587.361C2141.9 587.588 2141.49 587.896 2141.2 588.284C2140.9 588.663 2140.76 589.136 2140.76 589.704C2140.76 590.528 2141.05 591.158 2141.65 591.594C2142.26 592.02 2143.02 592.233 2143.95 592.233ZM2164.05 566.906V595.997H2158V566.906H2164.05Z" fill="black"/>
<path d="M2063.53 863.997V834.906H2083.13V839.977H2069.68V846.909H2082.12V851.98H2069.68V858.926H2083.19V863.997H2063.53ZM2098.31 842.179V846.724H2085.17V842.179H2098.31ZM2088.16 836.952H2094.21V857.293C2094.21 857.851 2094.29 858.287 2094.46 858.599C2094.63 858.902 2094.87 859.115 2095.17 859.239C2095.49 859.362 2095.85 859.423 2096.25 859.423C2096.54 859.423 2096.82 859.4 2097.1 859.352C2097.39 859.295 2097.61 859.253 2097.76 859.224L2098.71 863.727C2098.41 863.822 2097.98 863.931 2097.43 864.054C2096.88 864.186 2096.21 864.267 2095.43 864.295C2093.97 864.352 2092.69 864.158 2091.59 863.713C2090.5 863.268 2089.66 862.577 2089.05 861.639C2088.44 860.702 2088.15 859.518 2088.16 858.088V836.952ZM2107.57 851.383V863.997H2101.52V834.906H2107.4V846.028H2107.66C2108.15 844.74 2108.95 843.732 2110.05 843.003C2111.14 842.264 2112.52 841.895 2114.18 841.895C2115.69 841.895 2117.02 842.226 2118.14 842.889C2119.28 843.543 2120.16 844.485 2120.78 845.716C2121.42 846.937 2121.73 848.4 2121.72 850.105V863.997H2115.67V851.185C2115.68 849.84 2115.34 848.793 2114.65 848.045C2113.97 847.297 2113.01 846.923 2111.78 846.923C2110.95 846.923 2110.23 847.098 2109.59 847.449C2108.97 847.799 2108.47 848.311 2108.11 848.983C2107.76 849.646 2107.58 850.446 2107.57 851.383Z" fill="black"/>
<path d="M1837.14 730.409C1835.74 730.409 1834.5 730.168 1833.41 729.685C1832.33 729.192 1831.46 728.468 1830.83 727.511C1830.2 726.545 1829.89 725.343 1829.89 723.903C1829.89 722.691 1830.11 721.673 1830.56 720.849C1831 720.025 1831.61 719.363 1832.38 718.861C1833.14 718.359 1834.02 717.98 1834.99 717.724C1835.98 717.469 1837.01 717.289 1838.09 717.185C1839.36 717.052 1840.38 716.929 1841.16 716.815C1841.93 716.692 1842.5 716.512 1842.85 716.275C1843.2 716.039 1843.37 715.688 1843.37 715.224V715.139C1843.37 714.239 1843.09 713.543 1842.52 713.051C1841.96 712.559 1841.17 712.312 1840.13 712.312C1839.04 712.312 1838.18 712.554 1837.53 713.037C1836.89 713.51 1836.46 714.107 1836.26 714.827L1830.66 714.372C1830.94 713.046 1831.5 711.9 1832.34 710.935C1833.17 709.959 1834.24 709.211 1835.56 708.69C1836.89 708.16 1838.42 707.895 1840.16 707.895C1841.37 707.895 1842.53 708.037 1843.64 708.321C1844.76 708.605 1845.75 709.045 1846.61 709.642C1847.48 710.239 1848.17 711.006 1848.67 711.943C1849.17 712.871 1849.42 713.984 1849.42 715.281V729.997H1843.68V726.972H1843.51C1843.16 727.653 1842.7 728.255 1842.11 728.775C1841.52 729.287 1840.82 729.689 1839.99 729.983C1839.17 730.267 1838.22 730.409 1837.14 730.409ZM1838.87 726.233C1839.76 726.233 1840.55 726.058 1841.23 725.707C1841.91 725.347 1842.44 724.864 1842.83 724.258C1843.22 723.652 1843.41 722.966 1843.41 722.199V719.883C1843.23 720.007 1842.96 720.12 1842.63 720.224C1842.31 720.319 1841.95 720.409 1841.54 720.494C1841.13 720.57 1840.73 720.641 1840.32 720.707C1839.91 720.764 1839.54 720.816 1839.21 720.864C1838.5 720.968 1837.88 721.133 1837.35 721.361C1836.82 721.588 1836.41 721.896 1836.11 722.284C1835.82 722.663 1835.67 723.136 1835.67 723.704C1835.67 724.528 1835.97 725.158 1836.57 725.594C1837.17 726.02 1837.94 726.233 1838.87 726.233ZM1858.97 717.383V729.997H1852.92V708.179H1858.68V712.028H1858.94C1859.42 710.759 1860.23 709.756 1861.37 709.017C1862.51 708.269 1863.88 707.895 1865.5 707.895C1867.02 707.895 1868.34 708.226 1869.47 708.889C1870.59 709.552 1871.47 710.499 1872.09 711.73C1872.72 712.952 1873.03 714.41 1873.03 716.105V729.997H1866.98V717.185C1866.99 715.849 1866.65 714.808 1865.96 714.06C1865.27 713.302 1864.31 712.923 1863.1 712.923C1862.29 712.923 1861.57 713.098 1860.94 713.449C1860.33 713.799 1859.84 714.311 1859.49 714.983C1859.15 715.646 1858.98 716.446 1858.97 717.383ZM1884.64 730.352C1882.98 730.352 1881.48 729.926 1880.14 729.074C1878.8 728.212 1877.74 726.948 1876.96 725.281C1876.18 723.605 1875.79 721.55 1875.79 719.116C1875.79 716.616 1876.19 714.538 1877 712.881C1877.8 711.214 1878.87 709.969 1880.21 709.145C1881.55 708.311 1883.03 707.895 1884.63 707.895C1885.85 707.895 1886.87 708.103 1887.68 708.52C1888.5 708.927 1889.17 709.438 1889.67 710.054C1890.18 710.66 1890.57 711.257 1890.83 711.844H1891.02V700.906H1897.06V729.997H1891.09V726.503H1890.83C1890.55 727.109 1890.15 727.71 1889.63 728.307C1889.11 728.894 1888.45 729.382 1887.62 729.77C1886.81 730.158 1885.81 730.352 1884.64 730.352ZM1886.56 725.537C1887.53 725.537 1888.36 725.272 1889.03 724.741C1889.71 724.202 1890.23 723.449 1890.59 722.483C1890.96 721.517 1891.15 720.385 1891.15 719.088C1891.15 717.791 1890.97 716.664 1890.61 715.707C1890.25 714.751 1889.73 714.012 1889.04 713.491C1888.36 712.971 1887.53 712.71 1886.56 712.71C1885.56 712.71 1884.73 712.98 1884.04 713.52C1883.36 714.06 1882.85 714.808 1882.5 715.764C1882.15 716.721 1881.97 717.829 1881.97 719.088C1881.97 720.357 1882.15 721.479 1882.5 722.454C1882.86 723.42 1883.37 724.178 1884.04 724.727C1884.73 725.267 1885.56 725.537 1886.56 725.537ZM1913.5 699.543L1904.13 734.372H1898.91L1908.29 699.543H1913.5ZM1925.07 730.423C1922.87 730.423 1920.96 729.954 1919.35 729.017C1917.75 728.07 1916.51 726.754 1915.64 725.068C1914.77 723.373 1914.34 721.408 1914.34 719.173C1914.34 716.919 1914.77 714.95 1915.64 713.264C1916.51 711.569 1917.75 710.253 1919.35 709.315C1920.96 708.368 1922.87 707.895 1925.07 707.895C1927.28 707.895 1929.18 708.368 1930.78 709.315C1932.39 710.253 1933.63 711.569 1934.51 713.264C1935.38 714.95 1935.81 716.919 1935.81 719.173C1935.81 721.408 1935.38 723.373 1934.51 725.068C1933.63 726.754 1932.39 728.07 1930.78 729.017C1929.18 729.954 1927.28 730.423 1925.07 730.423ZM1925.1 725.736C1926.11 725.736 1926.94 725.452 1927.62 724.883C1928.29 724.306 1928.8 723.52 1929.14 722.525C1929.49 721.531 1929.66 720.4 1929.66 719.131C1929.66 717.862 1929.49 716.73 1929.14 715.736C1928.8 714.741 1928.29 713.955 1927.62 713.378C1926.94 712.8 1926.11 712.511 1925.1 712.511C1924.09 712.511 1923.24 712.8 1922.55 713.378C1921.86 713.955 1921.35 714.741 1921 715.736C1920.66 716.73 1920.49 717.862 1920.49 719.131C1920.49 720.4 1920.66 721.531 1921 722.525C1921.35 723.52 1921.86 724.306 1922.55 724.883C1923.24 725.452 1924.09 725.736 1925.1 725.736ZM1938.55 729.997V708.179H1944.41V711.986H1944.64C1945.04 710.632 1945.71 709.609 1946.64 708.918C1947.58 708.217 1948.66 707.866 1949.88 707.866C1950.19 707.866 1950.51 707.885 1950.86 707.923C1951.21 707.961 1951.52 708.013 1951.79 708.079V713.449C1951.5 713.364 1951.11 713.288 1950.61 713.222C1950.11 713.155 1949.65 713.122 1949.23 713.122C1948.34 713.122 1947.54 713.316 1946.84 713.704C1946.15 714.083 1945.6 714.614 1945.2 715.295C1944.8 715.977 1944.6 716.763 1944.6 717.653V729.997H1938.55Z" fill="black"/>
<rect x="1998" y="165.997" width="648" height="294" rx="36" stroke="#FF0800" stroke-width="8"/>
<path d="M2285.58 218.591V189.5H2297.06C2299.27 189.5 2301.15 189.921 2302.7 190.764C2304.25 191.597 2305.44 192.757 2306.25 194.244C2307.08 195.722 2307.49 197.426 2307.49 199.358C2307.49 201.29 2307.07 202.994 2306.24 204.472C2305.4 205.949 2304.2 207.099 2302.62 207.923C2301.04 208.747 2299.14 209.159 2296.9 209.159H2289.59V204.23H2295.91C2297.09 204.23 2298.07 204.026 2298.84 203.619C2299.61 203.203 2300.19 202.63 2300.57 201.9C2300.96 201.162 2301.15 200.314 2301.15 199.358C2301.15 198.392 2300.96 197.549 2300.57 196.829C2300.19 196.1 2299.61 195.537 2298.84 195.139C2298.06 194.732 2297.08 194.528 2295.88 194.528H2291.73V218.591H2285.58ZM2326.06 197.866C2325.95 196.721 2325.46 195.83 2324.6 195.196C2323.74 194.561 2322.57 194.244 2321.09 194.244C2320.09 194.244 2319.24 194.386 2318.55 194.67C2317.86 194.945 2317.33 195.329 2316.96 195.821C2316.6 196.313 2316.42 196.872 2316.42 197.497C2316.4 198.018 2316.51 198.472 2316.75 198.861C2316.99 199.249 2317.33 199.585 2317.75 199.869C2318.18 200.144 2318.67 200.385 2319.23 200.594C2319.79 200.793 2320.39 200.963 2321.02 201.105L2323.63 201.73C2324.9 202.014 2326.07 202.393 2327.13 202.866C2328.19 203.34 2329.11 203.922 2329.88 204.614C2330.66 205.305 2331.26 206.119 2331.69 207.057C2332.12 207.994 2332.35 209.069 2332.36 210.281C2332.35 212.061 2331.89 213.605 2330.99 214.912C2330.1 216.209 2328.81 217.218 2327.13 217.937C2325.45 218.648 2323.43 219.003 2321.06 219.003C2318.72 219.003 2316.67 218.643 2314.93 217.923C2313.19 217.204 2311.84 216.138 2310.86 214.727C2309.9 213.307 2309.39 211.55 2309.34 209.457H2315.3C2315.36 210.433 2315.64 211.247 2316.13 211.9C2316.64 212.544 2317.3 213.032 2318.14 213.364C2318.98 213.686 2319.93 213.847 2320.99 213.847C2322.03 213.847 2322.94 213.695 2323.71 213.392C2324.48 213.089 2325.08 212.668 2325.51 212.128C2325.94 211.588 2326.15 210.968 2326.15 210.267C2326.15 209.614 2325.95 209.064 2325.57 208.619C2325.19 208.174 2324.63 207.795 2323.89 207.483C2323.16 207.17 2322.27 206.886 2321.21 206.631L2318.04 205.835C2315.59 205.239 2313.65 204.306 2312.23 203.037C2310.81 201.768 2310.1 200.059 2310.11 197.909C2310.1 196.148 2310.57 194.609 2311.52 193.293C2312.47 191.976 2313.79 190.949 2315.45 190.21C2317.12 189.472 2319.01 189.102 2321.13 189.102C2323.29 189.102 2325.18 189.472 2326.79 190.21C2328.41 190.949 2329.67 191.976 2330.57 193.293C2331.47 194.609 2331.93 196.133 2331.96 197.866H2326.06ZM2353.26 189.5H2359.41V208.392C2359.41 210.513 2358.91 212.369 2357.89 213.96C2356.89 215.551 2355.48 216.792 2353.67 217.682C2351.87 218.562 2349.76 219.003 2347.35 219.003C2344.94 219.003 2342.83 218.562 2341.02 217.682C2339.21 216.792 2337.8 215.551 2336.8 213.96C2335.8 212.369 2335.29 210.513 2335.29 208.392V189.5H2341.44V207.866C2341.44 208.974 2341.69 209.959 2342.17 210.821C2342.66 211.683 2343.35 212.36 2344.24 212.852C2345.13 213.345 2346.17 213.591 2347.35 213.591C2348.55 213.591 2349.58 213.345 2350.46 212.852C2351.35 212.36 2352.04 211.683 2352.52 210.821C2353.02 209.959 2353.26 208.974 2353.26 207.866V189.5Z" fill="black"/>
<path d="M2049.96 257.014V236.9H2055.04V257.014H2049.96ZM2042.44 249.5V244.415H2062.56V249.5H2042.44Z" fill="#FF0900"/>
<path d="M2059.13 334.244V339.045H2045.87V334.244H2059.13Z" fill="black"/>
<path d="M2228.79 288.088V338.997H2218.03V298.305H2217.73L2206.07 305.613V296.067L2218.67 288.088H2228.79ZM2238.79 338.997V331.241L2256.91 314.462C2258.45 312.971 2259.75 311.628 2260.79 310.435C2261.85 309.242 2262.65 308.074 2263.2 306.93C2263.75 305.77 2264.02 304.519 2264.02 303.177C2264.02 301.685 2263.68 300.401 2263 299.324C2262.32 298.23 2261.39 297.393 2260.22 296.813C2259.04 296.217 2257.71 295.918 2256.22 295.918C2254.66 295.918 2253.3 296.233 2252.14 296.863C2250.98 297.493 2250.08 298.396 2249.45 299.572C2248.82 300.749 2248.51 302.149 2248.51 303.773H2238.29C2238.29 300.442 2239.05 297.551 2240.56 295.098C2242.06 292.645 2244.18 290.748 2246.89 289.405C2249.61 288.063 2252.74 287.392 2256.29 287.392C2259.94 287.392 2263.11 288.038 2265.81 289.331C2268.53 290.607 2270.64 292.38 2272.15 294.65C2273.66 296.921 2274.41 299.523 2274.41 302.456C2274.41 304.378 2274.03 306.276 2273.27 308.148C2272.52 310.021 2271.19 312.101 2269.27 314.388C2267.34 316.658 2264.63 319.384 2261.14 322.566L2253.7 329.849V330.197H2275.08V338.997H2238.79ZM2304.38 288.088L2316.68 326.767H2317.16L2329.49 288.088H2341.42L2323.87 338.997H2310L2292.42 288.088H2304.38ZM2363.49 338.997H2345.44V288.088H2363.64C2368.76 288.088 2373.17 289.107 2376.87 291.146C2380.56 293.167 2383.4 296.076 2385.39 299.871C2387.4 303.666 2388.4 308.206 2388.4 313.493C2388.4 318.796 2387.4 323.353 2385.39 327.165C2383.4 330.976 2380.54 333.901 2376.82 335.94C2373.1 337.978 2368.66 338.997 2363.49 338.997ZM2356.21 329.775H2363.04C2366.23 329.775 2368.9 329.211 2371.07 328.084C2373.26 326.941 2374.9 325.176 2376 322.79C2377.11 320.387 2377.66 317.288 2377.66 313.493C2377.66 309.731 2377.11 306.657 2376 304.271C2374.9 301.884 2373.27 300.128 2371.1 299.001C2368.93 297.874 2366.25 297.31 2363.07 297.31H2356.21V329.775ZM2439.19 305.911H2428.3C2428.1 304.503 2427.7 303.251 2427.08 302.158C2426.47 301.047 2425.68 300.103 2424.72 299.324C2423.76 298.545 2422.65 297.948 2421.39 297.534C2420.15 297.12 2418.8 296.913 2417.34 296.913C2414.71 296.913 2412.41 297.567 2410.45 298.876C2408.5 300.169 2406.98 302.058 2405.91 304.544C2404.83 307.013 2404.29 310.013 2404.29 313.543C2404.29 317.172 2404.83 320.221 2405.91 322.69C2407 325.159 2408.52 327.024 2410.48 328.283C2412.44 329.543 2414.7 330.172 2417.27 330.172C2418.71 330.172 2420.04 329.982 2421.27 329.601C2422.51 329.22 2423.61 328.664 2424.57 327.935C2425.54 327.19 2426.33 326.286 2426.96 325.226C2427.61 324.165 2428.05 322.955 2428.3 321.597L2439.19 321.646C2438.91 323.983 2438.2 326.237 2437.08 328.408C2435.97 330.562 2434.47 332.493 2432.58 334.199C2430.71 335.89 2428.47 337.232 2425.87 338.226C2423.28 339.204 2420.36 339.693 2417.09 339.693C2412.55 339.693 2408.49 338.666 2404.91 336.611C2401.35 334.556 2398.53 331.581 2396.46 327.687C2394.4 323.792 2393.38 319.078 2393.38 313.543C2393.38 307.991 2394.42 303.268 2396.51 299.373C2398.6 295.479 2401.43 292.513 2405.01 290.474C2408.59 288.419 2412.62 287.392 2417.09 287.392C2420.04 287.392 2422.78 287.806 2425.3 288.635C2427.83 289.463 2430.08 290.673 2432.03 292.264C2433.99 293.838 2435.58 295.769 2436.8 298.056C2438.05 300.343 2438.84 302.961 2439.19 305.911Z" fill="#FF0900"/>
<rect x="406" y="586.997" width="805" height="703" stroke="#FF8200" stroke-width="6" stroke-linecap="round" stroke-linejoin="round"/>
<rect x="7" y="256.997" width="1451" height="1195" rx="5" stroke="#FF8200" stroke-width="10" stroke-linecap="round" stroke-linejoin="round"/>
<rect x="699" y="750.997" width="357" height="351" stroke="#FF8200" stroke-width="6" stroke-linecap="round" stroke-dasharray="2 8 2 8"/>
<rect x="785" y="892.997" width="118" height="118" stroke="#FF8200" stroke-width="3" stroke-linecap="round" stroke-linejoin="round"/>
<rect x="720" y="762.997" width="133" height="118" stroke="#FF8200" stroke-width="3" stroke-linecap="round" stroke-linejoin="round"/>
<rect x="921" y="812.997" width="73" height="68" stroke="#FF8200" stroke-width="3" stroke-linecap="round" stroke-linejoin="round"/>
<rect x="921" y="942.997" width="102" height="145" stroke="#FF8200" stroke-width="3" stroke-linecap="round" stroke-linejoin="round"/>
<circle cx="446" cy="625.997" r="19.5" stroke="#FF8200" stroke-width="3"/>
<circle cx="446" cy="1251" r="19.5" stroke="#FF8200" stroke-width="3"/>
<circle cx="1177" cy="625.997" r="19.5" stroke="#FF8200" stroke-width="3"/>
<circle cx="1177" cy="1251" r="19.5" stroke="#FF8200" stroke-width="3"/>
<path d="M201 1485V1406.5H302V1485L284.5 1502.5H218.5L201 1485Z" fill="#FF8200"/>
<path d="M348 1485V1406.5H449V1485L431.5 1502.5H365.5L348 1485Z" fill="#FF8200"/>
<path d="M495 1485.5V1407H596V1485.5L578.5 1503H512.5L495 1485.5Z" fill="#FF8200"/>
<path d="M642 1485.5V1407H743V1485.5L725.5 1503H659.5L642 1485.5Z" fill="#FF8200"/>
<path d="M31 1485V1401H153V1485L135.5 1502.5H48.5L31 1485Z" fill="#FF8200"/>
<rect x="1031" y="1306" width="165" height="220" rx="4" fill="#FF8200"/>
<rect x="817" y="1354" width="133" height="172" rx="4" fill="#FF8200"/>
<rect x="1226" y="439.997" width="28" height="147" rx="4" fill="#FF8200"/>
<rect x="1338" y="299.997" width="120" height="105" rx="4" fill="#FF8200"/>
<rect x="1104" y="505.997" width="73" height="67" rx="4" fill="#FF8200"/>
<rect x="17" y="265.997" width="136" height="147" rx="4" fill="#FF8200"/>
<rect x="767" y="255.997" width="77" height="46" rx="4" fill="#FF8200"/>
<rect x="263" y="255.997" width="77" height="46" rx="4" fill="#FF8200"/>
<rect x="159" y="305.997" width="166" height="89" rx="4" fill="#FF8200"/>
<rect x="881" y="255.997" width="77" height="46" rx="4" fill="#FF8200"/>
<rect x="1007" y="255.997" width="77" height="46" rx="4" fill="#FF8200"/>
<rect x="1396" y="1172" width="36" height="79" rx="4" fill="#FF8200"/>
<rect x="1388" y="1452" width="58" height="20" rx="4" fill="#FF8200"/>
<rect x="1263" y="1451" width="58" height="21" rx="4" fill="#FF8200"/>
<rect x="1277" y="1466" width="30" height="21" rx="4" fill="#FF8200"/>
<rect x="1402" y="1466" width="30" height="21" rx="4" fill="#FF8200"/>
<rect x="1136" y="255.997" width="146" height="157" rx="4" fill="#FF8200"/>
<rect x="825" y="505.997" width="250" height="67" rx="4" fill="#FF8200"/>
<rect x="458" y="472.997" width="337" height="100" rx="4" fill="#FF8200"/>
<rect x="71" y="450.997" width="254" height="89" rx="4" fill="#FF8200"/>
<rect x="56" y="1016" width="284" height="100" rx="4" fill="#FF8200"/>
<rect x="358" y="255.997" width="317" height="79" rx="4" fill="#FF8200"/>
<rect x="1328.5" y="1411.5" width="48" height="24" rx="2.5" fill="black" stroke="#FF8200" stroke-width="3"/>
<path d="M1335.29 1431V1416.45H1338.37V1428.46H1344.6V1431H1335.29ZM1346.04 1431V1416.45H1355.84V1418.99H1349.11V1422.45H1355.34V1424.99H1349.11V1428.46H1355.87V1431H1346.04ZM1362.84 1431H1357.69V1416.45H1362.88C1364.35 1416.45 1365.61 1416.74 1366.66 1417.33C1367.72 1417.9 1368.53 1418.73 1369.1 1419.82C1369.67 1420.9 1369.96 1422.2 1369.96 1423.71C1369.96 1425.23 1369.67 1426.53 1369.1 1427.62C1368.53 1428.71 1367.71 1429.54 1366.65 1430.12C1365.59 1430.71 1364.32 1431 1362.84 1431ZM1360.76 1428.36H1362.71C1363.62 1428.36 1364.39 1428.2 1365.01 1427.88C1365.63 1427.55 1366.1 1427.05 1366.41 1426.37C1366.73 1425.68 1366.89 1424.79 1366.89 1423.71C1366.89 1422.64 1366.73 1421.76 1366.41 1421.08C1366.1 1420.39 1365.64 1419.89 1365.02 1419.57C1364.39 1419.25 1363.63 1419.09 1362.72 1419.09H1360.76V1428.36Z" fill="white"/>
<circle cx="41" cy="497.997" r="17" stroke="#FF8200" stroke-width="6"/>
<circle cx="41" cy="1308" r="17" stroke="#FF8200" stroke-width="6"/>
<circle cx="1416" cy="497.997" r="17" stroke="#FF8200" stroke-width="6"/>
<circle cx="1416" cy="1308" r="17" stroke="#FF8200" stroke-width="6"/>
<path d="M1367.36 327.906L1373.23 337.821H1373.45L1379.35 327.906H1386.29L1377.42 342.452L1386.49 356.997H1379.42L1373.45 347.068H1373.23L1367.26 356.997H1360.21L1369.32 342.452L1360.38 327.906H1367.36ZM1388.81 356.997V352.565L1399.17 342.977C1400.05 342.125 1400.79 341.358 1401.39 340.676C1401.99 339.994 1402.45 339.327 1402.76 338.673C1403.08 338.01 1403.23 337.295 1403.23 336.528C1403.23 335.676 1403.04 334.942 1402.65 334.327C1402.26 333.702 1401.73 333.223 1401.06 332.892C1400.39 332.551 1399.62 332.381 1398.77 332.381C1397.88 332.381 1397.11 332.561 1396.44 332.92C1395.78 333.28 1395.27 333.796 1394.91 334.469C1394.55 335.141 1394.37 335.941 1394.37 336.869H1388.53C1388.53 334.966 1388.96 333.313 1389.82 331.912C1390.69 330.51 1391.89 329.426 1393.45 328.659C1395 327.892 1396.79 327.508 1398.81 327.508C1400.9 327.508 1402.71 327.878 1404.26 328.616C1405.81 329.346 1407.02 330.359 1407.88 331.656C1408.74 332.954 1409.17 334.44 1409.17 336.116C1409.17 337.215 1408.95 338.299 1408.52 339.369C1408.09 340.439 1407.33 341.628 1406.23 342.935C1405.13 344.232 1403.58 345.79 1401.58 347.608L1397.34 351.77V351.969H1409.55V356.997H1388.81ZM1411.74 351.883V347.04L1423.89 327.906H1428.07V334.611H1425.59L1417.94 346.727V346.954H1435.2V351.883H1411.74ZM1425.71 356.997V350.406L1425.82 348.261V327.906H1431.59V356.997H1425.71Z" fill="white"/>
<path d="M1083.38 1481.91L1089.24 1491.82H1089.47L1095.37 1481.91H1102.31L1093.44 1496.45L1102.51 1511H1095.44L1089.47 1501.07H1089.24L1083.28 1511H1076.23L1085.34 1496.45L1076.4 1481.91H1083.38ZM1104.83 1511V1506.57L1115.19 1496.98C1116.07 1496.12 1116.81 1495.36 1117.41 1494.68C1118.01 1493.99 1118.47 1493.33 1118.78 1492.67C1119.1 1492.01 1119.25 1491.3 1119.25 1490.53C1119.25 1489.68 1119.06 1488.94 1118.67 1488.33C1118.28 1487.7 1117.75 1487.22 1117.08 1486.89C1116.41 1486.55 1115.64 1486.38 1114.79 1486.38C1113.9 1486.38 1113.13 1486.56 1112.46 1486.92C1111.8 1487.28 1111.29 1487.8 1110.93 1488.47C1110.57 1489.14 1110.39 1489.94 1110.39 1490.87H1104.55C1104.55 1488.97 1104.98 1487.31 1105.84 1485.91C1106.7 1484.51 1107.91 1483.43 1109.47 1482.66C1111.02 1481.89 1112.81 1481.51 1114.83 1481.51C1116.92 1481.51 1118.73 1481.88 1120.27 1482.62C1121.83 1483.35 1123.04 1484.36 1123.9 1485.66C1124.76 1486.95 1125.19 1488.44 1125.19 1490.12C1125.19 1491.21 1124.97 1492.3 1124.54 1493.37C1124.11 1494.44 1123.35 1495.63 1122.25 1496.93C1121.15 1498.23 1119.6 1499.79 1117.6 1501.61L1113.36 1505.77V1505.97H1125.57V1511H1104.83ZM1139.68 1511.39C1137.49 1511.39 1135.55 1511.04 1133.84 1510.33C1132.15 1509.61 1130.82 1508.63 1129.85 1507.39C1128.89 1506.15 1128.4 1504.74 1128.4 1503.17C1128.4 1501.96 1128.68 1500.85 1129.23 1499.83C1129.79 1498.81 1130.54 1497.96 1131.5 1497.29C1132.46 1496.61 1133.53 1496.17 1134.71 1495.98V1495.78C1133.16 1495.47 1131.9 1494.72 1130.93 1493.53C1129.97 1492.32 1129.48 1490.93 1129.48 1489.34C1129.48 1487.83 1129.92 1486.49 1130.8 1485.32C1131.68 1484.13 1132.89 1483.2 1134.43 1482.53C1135.97 1481.85 1137.72 1481.51 1139.68 1481.51C1141.64 1481.51 1143.39 1481.85 1144.92 1482.53C1146.47 1483.21 1147.68 1484.15 1148.56 1485.33C1149.44 1486.5 1149.89 1487.84 1149.9 1489.34C1149.89 1490.94 1149.39 1492.33 1148.42 1493.53C1147.44 1494.72 1146.19 1495.47 1144.67 1495.78V1495.98C1145.83 1496.17 1146.89 1496.61 1147.84 1497.29C1148.79 1497.96 1149.55 1498.81 1150.11 1499.83C1150.68 1500.85 1150.97 1501.96 1150.97 1503.17C1150.97 1504.74 1150.48 1506.15 1149.51 1507.39C1148.55 1508.63 1147.21 1509.61 1145.51 1510.33C1143.81 1511.04 1141.87 1511.39 1139.68 1511.39ZM1139.68 1506.88C1140.66 1506.88 1141.51 1506.7 1142.24 1506.35C1142.97 1505.99 1143.54 1505.5 1143.94 1504.87C1144.36 1504.24 1144.57 1503.51 1144.57 1502.69C1144.57 1501.84 1144.36 1501.1 1143.93 1500.46C1143.5 1499.8 1142.93 1499.29 1142.2 1498.92C1141.47 1498.54 1140.63 1498.36 1139.68 1498.36C1138.74 1498.36 1137.91 1498.54 1137.17 1498.92C1136.43 1499.29 1135.85 1499.8 1135.42 1500.46C1135 1501.1 1134.8 1501.84 1134.8 1502.69C1134.8 1503.51 1135 1504.24 1135.41 1504.87C1135.81 1505.5 1136.39 1505.99 1137.13 1506.35C1137.86 1506.7 1138.72 1506.88 1139.68 1506.88ZM1139.68 1493.88C1140.5 1493.88 1141.22 1493.71 1141.86 1493.38C1142.49 1493.05 1142.99 1492.59 1143.35 1492.01C1143.71 1491.42 1143.89 1490.74 1143.89 1489.97C1143.89 1489.22 1143.71 1488.55 1143.35 1487.99C1142.99 1487.41 1142.49 1486.96 1141.87 1486.64C1141.24 1486.3 1140.52 1486.14 1139.68 1486.14C1138.86 1486.14 1138.13 1486.3 1137.49 1486.64C1136.86 1486.96 1136.36 1487.41 1136 1487.99C1135.65 1488.55 1135.48 1489.22 1135.48 1489.97C1135.48 1490.74 1135.66 1491.42 1136.02 1492.01C1136.38 1492.59 1136.87 1493.05 1137.51 1493.38C1138.14 1493.71 1138.87 1493.88 1139.68 1493.88Z" fill="white"/>
<path d="M517.691 1457.91L523.557 1467.82H523.785L529.679 1457.91H536.625L527.748 1472.45L536.824 1487H529.75L523.785 1477.07H523.557L517.591 1487H510.546L519.651 1472.45L510.716 1457.91H517.691ZM551.803 1457.91V1487H545.653V1463.74H545.482L538.82 1467.92V1462.47L546.022 1457.91H551.803ZM568.37 1487.39C566.182 1487.39 564.236 1487.04 562.532 1486.33C560.836 1485.61 559.506 1484.63 558.54 1483.39C557.574 1482.15 557.091 1480.74 557.091 1479.17C557.091 1477.96 557.366 1476.85 557.915 1475.83C558.474 1474.81 559.231 1473.96 560.188 1473.29C561.144 1472.61 562.214 1472.17 563.398 1471.98V1471.78C561.845 1471.47 560.586 1470.72 559.62 1469.53C558.654 1468.32 558.171 1466.93 558.171 1465.34C558.171 1463.83 558.611 1462.49 559.492 1461.32C560.372 1460.13 561.58 1459.2 563.114 1458.53C564.657 1457.85 566.409 1457.51 568.37 1457.51C570.33 1457.51 572.077 1457.85 573.611 1458.53C575.155 1459.21 576.367 1460.15 577.247 1461.33C578.128 1462.5 578.573 1463.84 578.583 1465.34C578.573 1466.94 578.081 1468.33 577.105 1469.53C576.13 1470.72 574.88 1471.47 573.355 1471.78V1471.98C574.52 1472.17 575.576 1472.61 576.523 1473.29C577.479 1473.96 578.237 1474.81 578.796 1475.83C579.364 1476.85 579.653 1477.96 579.662 1479.17C579.653 1480.74 579.165 1482.15 578.199 1483.39C577.233 1484.63 575.898 1485.61 574.193 1486.33C572.498 1487.04 570.557 1487.39 568.37 1487.39ZM568.37 1482.88C569.345 1482.88 570.197 1482.7 570.926 1482.35C571.656 1481.99 572.224 1481.5 572.631 1480.87C573.048 1480.24 573.256 1479.51 573.256 1478.69C573.256 1477.84 573.043 1477.1 572.617 1476.46C572.191 1475.8 571.613 1475.29 570.884 1474.92C570.155 1474.54 569.317 1474.36 568.37 1474.36C567.432 1474.36 566.594 1474.54 565.855 1474.92C565.117 1475.29 564.534 1475.8 564.108 1476.46C563.692 1477.1 563.483 1477.84 563.483 1478.69C563.483 1479.51 563.687 1480.24 564.094 1480.87C564.501 1481.5 565.074 1481.99 565.813 1482.35C566.551 1482.7 567.404 1482.88 568.37 1482.88ZM568.37 1469.88C569.184 1469.88 569.908 1469.71 570.543 1469.38C571.177 1469.05 571.675 1468.59 572.034 1468.01C572.394 1467.42 572.574 1466.74 572.574 1465.97C572.574 1465.22 572.394 1464.55 572.034 1463.99C571.675 1463.41 571.182 1462.96 570.557 1462.64C569.932 1462.3 569.203 1462.14 568.37 1462.14C567.546 1462.14 566.817 1462.3 566.182 1462.64C565.548 1462.96 565.05 1463.41 564.691 1463.99C564.34 1464.55 564.165 1465.22 564.165 1465.97C564.165 1466.74 564.345 1467.42 564.705 1468.01C565.065 1468.59 565.562 1469.05 566.196 1469.38C566.831 1469.71 567.555 1469.88 568.37 1469.88Z" fill="white"/>
<path d="M1271.7 504.906L1277.57 514.821H1277.8L1283.69 504.906H1290.64L1281.76 519.452L1290.84 533.997H1283.76L1277.8 524.068H1277.57L1271.6 533.997H1264.56L1273.66 519.452L1264.73 504.906H1271.7ZM1294.31 533.997L1306.37 510.133V509.935H1292.32V504.906H1312.73V510.006L1300.66 533.997H1294.31Z" fill="#646464"/>
<rect x="1356" y="365.997" width="16" height="16" fill="black"/>
<rect x="1390" y="365.997" width="16" height="16" fill="black"/>
<rect x="1424" y="365.997" width="16" height="16" fill="#FF0900"/>
<defs>
<filter id="filter0_d_378_635" x="1582.66" y="81.0479" width="171.528" height="171.527" filterUnits="userSpaceOnUse" color-interpolation-filters="sRGB">
<feFlood flood-opacity="0" result="BackgroundImageFix"/>
<feColorMatrix in="SourceAlpha" type="matrix" values="0 0 0 0 0 0 0 0 0 0 0 0 0 0 0 0 0 0 127 0" result="hardAlpha"/>
<feOffset dy="4"/>
<feGaussianBlur stdDeviation="2"/>
<feComposite in2="hardAlpha" operator="out"/>
<feColorMatrix type="matrix" values="0 0 0 0 0 0 0 0 0 0 0 0 0 0 0 0 0 0 0.25 0"/>
<feBlend mode="normal" in2="BackgroundImageFix" result="effect1_dropShadow_378_635"/>
<feBlend mode="normal" in="SourceGraphic" in2="effect1_dropShadow_378_635" result="shape"/>
</filter>
<filter id="filter1_d_378_635" x="1554.07" y="219.602" width="227.52" height="227.52" filterUnits="userSpaceOnUse" color-interpolation-filters="sRGB">
<feFlood flood-opacity="0" result="BackgroundImageFix"/>
<feColorMatrix in="SourceAlpha" type="matrix" values="0 0 0 0 0 0 0 0 0 0 0 0 0 0 0 0 0 0 127 0" result="hardAlpha"/>
<feOffset dy="4"/>
<feGaussianBlur stdDeviation="2"/>
<feComposite in2="hardAlpha" operator="out"/>
<feColorMatrix type="matrix" values="0 0 0 0 0 0 0 0 0 0 0 0 0 0 0 0 0 0 0.25 0"/>
<feBlend mode="normal" in2="BackgroundImageFix" result="effect1_dropShadow_378_635"/>
<feBlend mode="normal" in="SourceGraphic" in2="effect1_dropShadow_378_635" result="shape"/>
</filter>
<filter id="filter2_d_378_635" x="844.098" y="1610.96" width="201.751" height="201.751" filterUnits="userSpaceOnUse" color-interpolation-filters="sRGB">
<feFlood flood-opacity="0" result="BackgroundImageFix"/>
<feColorMatrix in="SourceAlpha" type="matrix" values="0 0 0 0 0 0 0 0 0 0 0 0 0 0 0 0 0 0 127 0" result="hardAlpha"/>
<feOffset dy="4"/>
<feGaussianBlur stdDeviation="2"/>
<feComposite in2="hardAlpha" operator="out"/>
<feColorMatrix type="matrix" values="0 0 0 0 0 0 0 0 0 0 0 0 0 0 0 0 0 0 0.25 0"/>
<feBlend mode="normal" in2="BackgroundImageFix" result="effect1_dropShadow_378_635"/>
<feBlend mode="normal" in="SourceGraphic" in2="effect1_dropShadow_378_635" result="shape"/>
</filter>
<filter id="filter3_d_378_635" x="259.074" y="1606.17" width="170.521" height="170.521" filterUnits="userSpaceOnUse" color-interpolation-filters="sRGB">
<feFlood flood-opacity="0" result="BackgroundImageFix"/>
<feColorMatrix in="SourceAlpha" type="matrix" values="0 0 0 0 0 0 0 0 0 0 0 0 0 0 0 0 0 0 127 0" result="hardAlpha"/>
<feOffset dy="4"/>
<feGaussianBlur stdDeviation="2"/>
<feComposite in2="hardAlpha" operator="out"/>
<feColorMatrix type="matrix" values="0 0 0 0 0 0 0 0 0 0 0 0 0 0 0 0 0 0 0.25 0"/>
<feBlend mode="normal" in2="BackgroundImageFix" result="effect1_dropShadow_378_635"/>
<feBlend mode="normal" in="SourceGraphic" in2="effect1_dropShadow_378_635" result="shape"/>
</filter>
<filter id="filter4_d_378_635" x="2179.75" y="1376.06" width="65.4023" height="65.4023" filterUnits="userSpaceOnUse" color-interpolation-filters="sRGB">
<feFlood flood-opacity="0" result="BackgroundImageFix"/>
<feColorMatrix in="SourceAlpha" type="matrix" values="0 0 0 0 0 0 0 0 0 0 0 0 0 0 0 0 0 0 127 0" result="hardAlpha"/>
<feOffset dy="4"/>
<feGaussianBlur stdDeviation="2"/>
<feComposite in2="hardAlpha" operator="out"/>
<feColorMatrix type="matrix" values="0 0 0 0 0 0 0 0 0 0 0 0 0 0 0 0 0 0 0.25 0"/>
<feBlend mode="normal" in2="BackgroundImageFix" result="effect1_dropShadow_378_635"/>
<feBlend mode="normal" in="SourceGraphic" in2="effect1_dropShadow_378_635" result="shape"/>
</filter>
<filter id="filter5_d_378_635" x="2166.52" y="1559.07" width="87.4697" height="87.4697" filterUnits="userSpaceOnUse" color-interpolation-filters="sRGB">
<feFlood flood-opacity="0" result="BackgroundImageFix"/>
<feColorMatrix in="SourceAlpha" type="matrix" values="0 0 0 0 0 0 0 0 0 0 0 0 0 0 0 0 0 0 127 0" result="hardAlpha"/>
<feOffset dy="4"/>
<feGaussianBlur stdDeviation="2"/>
<feComposite in2="hardAlpha" operator="out"/>
<feColorMatrix type="matrix" values="0 0 0 0 0 0 0 0 0 0 0 0 0 0 0 0 0 0 0.25 0"/>
<feBlend mode="normal" in2="BackgroundImageFix" result="effect1_dropShadow_378_635"/>
<feBlend mode="normal" in="SourceGraphic" in2="effect1_dropShadow_378_635" result="shape"/>
</filter>
</defs>
</svg>
