<svg width="1280" height="720" xmlns="http://www.w3.org/2000/svg" xmlns:xlink="http://www.w3.org/1999/xlink" overflow="hidden"><g><rect x="0" y="0" width="1280" height="720" fill="#FFFFFF"/><rect x="491" y="135" width="149" height="75" stroke="#042433" stroke-width="2" stroke-miterlimit="8" fill="#156082"/><text fill="#FFFFFF" font-family="Aptos,Aptos_MSFontService,sans-serif" font-weight="400" font-size="24" transform="translate(544.917 180)">INIT</text><rect x="491" y="285" width="149" height="75" stroke="#042433" stroke-width="2" stroke-miterlimit="8" fill="#156082"/><text fill="#FFFFFF" font-family="Aptos,Aptos_MSFontService,sans-serif" font-weight="400" font-size="24" transform="translate(512.833 330)">RUNNING</text><rect x="491" y="435" width="149" height="75" stroke="#042433" stroke-width="2" stroke-miterlimit="8" fill="#156082"/><text fill="#FFFFFF" font-family="Aptos,Aptos_MSFontService,sans-serif" font-weight="400" font-size="24" transform="translate(502.343 480)">SAFE_STATE</text><path d="M567 210 567 275.2 563 275.2 563 210ZM571 273.2 565 285.2 559 273.2Z" fill="#156082"/><path d="M567 360 567 425.2 563 425.2 563 360ZM571 423.2 565 435.2 559 423.2Z" fill="#156082"/><text font-family="Aptos,Aptos_MSFontService,sans-serif" font-weight="400" font-size="24" transform="translate(262.902 255)">Reception of UART</text><text font-family="Aptos,Aptos_MSFontService,sans-serif" font-weight="400" font-size="24" transform="translate(459.222 255)">message</text><text font-family="Aptos,Aptos_MSFontService,sans-serif" font-weight="400" font-size="24" transform="translate(362.028 406)">Error</text><text font-family="Aptos,Aptos_MSFontService,sans-serif" font-weight="400" font-size="24" transform="translate(417.034 406)">in</text><text font-family="Aptos,Aptos_MSFontService,sans-serif" font-weight="400" font-size="24" transform="translate(440.701 406)">the</text><text font-family="Aptos,Aptos_MSFontService,sans-serif" font-weight="400" font-size="24" transform="translate(479.201 406)">syste</text><text font-family="Aptos,Aptos_MSFontService,sans-serif" font-weight="400" font-size="24" transform="translate(533.174 406)">m</text><path d="M567 60 567 125.2 563 125.2 563 60ZM571 123.2 565 135.2 559 123.2Z" fill="#156082"/><text font-family="Aptos,Aptos_MSFontService,sans-serif" font-weight="400" font-size="24" transform="translate(495.633 104)">Reset</text><path d="M567 513 567 578.2 563 578.2 563 513ZM571 576.2 565 588.2 559 576.2Z" fill="#156082"/><text font-family="Aptos,Aptos_MSFontService,sans-serif" font-weight="400" font-size="24" transform="translate(495.633 557)">Reset</text></g></svg>