<svg width="4219" height="2015" xmlns="http://www.w3.org/2000/svg" xmlns:xlink="http://www.w3.org/1999/xlink" xml:space="preserve" overflow="hidden"><g transform="translate(-198 -118)"><rect x="1949.5" y="346.5" width="1031" height="1083" stroke="#E97132" stroke-width="6.875" stroke-miterlimit="8" fill="#FFFFFF"/><text font-family="Aptos,Aptos_MSFontService,sans-serif" font-weight="400" font-size="83" transform="matrix(1 0 0 1 2165.53 914)">Safety</text><text font-family="Aptos,Aptos_MSFontService,sans-serif" font-weight="400" font-size="83" transform="matrix(1 0 0 1 2403.95 914)">Controller</text><rect x="2711.5" y="1765.5" width="586" height="254" stroke="#042433" stroke-width="6.875" stroke-miterlimit="8" fill="none"/><text font-family="Aptos,Aptos_MSFontService,sans-serif" font-weight="400" font-size="83" transform="matrix(1 0 0 1 2790.09 1919)">Transformer</text><rect x="908.5" y="1763.5" width="781" height="254" stroke="#042433" stroke-width="6.875" stroke-miterlimit="8" fill="none"/><text font-family="Aptos,Aptos_MSFontService,sans-serif" font-weight="400" font-size="83" transform="matrix(1 0 0 1 1078.36 1916)">10</text><text font-family="Aptos,Aptos_MSFontService,sans-serif" font-weight="400" font-size="83" transform="matrix(1 0 0 1 1166.59 1916)">-</text><text font-family="Aptos,Aptos_MSFontService,sans-serif" font-weight="400" font-size="83" transform="matrix(1 0 0 1 1194.66 1916)">Base T1S</text><rect x="555.5" y="458.5" width="959" height="858" stroke="#042433" stroke-width="6.875" stroke-miterlimit="8" fill="none"/><text font-family="Aptos,Aptos_MSFontService,sans-serif" font-weight="400" font-size="83" transform="matrix(1 0 0 1 752.875 914)">Linux </text><text font-family="Aptos,Aptos_MSFontService,sans-serif" font-weight="400" font-size="83" transform="matrix(1 0 0 1 957.979 914)">Processor</text><path d="M1.10189e-06-3.4375 1119.05-3.43714 1119.05 3.43786-1.10189e-06 3.4375ZM1093.28-19.0106 1125.87 0.000360358 1093.28 19.0113C1091.64 19.9678 1089.53 19.4139 1088.57 17.7741 1087.62 16.1342 1088.17 14.0294 1089.81 13.0728L1117.31-2.96888 1117.31 2.9696 1089.81-13.0721C1088.17-14.0287 1087.62-16.1335 1088.57-17.7734 1089.53-19.4132 1091.64-19.9671 1093.28-19.0106Z" transform="matrix(-1 0 0 1 4106.35 487.5)"/><text font-family="Aptos,Aptos_MSFontService,sans-serif" font-weight="400" font-size="83" transform="matrix(1 0 0 1 3650.26 450)">Emergency In</text><path d="M1.10189e-06-3.4375 1119.05-3.43714 1119.05 3.43786-1.10189e-06 3.4375ZM1093.28-19.0106 1125.87 0.000360358 1093.28 19.0113C1091.64 19.9678 1089.53 19.4139 1088.57 17.7741 1087.62 16.1342 1088.17 14.0294 1089.81 13.0728L1117.31-2.96888 1117.31 2.9696 1089.81-13.0721C1088.17-14.0287 1087.62-16.1335 1088.57-17.7734 1089.53-19.4132 1091.64-19.9671 1093.28-19.0106Z" transform="matrix(-1 0 0 1 4106.35 737.5)"/><text font-family="Aptos,Aptos_MSFontService,sans-serif" font-weight="400" font-size="83" transform="matrix(1 0 0 1 3650.26 685)">Temp</text><text font-family="Aptos,Aptos_MSFontService,sans-serif" font-weight="400" font-size="83" transform="matrix(1 0 0 1 3843.6 685)">-</text><text font-family="Aptos,Aptos_MSFontService,sans-serif" font-weight="400" font-size="83" transform="matrix(1 0 0 1 3871.68 685)">Measurement</text><path d="M1.10189e-06-3.4375 1119.05-3.43714 1119.05 3.43786-1.10189e-06 3.4375ZM1093.28-19.0106 1125.87 0.000360358 1093.28 19.0113C1091.64 19.9678 1089.53 19.4139 1088.57 17.7741 1087.62 16.1342 1088.17 14.0294 1089.81 13.0728L1117.31-2.96888 1117.31 2.9696 1089.81-13.0721C1088.17-14.0287 1087.62-16.1335 1088.57-17.7734 1089.53-19.4132 1091.64-19.9671 1093.28-19.0106Z" transform="matrix(-1 0 0 1 4106.35 883.5)"/><text font-family="Aptos,Aptos_MSFontService,sans-serif" font-weight="400" font-size="83" transform="matrix(1 0 0 1 3650.26 849)">HV</text><text font-family="Aptos,Aptos_MSFontService,sans-serif" font-weight="400" font-size="83" transform="matrix(1 0 0 1 3752.72 849)">-</text><text font-family="Aptos,Aptos_MSFontService,sans-serif" font-weight="400" font-size="83" transform="matrix(1 0 0 1 3780.79 849)">Ready</text><text font-family="Aptos,Aptos_MSFontService,sans-serif" font-weight="400" font-size="83" transform="matrix(1 0 0 1 4018.55 849)">In</text><path d="M6.80418-3.4375 1125.85-3.43714 1125.85 3.43786 6.80417 3.4375ZM32.5742 19.0109-0.0159314 6.33115e-08 32.5742-19.0109C34.2141-19.9675 36.3189-19.4136 37.2755-17.7737 38.2321-16.1338 37.6782-14.029 36.0383-13.0724L8.53831 2.96924 8.53831-2.96924 36.0383 13.0724C37.6782 14.029 38.2321 16.1339 37.2755 17.7737 36.3189 19.4136 34.214 19.9675 32.5742 19.0109Z" transform="matrix(-1 0 0 1 4106.35 1017.5)"/><text font-family="Aptos,Aptos_MSFontService,sans-serif" font-weight="400" font-size="83" transform="matrix(1 0 0 1 3650.9 976)">HV</text><text font-family="Aptos,Aptos_MSFontService,sans-serif" font-weight="400" font-size="83" transform="matrix(1 0 0 1 3753.36 976)">-</text><text font-family="Aptos,Aptos_MSFontService,sans-serif" font-weight="400" font-size="83" transform="matrix(1 0 0 1 3781.44 976)">Ready Out</text><path d="M6.80418-3.4375 810.296-3.43714 810.296 3.43786 6.80417 3.4375ZM32.5742 19.0109-0.0159314-2.63933e-07 32.5742-19.0109C34.2141-19.9675 36.3189-19.4136 37.2755-17.7737 38.2321-16.1338 37.6782-14.029 36.0383-13.0724L8.53831 2.96924 8.53831-2.96924 36.0383 13.0724C37.6782 14.029 38.2321 16.1339 37.2755 17.7737 36.3189 19.4136 34.214 19.9675 32.5742 19.0109Z" transform="matrix(-1 0 0 1 4106.8 1898.5)"/><text font-family="Aptos,Aptos_MSFontService,sans-serif" font-weight="400" font-size="83" transform="matrix(1 0 0 1 3688.62 1858)">10</text><text font-family="Aptos,Aptos_MSFontService,sans-serif" font-weight="400" font-size="83" transform="matrix(1 0 0 1 3776.85 1858)">-</text><text font-family="Aptos,Aptos_MSFontService,sans-serif" font-weight="400" font-size="83" transform="matrix(1 0 0 1 3804.92 1858)">Base T1S</text><path d="M6.80418-3.4375 1022.35-3.43714 1022.35 3.43786 6.80417 3.4375ZM32.5742 19.0109-0.0159314 4.8807e-08 32.5742-19.0109C34.2141-19.9675 36.3189-19.4136 37.2755-17.7737 38.2321-16.1338 37.6782-14.029 36.0383-13.0724L8.53831 2.96924 8.53831-2.96924 36.0383 13.0724C37.6782 14.029 38.2321 16.1339 37.2755 17.7737 36.3189 19.4136 34.214 19.9675 32.5742 19.0109Z" transform="matrix(-1 0 0 1 2711.85 1888.5)"/><path d="M902.328 1893.55 615.5 1893.55C613.602 1893.55 612.063 1892.02 612.063 1890.12L612.063 1323.31 618.938 1323.31 618.938 1890.12 615.5 1886.68 902.328 1886.68ZM876.558 1871.11 909.149 1890.12 876.558 1909.13C874.919 1910.08 872.814 1909.53 871.857 1907.89 870.901 1906.25 871.455 1904.15 873.094 1903.19L900.594 1887.15 900.594 1893.09 873.094 1877.04C871.455 1876.09 870.901 1873.98 871.857 1872.34 872.814 1870.7 874.919 1870.15 876.558 1871.11ZM596.489 1349.07 615.5 1316.48 634.511 1349.07C635.468 1350.71 634.914 1352.82 633.274 1353.78 631.634 1354.73 629.529 1354.18 628.573 1352.54L612.531 1325.04 618.469 1325.04 602.428 1352.54C601.471 1354.18 599.366 1354.73 597.726 1353.78 596.087 1352.82 595.533 1350.71 596.489 1349.07Z"/><text font-family="Aptos,Aptos_MSFontService,sans-serif" font-weight="400" font-size="83" transform="matrix(1 0 0 1 647.838 1583)">SPI</text><text font-family="Aptos,Aptos_MSFontService,sans-serif" font-weight="400" font-size="83" transform="matrix(1 0 0 1 1642 830)">UART</text><path d="M6.8067-3.43749 428.017-3.43714 428.017 3.43786 6.8067 3.43751ZM32.5742 19.0109-0.0159314-1.12932e-10 32.5742-19.0109C34.2141-19.9675 36.3189-19.4136 37.2755-17.7737 38.2321-16.1338 37.6782-14.029 36.0383-13.0724L8.5383 2.96925 8.53831-2.96923 36.0383 13.0725C37.6782 14.029 38.2321 16.1339 37.2755 17.7738 36.3189 19.4136 34.214 19.9675 32.5742 19.0109ZM402.25-19.0106 434.84 0.00035948 402.25 19.0112C400.61 19.9678 398.505 19.4139 397.548 17.7741 396.592 16.1342 397.146 14.0293 398.785 13.0728L426.285-2.96889 426.285 2.96959 398.785-13.0721C397.146-14.0287 396.592-16.1335 397.548-17.7734 398.505-19.4133 400.61-19.9672 402.25-19.0106Z" transform="matrix(-1 0 0 1 1949.32 887.5)"/><rect x="201.5" y="121.5" width="3362" height="2008" stroke="#042433" stroke-width="6.875" stroke-miterlimit="8" fill="none"/><text font-family="Aptos,Aptos_MSFontService,sans-serif" font-weight="400" font-size="83" transform="matrix(1 0 0 1 280.688 243)">CCY</text><path d="M6.80418-3.4375 1125.85-3.43714 1125.85 3.43786 6.80417 3.4375ZM32.5742 19.0109-0.0159314 6.33115e-08 32.5742-19.0109C34.2141-19.9675 36.3189-19.4136 37.2755-17.7737 38.2321-16.1338 37.6782-14.029 36.0383-13.0724L8.53831 2.96924 8.53831-2.96924 36.0383 13.0724C37.6782 14.029 38.2321 16.1339 37.2755 17.7737 36.3189 19.4136 34.214 19.9675 32.5742 19.0109Z" transform="matrix(-1 0 0 1 4106.35 1191.5)"/><text font-family="Aptos,Aptos_MSFontService,sans-serif" font-weight="400" font-size="83" transform="matrix(1 0 0 1 3650.26 1150)">CE</text><path d="M1.10189e-06-3.4375 1119.05-3.43714 1119.05 3.43786-1.10189e-06 3.4375ZM1093.28-19.0106 1125.87 0.000360358 1093.28 19.0113C1091.64 19.9678 1089.53 19.4139 1088.57 17.7741 1087.62 16.1342 1088.17 14.0294 1089.81 13.0728L1117.31-2.96888 1117.31 2.9696 1089.81-13.0721C1088.17-14.0287 1087.62-16.1335 1088.57-17.7734 1089.53-19.4132 1091.64-19.9671 1093.28-19.0106Z" transform="matrix(-1 0 0 1 4115.35 1369.5)"/><text font-family="Aptos,Aptos_MSFontService,sans-serif" font-weight="400" font-size="83" transform="matrix(1 0 0 1 3659.74 1328)">ID</text></g></svg>