<svg width="1280" height="720" xmlns="http://www.w3.org/2000/svg" xmlns:xlink="http://www.w3.org/1999/xlink" overflow="hidden"><g><rect x="0" y="0" width="1280" height="720" fill="#FFFFFF"/><rect x="567" y="101" width="300" height="315" stroke="#E97132" stroke-width="2" stroke-miterlimit="8" fill="#FFFFFF"/><text font-family="Aptos,Aptos_MSFontService,sans-serif" font-weight="400" font-size="24" transform="translate(629.972 266)">Safety</text><text font-family="Aptos,Aptos_MSFontService,sans-serif" font-weight="400" font-size="24" transform="translate(699.332 266)">Controller</text><rect x="789" y="514" width="170" height="73" stroke="#042433" stroke-width="2" stroke-miterlimit="8" fill="none"/><text font-family="Aptos,Aptos_MSFontService,sans-serif" font-weight="400" font-size="24" transform="translate(852.445 558)">Mux</text><rect x="264" y="513" width="227" height="74" stroke="#042433" stroke-width="2" stroke-miterlimit="8" fill="none"/><text font-family="Aptos,Aptos_MSFontService,sans-serif" font-weight="400" font-size="24" transform="translate(328.221 557)">PLC</text><text font-family="Aptos,Aptos_MSFontService,sans-serif" font-weight="400" font-size="24" transform="translate(370.188 557)">-</text><text font-family="Aptos,Aptos_MSFontService,sans-serif" font-weight="400" font-size="24" transform="translate(378.355 557)">Chip</text><rect x="162" y="133" width="278" height="250" stroke="#042433" stroke-width="2" stroke-miterlimit="8" fill="none"/><text font-family="Aptos,Aptos_MSFontService,sans-serif" font-weight="400" font-size="24" transform="translate(219.018 266)">Linux</text><text font-family="Aptos,Aptos_MSFontService,sans-serif" font-weight="400" font-size="24" transform="translate(278.685 266)">Processor</text><path d="M3.20551e-07-1 325.54-0.999896 325.54 1.0001-3.20551e-07 1ZM318.044-5.53034 327.525 0.000104832 318.044 5.53055C317.567 5.80883 316.954 5.64769 316.676 5.17064 316.398 4.69359 316.559 4.08127 317.036 3.80299L325.036-0.863675 325.036 0.863883 317.036-3.80279C316.559-4.08107 316.398-4.69338 316.676-5.17044 316.954-5.64749 317.567-5.80862 318.044-5.53034Z" transform="matrix(-1 0 0 1 1194.52 142)"/><text font-family="Aptos,Aptos_MSFontService,sans-serif" font-weight="400" font-size="24" transform="translate(1061.89 131)">Emergency In</text><path d="M3.20551e-07-1 325.54-0.999896 325.54 1.0001-3.20551e-07 1ZM318.044-5.53034 327.525 0.000104832 318.044 5.53055C317.567 5.80883 316.954 5.64769 316.676 5.17064 316.398 4.69359 316.559 4.08127 317.036 3.80299L325.036-0.863675 325.036 0.863883 317.036-3.80279C316.559-4.08107 316.398-4.69338 316.676-5.17044 316.954-5.64749 317.567-5.80862 318.044-5.53034Z" transform="matrix(-1 0 0 1 1194.52 214)"/><text font-family="Aptos,Aptos_MSFontService,sans-serif" font-weight="400" font-size="24" transform="translate(1061.89 199)">Temp</text><text font-family="Aptos,Aptos_MSFontService,sans-serif" font-weight="400" font-size="24" transform="translate(1118.14 199)">-</text><text font-family="Aptos,Aptos_MSFontService,sans-serif" font-weight="400" font-size="24" transform="translate(1126.31 199)">Measurement</text><path d="M1.9794-0.999999 327.52-0.999895 327.52 1.0001 1.9794 1ZM9.47613 5.53045-0.0046346 1.84179e-08 9.47613-5.53044C9.95318-5.80872 10.5655-5.64759 10.8438-5.17053 11.1221-4.69348 10.9609-4.08116 10.4839-3.80288L2.48387 0.86378 2.48387-0.863778 10.4839 3.80289C10.9609 4.08117 11.1221 4.69349 10.8438 5.17054 10.5655 5.64759 9.95318 5.80873 9.47613 5.53045Z" transform="matrix(-1 0 0 1 1194.52 286)"/><text font-family="Aptos,Aptos_MSFontService,sans-serif" font-weight="400" font-size="24" transform="translate(1061.89 276)">HV</text><text font-family="Aptos,Aptos_MSFontService,sans-serif" font-weight="400" font-size="24" transform="translate(1091.7 276)">-</text><text font-family="Aptos,Aptos_MSFontService,sans-serif" font-weight="400" font-size="24" transform="translate(1099.87 276)">Ready</text><path d="M1.9794-0.999999 327.52-0.999895 327.52 1.0001 1.9794 1ZM9.47613 5.53045-0.0046346 1.84179e-08 9.47613-5.53044C9.95318-5.80872 10.5655-5.64759 10.8438-5.17053 11.1221-4.69348 10.9609-4.08116 10.4839-3.80288L2.48387 0.86378 2.48387-0.863778 10.4839 3.80289C10.9609 4.08117 11.1221 4.69349 10.8438 5.17054 10.5655 5.64759 9.95318 5.80873 9.47613 5.53045Z" transform="matrix(-1 0 0 1 1194.52 340)"/><text font-family="Aptos,Aptos_MSFontService,sans-serif" font-weight="400" font-size="24" transform="translate(1062.08 328)">HV</text><text font-family="Aptos,Aptos_MSFontService,sans-serif" font-weight="400" font-size="24" transform="translate(1091.89 328)">-</text><text font-family="Aptos,Aptos_MSFontService,sans-serif" font-weight="400" font-size="24" transform="translate(1100.05 328)">Connector</text><path d="M1.9794-0.999999 235.723-0.999895 235.723 1.0001 1.9794 1ZM9.47612 5.53045-0.0046346-7.67806e-08 9.47613-5.53044C9.95318-5.80872 10.5655-5.64758 10.8438-5.17053 11.1221-4.69348 10.9609-4.08116 10.4839-3.80288L2.48387 0.86378 2.48387-0.863778 10.4839 3.80289C10.9609 4.08117 11.1221 4.69349 10.8438 5.17054 10.5655 5.64759 9.95318 5.80873 9.47612 5.53045Z" transform="matrix(-1 0 0 1 1194.72 552)"/><text font-family="Aptos,Aptos_MSFontService,sans-serif" font-weight="400" font-size="24" transform="translate(1073.05 540)">CP</text><path d="M1.15512 1.97392 1.15512 71.718 0.155116 70.718 116.643 70.718 116.643 72.718 0.155116 72.718C-0.397169 72.718-0.844884 72.2703-0.844884 71.718L-0.844884 1.97392ZM-4.77108 9.88026-0.000363045-0.00462045 6.25582 9.01374C6.57062 9.46753 6.45794 10.0906 6.00416 10.4054 5.55037 10.7202 4.92732 10.6075 4.61252 10.1537L-0.666535 2.54391 1.05571 2.40857-2.96988 10.7496C-3.20994 11.247-3.80775 11.4556-4.30513 11.2155-4.80252 10.9755-5.01113 10.3777-4.77108 9.88026Z" transform="matrix(-1.83697e-16 -1 -1 1.83697e-16 788.718 530.643)"/><path d="M1.9794-0.999999 297.412-0.999895 297.412 1.0001 1.9794 1ZM9.47613 5.53045-0.0046346 1.41984e-08 9.47613-5.53044C9.95318-5.80872 10.5655-5.64759 10.8438-5.17053 11.1221-4.69348 10.9609-4.08116 10.4839-3.80288L2.48387 0.86378 2.48387-0.863778 10.4839 3.80289C10.9609 4.08117 11.1221 4.69349 10.8438 5.17054 10.5655 5.64759 9.95318 5.80873 9.47613 5.53045Z" transform="matrix(-1 0 0 1 788.412 566)"/><text font-family="Aptos,Aptos_MSFontService,sans-serif" font-weight="400" font-size="24" transform="translate(521.448 558)">CP</text><text font-family="Aptos,Aptos_MSFontService,sans-serif" font-weight="400" font-size="24" transform="translate(551.101 558)">-</text><text font-family="Aptos,Aptos_MSFontService,sans-serif" font-weight="400" font-size="24" transform="translate(559.268 558)">Highlevel</text><text font-family="Aptos,Aptos_MSFontService,sans-serif" font-weight="400" font-size="24" transform="translate(572.336 464)">CP</text><text font-family="Aptos,Aptos_MSFontService,sans-serif" font-weight="400" font-size="24" transform="translate(601.99 464)">-</text><text font-family="Aptos,Aptos_MSFontService,sans-serif" font-weight="400" font-size="24" transform="translate(610.156 464)">Lowlevel</text><path d="M827 417.98 827 513.129 825 513.129 825 417.98ZM820.47 425.476 826 415.995 831.53 425.476C831.809 425.953 831.648 426.565 831.171 426.844 830.693 427.122 830.081 426.961 829.803 426.484L825.136 418.484 826.864 418.484 822.197 426.484C821.919 426.961 821.307 427.122 820.829 426.844 820.352 426.565 820.191 425.953 820.47 425.476Z"/><text font-family="Aptos,Aptos_MSFontService,sans-serif" font-weight="400" font-size="24" transform="translate(832.929 463)">CP</text><text font-family="Aptos,Aptos_MSFontService,sans-serif" font-weight="400" font-size="24" transform="translate(862.583 463)">-</text><text font-family="Aptos,Aptos_MSFontService,sans-serif" font-weight="400" font-size="24" transform="translate(870.749 463)">Readback</text><path d="M262.441 550.87 179 550.87C178.448 550.87 178 550.423 178 549.87L178 384.98 180 384.98 180 549.87 179 548.87 262.441 548.87ZM254.944 544.34 264.425 549.87 254.944 555.401C254.467 555.679 253.855 555.518 253.577 555.041 253.298 554.564 253.459 553.952 253.937 553.673L261.937 549.007 261.937 550.734 253.937 546.068C253.459 545.789 253.298 545.177 253.577 544.7 253.855 544.223 254.467 544.062 254.944 544.34ZM173.47 392.476 179 382.995 184.53 392.476C184.809 392.953 184.648 393.565 184.171 393.844 183.693 394.122 183.081 393.961 182.803 393.484L178.136 385.484 179.864 385.484 175.197 393.484C174.919 393.961 174.307 394.122 173.829 393.844 173.352 393.565 173.191 392.953 173.47 392.476Z"/><text font-family="Aptos,Aptos_MSFontService,sans-serif" font-weight="400" font-size="24" transform="translate(188.462 460)">SPI</text><text font-family="Aptos,Aptos_MSFontService,sans-serif" font-weight="400" font-size="24" transform="translate(477.673 241)">UART</text><path d="M1.98013-0.999998 124.514-0.999897 124.514 1.0001 1.98013 1ZM9.47612 5.53045-0.0046346-3.2853e-11 9.47613-5.53044C9.95318-5.80872 10.5655-5.64758 10.8438-5.17053 11.1221-4.69348 10.9609-4.08116 10.4839-3.80288L2.48387 0.863781 2.48387-0.863777 10.4839 3.8029C10.9609 4.08118 11.1221 4.6935 10.8438 5.17055 10.5655 5.6476 9.95317 5.80873 9.47612 5.53045ZM117.018-5.53035 126.499 0.000104576 117.018 5.53054C116.541 5.80882 115.929 5.64769 115.65 5.17063 115.372 4.69358 115.533 4.08126 116.01 3.80298L124.01-0.863676 124.01 0.863882 116.01-3.80279C115.533-4.08107 115.372-4.69339 115.65-5.17044 115.929-5.64749 116.541-5.80863 117.018-5.53035Z" transform="matrix(-1 0 0 1 566.494 258)"/><rect x="58" y="35" width="979" height="584" stroke="#042433" stroke-width="2" stroke-miterlimit="8" fill="none"/><text font-family="Aptos,Aptos_MSFontService,sans-serif" font-weight="400" font-size="24" transform="translate(81.6547 70)">chargeSOM</text></g></svg>