<svg width="3453" height="1711" xmlns="http://www.w3.org/2000/svg" xmlns:xlink="http://www.w3.org/1999/xlink" xml:space="preserve" overflow="hidden"><g transform="translate(-196 -60)"><text fill="#FF8200" font-family="Arial Black,Arial Black_MSFontService,sans-serif" font-weight="900" font-size="46" transform="matrix(1 0 0 1 3153.62 787)">4</text><text fill="#FF8200" font-family="Arial Black,Arial Black_MSFontService,sans-serif" font-weight="900" font-size="46" transform="matrix(1 0 0 1 2645.48 780)">4</text><rect x="199.5" y="63.5001" width="3446" height="1118" stroke="#FF8200" stroke-width="6.875" stroke-miterlimit="8" fill="none"/><text fill="#FF8200" font-family="Arial Black,Arial Black_MSFontService,sans-serif" font-weight="900" font-size="55" transform="matrix(1 0 0 1 583.443 409)">Power &amp; </text><text fill="#FF8200" font-family="Arial Black,Arial Black_MSFontService,sans-serif" font-weight="900" font-size="55" transform="matrix(1 0 0 1 855.419 409)">Safety</text><text fill="#FF8200" font-family="Arial Black,Arial Black_MSFontService,sans-serif" font-weight="900" font-size="55" transform="matrix(1 0 0 1 1192.67 409)">Profinet</text><text fill="#FF8200" font-family="Arial Black,Arial Black_MSFontService,sans-serif" font-weight="900" font-size="55" transform="matrix(1 0 0 1 1685.09 409)">LAN (OCPP)</text><text fill="#FF8200" font-family="Arial Black,Arial Black_MSFontService,sans-serif" font-weight="900" font-size="55" transform="matrix(1 0 0 1 2461.39 412)">MCS</text><text fill="#FF8200" font-family="Arial Black,Arial Black_MSFontService,sans-serif" font-weight="900" font-size="55" transform="matrix(1 0 0 1 3002.6 409)">IO</text><path d="M619.5 690.5C619.5 593.85 697.85 515.5 794.5 515.5 891.15 515.5 969.5 593.85 969.5 690.5 969.5 787.15 891.15 865.5 794.5 865.5 697.85 865.5 619.5 787.15 619.5 690.5Z" stroke="#FF8200" stroke-width="6.875" stroke-miterlimit="8" fill="none" fill-rule="evenodd"/><path d="M678.5 595C678.5 584.23 687.007 575.5 697.5 575.5 707.993 575.5 716.5 584.23 716.5 595 716.5 605.77 707.993 614.5 697.5 614.5 687.007 614.5 678.5 605.77 678.5 595Z" stroke="#042433" stroke-width="6.875" stroke-miterlimit="8" fill="none" fill-rule="evenodd"/><path d="M868.5 595C868.5 584.23 877.007 575.5 887.5 575.5 897.993 575.5 906.5 584.23 906.5 595 906.5 605.77 897.993 614.5 887.5 614.5 877.007 614.5 868.5 605.77 868.5 595Z" stroke="#042433" stroke-width="6.875" stroke-miterlimit="8" fill="none" fill-rule="evenodd"/><path d="M677.5 782C677.5 771.23 686.007 762.5 696.5 762.5 706.993 762.5 715.5 771.23 715.5 782 715.5 792.77 706.993 801.5 696.5 801.5 686.007 801.5 677.5 792.77 677.5 782Z" stroke="#042433" stroke-width="6.875" stroke-miterlimit="8" fill="none" fill-rule="evenodd"/><path d="M868.5 782C868.5 771.23 877.007 762.5 887.5 762.5 897.993 762.5 906.5 771.23 906.5 782 906.5 792.77 897.993 801.5 887.5 801.5 877.007 801.5 868.5 792.77 868.5 782Z" stroke="#042433" stroke-width="6.875" stroke-miterlimit="8" fill="none" fill-rule="evenodd"/><path d="M773.5 687C773.5 676.23 782.007 667.5 792.5 667.5 802.993 667.5 811.5 676.23 811.5 687 811.5 697.769 802.993 706.5 792.5 706.5 782.007 706.5 773.5 697.769 773.5 687Z" stroke="#042433" stroke-width="6.875" stroke-miterlimit="8" fill="none" fill-rule="evenodd"/><text fill="#FF8200" font-family="Arial Black,Arial Black_MSFontService,sans-serif" font-weight="900" font-size="46" transform="matrix(1 0 0 1 661.062 659)">2</text><text fill="#FF8200" font-family="Arial Black,Arial Black_MSFontService,sans-serif" font-weight="900" font-size="46" transform="matrix(1 0 0 1 909.549 659)">1</text><text fill="#FF8200" font-family="Arial Black,Arial Black_MSFontService,sans-serif" font-weight="900" font-size="46" transform="matrix(1 0 0 1 776.128 639)">5</text><text fill="#FF8200" font-family="Arial Black,Arial Black_MSFontService,sans-serif" font-weight="900" font-size="46" transform="matrix(1 0 0 1 723.378 833)">3</text><text fill="#FF8200" font-family="Arial Black,Arial Black_MSFontService,sans-serif" font-weight="900" font-size="46" transform="matrix(1 0 0 1 828.673 832)">4</text><path d="M1160.5 690.5C1160.5 593.85 1238.85 515.5 1335.5 515.5 1432.15 515.5 1510.5 593.85 1510.5 690.5 1510.5 787.15 1432.15 865.5 1335.5 865.5 1238.85 865.5 1160.5 787.15 1160.5 690.5Z" stroke="#FF8200" stroke-width="6.875" stroke-miterlimit="8" fill="none" fill-rule="evenodd"/><path d="M1219 594.5C1219 583.731 1227.73 575 1238.5 575 1249.27 575 1258 583.731 1258 594.5 1258 605.27 1249.27 614 1238.5 614 1227.73 614 1219 605.27 1219 594.5Z" fill-rule="evenodd"/><path d="M1409 594.5C1409 583.731 1417.73 575 1428.5 575 1439.27 575 1448 583.731 1448 594.5 1448 605.27 1439.27 614 1428.5 614 1417.73 614 1409 605.27 1409 594.5Z" fill-rule="evenodd"/><path d="M1218 781.5C1218 770.731 1226.51 762 1237 762 1247.49 762 1256 770.731 1256 781.5 1256 792.27 1247.49 801 1237 801 1226.51 801 1218 792.27 1218 781.5Z" fill-rule="evenodd"/><path d="M1409 781.5C1409 770.731 1417.73 762 1428.5 762 1439.27 762 1448 770.731 1448 781.5 1448 792.27 1439.27 801 1428.5 801 1417.73 801 1409 792.27 1409 781.5Z" fill-rule="evenodd"/><path d="M1314 686.5C1314 675.73 1322.51 667 1333 667 1343.49 667 1352 675.73 1352 686.5 1352 697.27 1343.49 706 1333 706 1322.51 706 1314 697.27 1314 686.5Z" fill-rule="evenodd"/><text fill="#FF8200" font-family="Arial Black,Arial Black_MSFontService,sans-serif" font-weight="900" font-size="46" transform="matrix(1 0 0 1 1202.11 659)">1</text><text fill="#FF8200" font-family="Arial Black,Arial Black_MSFontService,sans-serif" font-weight="900" font-size="46" transform="matrix(1 0 0 1 1450.6 659)">2</text><text fill="#FF8200" font-family="Arial Black,Arial Black_MSFontService,sans-serif" font-weight="900" font-size="46" transform="matrix(1 0 0 1 1317.17 639)">5</text><text fill="#FF8200" font-family="Arial Black,Arial Black_MSFontService,sans-serif" font-weight="900" font-size="46" transform="matrix(1 0 0 1 1264.42 833)">4</text><text fill="#FF8200" font-family="Arial Black,Arial Black_MSFontService,sans-serif" font-weight="900" font-size="46" transform="matrix(1 0 0 1 1369.72 832)">3</text><path d="M1687.5 690.5C1687.5 593.85 1765.85 515.5 1862.5 515.5 1959.15 515.5 2037.5 593.85 2037.5 690.5 2037.5 787.15 1959.15 865.5 1862.5 865.5 1765.85 865.5 1687.5 787.15 1687.5 690.5Z" stroke="#FF8200" stroke-width="6.875" stroke-miterlimit="8" fill="none" fill-rule="evenodd"/><path d="M1746 594.5C1746 583.731 1754.51 575 1765 575 1775.49 575 1784 583.731 1784 594.5 1784 605.27 1775.49 614 1765 614 1754.51 614 1746 605.27 1746 594.5Z" fill-rule="evenodd"/><path d="M1936 594.5C1936 583.731 1944.51 575 1955 575 1965.49 575 1974 583.731 1974 594.5 1974 605.27 1965.49 614 1955 614 1944.51 614 1936 605.27 1936 594.5Z" fill-rule="evenodd"/><path d="M1745 781.5C1745 770.731 1753.51 762 1764 762 1774.49 762 1783 770.731 1783 781.5 1783 792.27 1774.49 801 1764 801 1753.51 801 1745 792.27 1745 781.5Z" fill-rule="evenodd"/><path d="M1936 781.5C1936 770.731 1944.51 762 1955 762 1965.49 762 1974 770.731 1974 781.5 1974 792.27 1965.49 801 1955 801 1944.51 801 1936 792.27 1936 781.5Z" fill-rule="evenodd"/><path d="M1840 686.5C1840 675.73 1848.73 667 1859.5 667 1870.27 667 1879 675.73 1879 686.5 1879 697.27 1870.27 706 1859.5 706 1848.73 706 1840 697.27 1840 686.5Z" fill-rule="evenodd"/><text fill="#FF8200" font-family="Arial Black,Arial Black_MSFontService,sans-serif" font-weight="900" font-size="46" transform="matrix(1 0 0 1 1728.99 659)">1</text><text fill="#FF8200" font-family="Arial Black,Arial Black_MSFontService,sans-serif" font-weight="900" font-size="46" transform="matrix(1 0 0 1 1977.48 659)">2</text><text fill="#FF8200" font-family="Arial Black,Arial Black_MSFontService,sans-serif" font-weight="900" font-size="46" transform="matrix(1 0 0 1 1844.06 639)">5</text><text fill="#FF8200" font-family="Arial Black,Arial Black_MSFontService,sans-serif" font-weight="900" font-size="46" transform="matrix(1 0 0 1 1791.31 833)">4</text><text fill="#FF8200" font-family="Arial Black,Arial Black_MSFontService,sans-serif" font-weight="900" font-size="46" transform="matrix(1 0 0 1 1896.6 832)">3</text><path d="M2352.5 694C2352.5 597.074 2431.07 518.5 2528 518.5 2624.93 518.5 2703.5 597.074 2703.5 694 2703.5 790.926 2624.93 869.5 2528 869.5 2431.07 869.5 2352.5 790.926 2352.5 694Z" stroke="#FF8200" stroke-width="6.875" stroke-miterlimit="8" fill="none" fill-rule="evenodd"/><path d="M2412 598.5C2412 587.73 2420.51 579 2431 579 2441.49 579 2450 587.73 2450 598.5 2450 609.27 2441.49 618 2431 618 2420.51 618 2412 609.27 2412 598.5Z" fill-rule="evenodd"/><path d="M2602 598.5C2602 587.73 2610.51 579 2621 579 2631.49 579 2640 587.73 2640 598.5 2640 609.27 2631.49 618 2621 618 2610.51 618 2602 609.27 2602 598.5Z" fill-rule="evenodd"/><path d="M2410 785.5C2410 774.73 2418.51 766 2429 766 2439.49 766 2448 774.73 2448 785.5 2448 796.27 2439.49 805 2429 805 2418.51 805 2410 796.27 2410 785.5Z" fill-rule="evenodd"/><path d="M2602 785.5C2602 774.73 2610.51 766 2621 766 2631.49 766 2640 774.73 2640 785.5 2640 796.27 2631.49 805 2621 805 2610.51 805 2602 796.27 2602 785.5Z" fill-rule="evenodd"/><path d="M2506 689.5C2506 678.73 2514.51 670 2525 670 2535.49 670 2544 678.73 2544 689.5 2544 700.27 2535.49 709 2525 709 2514.51 709 2506 700.27 2506 689.5Z" fill-rule="evenodd"/><text fill="#FF8200" font-family="Arial Black,Arial Black_MSFontService,sans-serif" font-weight="900" font-size="46" transform="matrix(1 0 0 1 2444.37 582)">1</text><text fill="#FF8200" font-family="Arial Black,Arial Black_MSFontService,sans-serif" font-weight="900" font-size="46" transform="matrix(1 0 0 1 2575.59 578)">2</text><text fill="#FF8200" font-family="Arial Black,Arial Black_MSFontService,sans-serif" font-weight="900" font-size="46" transform="matrix(1 0 0 1 2509.37 804)">5</text><text fill="#FF8200" font-family="Arial Black,Arial Black_MSFontService,sans-serif" font-weight="900" font-size="46" transform="matrix(1 0 0 1 2615.91 673)">3</text><path d="M2508 828.5C2508 817.73 2516.73 809 2527.5 809 2538.27 809 2547 817.73 2547 828.5 2547 839.27 2538.27 848 2527.5 848 2516.73 848 2508 839.27 2508 828.5Z" fill-rule="evenodd"/><path d="M2374 689.5C2374 678.73 2382.51 670 2393 670 2403.49 670 2412 678.73 2412 689.5 2412 700.27 2403.49 709 2393 709 2382.51 709 2374 700.27 2374 689.5Z" fill-rule="evenodd"/><path d="M2642 689.5C2642 678.73 2650.51 670 2661 670 2671.49 670 2680 678.73 2680 689.5 2680 700.27 2671.49 709 2661 709 2650.51 709 2642 700.27 2642 689.5Z" fill-rule="evenodd"/><text fill="#FF8200" font-family="Arial Black,Arial Black_MSFontService,sans-serif" font-weight="900" font-size="46" transform="matrix(1 0 0 1 2380.46 769)">6</text><text fill="#FF8200" font-family="Arial Black,Arial Black_MSFontService,sans-serif" font-weight="900" font-size="46" transform="matrix(1 0 0 1 2397.23 669)">7</text><text fill="#FF8200" font-family="Arial Black,Arial Black_MSFontService,sans-serif" font-weight="900" font-size="46" transform="matrix(1 0 0 1 2510.96 664)">8</text><path d="M2860.5 701C2860.5 604.074 2939.07 525.5 3036 525.5 3132.93 525.5 3211.5 604.074 3211.5 701 3211.5 797.926 3132.93 876.5 3036 876.5 2939.07 876.5 2860.5 797.926 2860.5 701Z" stroke="#FF8200" stroke-width="6.875" stroke-miterlimit="8" fill="none" fill-rule="evenodd"/><path d="M2920 605.5C2920 594.731 2928.51 586 2939 586 2949.49 586 2958 594.731 2958 605.5 2958 616.27 2949.49 625 2939 625 2928.51 625 2920 616.27 2920 605.5Z" fill-rule="evenodd"/><path d="M3110 605.5C3110 594.731 3118.51 586 3129 586 3139.49 586 3148 594.731 3148 605.5 3148 616.27 3139.49 625 3129 625 3118.51 625 3110 616.27 3110 605.5Z" fill-rule="evenodd"/><path d="M2918 792.5C2918 781.731 2926.51 773 2937 773 2947.49 773 2956 781.731 2956 792.5 2956 803.27 2947.49 812 2937 812 2926.51 812 2918 803.27 2918 792.5Z" fill-rule="evenodd"/><path d="M3110 792.5C3110 781.731 3118.51 773 3129 773 3139.49 773 3148 781.731 3148 792.5 3148 803.27 3139.49 812 3129 812 3118.51 812 3110 803.27 3110 792.5Z" fill-rule="evenodd"/><path d="M3014 696.5C3014 685.73 3022.51 677 3033 677 3043.49 677 3052 685.73 3052 696.5 3052 707.27 3043.49 716 3033 716 3022.51 716 3014 707.27 3014 696.5Z" fill-rule="evenodd"/><text fill="#FF8200" font-family="Arial Black,Arial Black_MSFontService,sans-serif" font-weight="900" font-size="46" transform="matrix(1 0 0 1 2952.51 589)">1</text><text fill="#FF8200" font-family="Arial Black,Arial Black_MSFontService,sans-serif" font-weight="900" font-size="46" transform="matrix(1 0 0 1 3083.73 585)">2</text><text fill="#FF8200" font-family="Arial Black,Arial Black_MSFontService,sans-serif" font-weight="900" font-size="46" transform="matrix(1 0 0 1 3017.5 811)">5</text><text fill="#FF8200" font-family="Arial Black,Arial Black_MSFontService,sans-serif" font-weight="900" font-size="46" transform="matrix(1 0 0 1 3124.05 680)">3</text><path d="M3016 835.5C3016 824.73 3024.73 816 3035.5 816 3046.27 816 3055 824.73 3055 835.5 3055 846.269 3046.27 855 3035.5 855 3024.73 855 3016 846.269 3016 835.5Z" fill-rule="evenodd"/><path d="M2882 696.5C2882 685.73 2890.51 677 2901 677 2911.49 677 2920 685.73 2920 696.5 2920 707.27 2911.49 716 2901 716 2890.51 716 2882 707.27 2882 696.5Z" fill-rule="evenodd"/><path d="M3150 696.5C3150 685.73 3158.51 677 3169 677 3179.49 677 3188 685.73 3188 696.5 3188 707.27 3179.49 716 3169 716 3158.51 716 3150 707.27 3150 696.5Z" fill-rule="evenodd"/><text fill="#FF8200" font-family="Arial Black,Arial Black_MSFontService,sans-serif" font-weight="900" font-size="46" transform="matrix(1 0 0 1 2888.6 776)">6</text><text fill="#FF8200" font-family="Arial Black,Arial Black_MSFontService,sans-serif" font-weight="900" font-size="46" transform="matrix(1 0 0 1 2905.37 677)">7</text><text fill="#FF8200" font-family="Arial Black,Arial Black_MSFontService,sans-serif" font-weight="900" font-size="46" transform="matrix(1 0 0 1 3019.09 671)">8</text><rect x="1424.5" y="1498.5" width="525" height="269" stroke="#042433" stroke-width="6.875" stroke-miterlimit="8" fill="#FF8200"/><text fill="#FFFFFF" font-family="Aptos,Aptos_MSFontService,sans-serif" font-weight="400" font-size="64" transform="matrix(1 0 0 1 1500.37 1614)">Emergency In</text><text fill="#FFFFFF" font-family="Aptos,Aptos_MSFontService,sans-serif" font-weight="400" font-size="64" transform="matrix(1 0 0 1 1499.21 1691)">21.6V</text><text fill="#FFFFFF" font-family="Aptos,Aptos_MSFontService,sans-serif" font-weight="400" font-size="64" transform="matrix(1 0 0 1 1671.65 1691)">–</text><text fill="#FFFFFF" font-family="Aptos,Aptos_MSFontService,sans-serif" font-weight="400" font-size="64" transform="matrix(1 0 0 1 1714.62 1691)">26.4</text><text fill="#FFFFFF" font-family="Aptos,Aptos_MSFontService,sans-serif" font-weight="400" font-size="64" transform="matrix(1 0 0 1 1836.08 1691)">V</text><path d="M696.5 614.5 696.5 1632.97" stroke="#000000" stroke-width="6.875" stroke-miterlimit="8" fill="none" fill-rule="evenodd"/><path d="M696.5 1632.5 888.216 1632.5" stroke="#000000" stroke-width="6.875" stroke-miterlimit="8" fill="none" fill-rule="evenodd"/><path d="M1071.5 1632.5 1420.38 1632.5" stroke="#000000" stroke-width="6.875" stroke-miterlimit="8" fill="none" fill-rule="evenodd"/><path d="M877.5 1529.5 1086.1 1632.78" stroke="#000000" stroke-width="6.875" stroke-miterlimit="8" fill="none" fill-rule="evenodd"/></g></svg>